<svg xmlns="http://www.w3.org/2000/svg" xmlns:xlink="http://www.w3.org/1999/xlink" width="113" height="113" viewBox="0 0 113 113">
  <defs>
    <filter id="Trazado_982547" x="0" y="0" width="113" height="113" filterUnits="userSpaceOnUse">
      <feOffset dy="3" input="SourceAlpha"/>
      <feGaussianBlur stdDeviation="3" result="blur"/>
      <feFlood flood-opacity="0.161"/>
      <feComposite operator="in" in2="blur"/>
      <feComposite in="SourceGraphic"/>
    </filter>
  </defs>
  <g id="Grupo_1228303" data-name="Grupo 1228303" transform="translate(-271.425 -877.491)">
    <g id="Grupo_1228071" data-name="Grupo 1228071" transform="translate(0 -4755.689)">
      <g id="Grupo_1227502" data-name="Grupo 1227502" transform="translate(0 2048.198)">
        <g id="Grupo_1225350" data-name="Grupo 1225350" transform="translate(-0.575 -393.641)">
          <g id="Grupo_1208121" data-name="Grupo 1208121" transform="translate(0 -1922.377)">
            <g id="Grupo_1202432" data-name="Grupo 1202432" transform="translate(0 1255.486)">
              <g id="Grupo_1202055" data-name="Grupo 1202055" transform="translate(0 3240.511)">
                <g id="Grupo_1177900" data-name="Grupo 1177900" transform="translate(281 1411.003)">
                  <g id="Grupo_1172010" data-name="Grupo 1172010" transform="translate(0)">
                    <g id="Grupo_1171046" data-name="Grupo 1171046">
                      <g id="Grupo_1148525" data-name="Grupo 1148525">
                        <g transform="matrix(1, 0, 0, 1, -9, -6)" filter="url(#Trazado_982547)">
                          <g id="Trazado_982547-2" data-name="Trazado 982547" transform="translate(9 6)" fill="#d9faea">
                            <path d="M 47.5 93.5 C 41.28937149047852 93.5 35.26533508300781 92.28397369384766 29.59518623352051 89.88570404052734 C 24.11771965026855 87.56893157958984 19.19813346862793 84.25196075439453 14.97309303283691 80.02691650390625 C 10.74804019927979 75.80186462402344 7.431066513061523 70.88229370117188 5.114293098449707 65.40481567382812 C 2.716026782989502 59.73468017578125 1.5 53.71062850952148 1.5 47.5 C 1.5 41.28937149047852 2.716026782989502 35.26533508300781 5.114293098449707 29.59518623352051 C 7.431066513061523 24.11771965026855 10.74804019927979 19.19813346862793 14.97309303283691 14.97309303283691 C 19.19813346862793 10.74804019927979 24.11771965026855 7.431066513061523 29.59518623352051 5.114293098449707 C 35.26533508300781 2.716026782989502 41.28937149047852 1.5 47.5 1.5 C 53.71062850952148 1.5 59.73468017578125 2.716026782989502 65.40481567382812 5.114293098449707 C 70.88229370117188 7.431066513061523 75.80186462402344 10.74804019927979 80.02691650390625 14.97309303283691 C 84.25196075439453 19.19813346862793 87.56893157958984 24.11771965026855 89.88570404052734 29.59518623352051 C 92.28397369384766 35.26533508300781 93.5 41.28937149047852 93.5 47.5 C 93.5 53.71062850952148 92.28397369384766 59.73468017578125 89.88570404052734 65.40481567382812 C 87.56893157958984 70.88229370117188 84.25196075439453 75.80186462402344 80.02691650390625 80.02691650390625 C 75.80186462402344 84.25196075439453 70.88229370117188 87.56893157958984 65.40481567382812 89.88570404052734 C 59.73468017578125 92.28397369384766 53.71062850952148 93.5 47.5 93.5 Z" stroke="none"/>
                            <path d="M 47.5 3 C 41.49121475219727 3 35.66376876831055 4.176155090332031 30.17950439453125 6.495796203613281 C 24.88084411621094 8.736953735351562 20.12152099609375 11.94598388671875 16.03375244140625 16.03375244140625 C 11.94598388671875 20.12152099609375 8.736953735351562 24.88084411621094 6.495796203613281 30.17950439453125 C 4.176155090332031 35.66376876831055 3 41.49121475219727 3 47.5 C 3 53.50878524780273 4.176155090332031 59.33623123168945 6.495796203613281 64.82049560546875 C 8.736953735351562 70.11915588378906 11.94598388671875 74.87847900390625 16.03375244140625 78.96624755859375 C 20.12152099609375 83.05401611328125 24.88084411621094 86.26304626464844 30.17950439453125 88.50419616699219 C 35.66376876831055 90.82384490966797 41.49121475219727 92 47.5 92 C 53.50878524780273 92 59.33623123168945 90.82384490966797 64.82049560546875 88.50419616699219 C 70.11915588378906 86.26304626464844 74.87847900390625 83.05401611328125 78.96624755859375 78.96624755859375 C 83.05401611328125 74.87847900390625 86.26304626464844 70.11915588378906 88.50419616699219 64.82049560546875 C 90.82384490966797 59.33623123168945 92 53.50878524780273 92 47.5 C 92 41.49121475219727 90.82384490966797 35.66376876831055 88.50419616699219 30.17950439453125 C 86.26304626464844 24.88084411621094 83.05401611328125 20.12152099609375 78.96624755859375 16.03375244140625 C 74.87847900390625 11.94598388671875 70.11915588378906 8.736953735351562 64.82049560546875 6.495796203613281 C 59.33623123168945 4.176155090332031 53.50878524780273 3 47.5 3 M 47.5 0 C 73.7335205078125 0 95 21.2664794921875 95 47.5 C 95 73.7335205078125 73.7335205078125 95 47.5 95 C 21.2664794921875 95 0 73.7335205078125 0 47.5 C 0 21.2664794921875 21.2664794921875 0 47.5 0 Z" stroke="none" fill="#277e53"/>
                          </g>
                        </g>
                      </g>
                    </g>
                  </g>
                </g>
              </g>
            </g>
          </g>
        </g>
      </g>
    </g>
    <g id="educacion_4_" data-name="educacion (4)" transform="translate(298.772 897.424)">
      <g id="Grupo_1228302" data-name="Grupo 1228302" transform="translate(0.999 5.698)">
        <path id="Trazado_1176962" data-name="Trazado 1176962" d="M98.855,233.648a11.473,11.473,0,0,0-.068,8.5l.936,1.833h-40.4s-7.521-4.226,0-11.747l40.047-.825Z" transform="translate(-50.607 -206.338)" fill="#f1f2f2"/>
        <path id="Trazado_1176963" data-name="Trazado 1176963" d="M99.725,243.977h-40.4s-7.521-4.226,0-11.747l40.047-.826-.519,2.242a11,11,0,0,0-.571,1.822H61.631a2.574,2.574,0,1,0,0,5.148H98.3a9.888,9.888,0,0,0,.489,1.526Z" transform="translate(-50.61 -206.337)" fill="#dee1e1"/>
        <path id="Trazado_1176964" data-name="Trazado 1176964" d="M83.038,235.021l-36.924-.058c-4.424,0-8.223-2.822-8.223-7.246a10.078,10.078,0,0,1,.15-3.124,8.013,8.013,0,0,1,7.515-5.231H83.436a1.807,1.807,0,0,1,0,3.613H54.767l-2.8.657-2.435-.657H45.556a4.4,4.4,0,1,0,0,8.793H83.436a1.808,1.808,0,0,1,1.794,2.019C85.126,234.685,83.964,235.021,83.038,235.021Z" transform="translate(-34.534 -195.665)" fill="#b7e546"/>
        <path id="Trazado_1176965" data-name="Trazado 1176965" d="M82.893,270.892a1.806,1.806,0,0,1-1.794,1.594l-18.715,1.122-19.166-1.122a8.013,8.013,0,0,1-7.327-11.251v1.647a8.01,8.01,0,0,0,8.01,8.01Z" transform="translate(-32.197 -232.77)" fill="#abd641"/>
        <path id="Trazado_1176966" data-name="Trazado 1176966" d="M146.852,256.359v-5.267H143.1l-1.333.134.08,4.906a.228.228,0,0,0,.311.212l.942-.23,1.054-.413a.227.227,0,0,1,.166,0l2.224.871A.228.228,0,0,0,146.852,256.359Z" transform="translate(-126.619 -223.782)" fill="#ef5227"/>
        <path id="Trazado_1176967" data-name="Trazado 1176967" d="M141.95,251.1v5.021l-1.17.458a.228.228,0,0,1-.311-.212V251.1Z" transform="translate(-125.472 -223.785)" fill="#d83724"/>
        <path id="Trazado_1176968" data-name="Trazado 1176968" d="M135.622,173.182v2.568l-.114,1.139a.8.8,0,0,1-.8.8l-30.35-.114a.8.8,0,0,1-.8-.8l-.228-3.593,15.58-.745Z" transform="translate(-92.567 -154.084)" fill="#fdcd08"/>
        <path id="Trazado_1176969" data-name="Trazado 1176969" d="M437.946,197.8c-.713,1.757-1.43,3.491-2.143,5.249a1.6,1.6,0,0,0,1.464,2.2l1.318.114h3.207a1.6,1.6,0,0,0,1.464-2.2l-1.487-3.665-.935-1.7h-2.888Z" transform="translate(-387.066 -176.557)" fill="#fdcd08"/>
        <path id="Trazado_1176970" data-name="Trazado 1176970" d="M438.211,197.807a4.329,4.329,0,0,0,2.675-.648l-.8-2-1.321.395h0l-1.722-.23c-.217.536-.534,1.3-.751,1.834h0l-1.486,3.663a1.6,1.6,0,0,0,1.463,2.2h1.822a1.6,1.6,0,0,1-1.463-2.2l1.11-2.736A.46.46,0,0,1,438.211,197.807Z" transform="translate(-386.183 -174.22)" fill="#faab18"/>
        <path id="Trazado_1176971" data-name="Trazado 1176971" d="M452.544,160.475a2.653,2.653,0,0,0-1.775-2.51c-.268-.093-.657.072-.956.072a2.237,2.237,0,0,0-2.345,2.438,2.317,2.317,0,0,0,2.538,2.345c.3,0,.5.258.763.166A2.653,2.653,0,0,0,452.544,160.475Z" transform="translate(-397.509 -141.235)" fill="#fdcd08"/>
        <path id="Trazado_1176972" data-name="Trazado 1176972" d="M449.358,162.089a2.591,2.591,0,0,1-.854.143,2.654,2.654,0,0,1,0-5.308,2.59,2.59,0,0,1,.854.143,2.663,2.663,0,0,0,0,5.021Z" transform="translate(-396.098 -140.339)" fill="#faab18"/>
        <path id="Trazado_1176973" data-name="Trazado 1176973" d="M65.778,21.754l-7.511,2.6-2.05-.21-14.58,5.967a4.778,4.778,0,0,1-3.127,0L23.93,24.376l-2.05-.022-7.512-2.6a.956.956,0,0,1,0-1.806l24.426-8.456a3.907,3.907,0,0,1,2.557,0l24.426,8.456A.956.956,0,0,1,65.778,21.754Z" transform="translate(-13.161 -11.276)" fill="#868491"/>
        <path id="Trazado_1176974" data-name="Trazado 1176974" d="M121.722,82.987v.771l-16.63,5.757a4.778,4.778,0,0,1-3.127,0L85.336,83.758v-.771a3.35,3.35,0,0,1,2.76-3.3,87.463,87.463,0,0,1,30.865,0,3.353,3.353,0,0,1,2.76,3.3Z" transform="translate(-76.616 -70.681)" fill="#77777f"/>
        <path id="Trazado_1176975" data-name="Trazado 1176975" d="M137.394,98.938v6.791H105.45l-.114-6.563a1.3,1.3,0,0,1,1.073-1.282c.325-.058.423-.342.749-.4a85.388,85.388,0,0,1,29.164.169,1.3,1.3,0,0,1,1.073,1.282Z" transform="translate(-94.339 -86.631)" fill="#868491"/>
        <path id="Trazado_1176976" data-name="Trazado 1176976" d="M135.622,175.75V177a.8.8,0,0,1-.8.8H104.133a.8.8,0,0,1-.8-.8v-3.821l1.025-.745,1.025.745v2a.569.569,0,0,0,.569.569Z" transform="translate(-92.567 -154.084)" fill="#faab18"/>
        <path id="Trazado_1176977" data-name="Trazado 1176977" d="M105.386,106.6v8.241h-2.05v-6.791a1.3,1.3,0,0,1,1.073-1.282C104.734,106.715,105.06,106.659,105.386,106.6Z" transform="translate(-92.567 -95.749)" fill="#77777f"/>
        <path id="Trazado_1176978" data-name="Trazado 1176978" d="M81.846,390.351a10.715,10.715,0,0,1,0-8.2l.347-1.539H35.626s-5.242,5.7.341,11.281l46.529.349Z" transform="translate(-30.59 -338.551)" fill="#f1f2f2"/>
        <path id="Trazado_1176979" data-name="Trazado 1176979" d="M82.5,392.244,35.967,391.9c-5.584-5.582-.34-11.281-.34-11.281l46.79.086-.57,1.452a10.669,10.669,0,0,0-.509,1.553H38.6a2.574,2.574,0,1,0,0,5.149H81.351a10.8,10.8,0,0,0,.5,1.5Z" transform="translate(-30.589 -338.555)" fill="#dee1e1"/>
        <path id="Trazado_1176980" data-name="Trazado 1176980" d="M64.654,375.654l-42.1-.078c-4.424,0-8.316-2.5-8.316-6.92,0-1.4-.343-3.337.291-4.484a8.008,8.008,0,0,1,7.014-4.139h43.9a1.807,1.807,0,1,1,0,3.613H54.567l-2.842.629-2.392-.629H21.541a4.4,4.4,0,0,0,0,8.793h43.9a1.808,1.808,0,0,1,1.777,2.133c-.154.842-1.682,1.082-2.569,1.082Z" transform="translate(-13.531 -320.317)" fill="#ef5227"/>
        <path id="Trazado_1176981" data-name="Trazado 1176981" d="M62.459,403.417a1.809,1.809,0,0,1-1.778,1.48h-43.9a8.011,8.011,0,0,1-6.758-12.313v2.822a8.01,8.01,0,0,0,8.01,8.01Z" transform="translate(-8.768 -349.162)" fill="#d83724"/>
        <path id="Trazado_1176982" data-name="Trazado 1176982" d="M329.495,397.059v-5.31h-3.527l-1.564.1.084,4.987a.228.228,0,0,0,.311.212l1.17-.319.826-.324a.227.227,0,0,1,.166,0l2.224.871A.228.228,0,0,0,329.495,397.059Z" transform="translate(-288.459 -348.421)" fill="#fdcd08"/>
        <path id="Trazado_1176983" data-name="Trazado 1176983" d="M324.848,391.745v4.975l-1.4.547a.228.228,0,0,1-.311-.212v-5.31Z" transform="translate(-287.339 -348.417)" fill="#faab18"/>
      </g>
      <path id="Trazado_1176984" data-name="Trazado 1176984" d="M58.126,31.61l-1.9-4.673a3.47,3.47,0,0,0-1.761-5.6c0-.225,0-5.853,0-6.092a1.772,1.772,0,0,0-1.207-1.695L29.25,5.239a4.715,4.715,0,0,0-3.072,0L20.2,7.309a.854.854,0,1,0,.559,1.614l5.979-2.07a3,3,0,0,1,1.955,0L52.7,15.166a.086.086,0,0,1,0,.162l-8.266,2.862v-.256a2.133,2.133,0,0,0-1.758-2.1,84.5,84.5,0,0,0-29.931,0,2.133,2.133,0,0,0-1.758,2.1v.256L2.724,15.327a.086.086,0,0,1,0-.162l14.2-4.915a.854.854,0,1,0-.559-1.614l-14.2,4.915a1.794,1.794,0,0,0,0,3.39L10.99,20v8.453a8.861,8.861,0,0,0-4.04,16.186A8.863,8.863,0,0,0,8.864,62.152h43.9a2.66,2.66,0,0,0,.054-5.32,9.785,9.785,0,0,1-.021-7.087,2.661,2.661,0,0,0-.033-5.321H52.24a2.659,2.659,0,0,0-2.484-3.613h-.023a9.779,9.779,0,0,1-.161-6.635,2.4,2.4,0,0,0,1.763.774H55.9a2.4,2.4,0,0,0,1.995-1.064,2.431,2.431,0,0,0,.236-2.275Zm-2.781-6.917a1.73,1.73,0,1,1-1.73-1.755A1.744,1.744,0,0,1,55.346,24.693Zm-2.584-7.578v4.223A3.47,3.47,0,0,0,51,26.937l-.6,1.468H44.438V20Zm-39.711.4a82.814,82.814,0,0,1,29.328,0,.426.426,0,0,1,.351.42v5.821H37.466a.854.854,0,0,0,0,1.708h5.263v2.942H12.7V25.463H33.481a.854.854,0,0,0,0-1.708H12.7V17.933a.426.426,0,0,1,.351-.42ZM53.72,47.085a.954.954,0,0,1-.953.953H8.864a5.25,5.25,0,1,0,0,10.5H42.591a.854.854,0,1,0,0-1.708H8.864a3.542,3.542,0,1,1,0-7.084H35.8v4.788a.854.854,0,0,0,1.166.8l2.306-.9,2.306.9a.854.854,0,0,0,1.166-.8V49.746h8.245A11.463,11.463,0,0,0,51,56.831H46.577a.854.854,0,1,0,0,1.708h6.19a.953.953,0,0,1,0,1.905H8.864a7.156,7.156,0,1,1,0-14.311h43.9a.954.954,0,0,1,.953.953ZM37.509,49.746h3.527v3.536l-1.452-.568a.854.854,0,0,0-.623,0l-1.452.568ZM22.89,42.519H49.756a.953.953,0,1,1,0,1.905H11.875a7.156,7.156,0,0,1,0-14.311H49.712c-.211.566-.6,1.369-.732,1.905h-37.1a5.25,5.25,0,1,0,0,10.5H18.9a.854.854,0,0,0,0-1.708H11.875a3.542,3.542,0,1,1,0-7.084H15v4.747a.854.854,0,0,0,1.166.8l2.306-.9,2.306.9a.854.854,0,0,0,1.166-.8V33.727H47.919a11.464,11.464,0,0,0,0,7.084H22.89a.854.854,0,0,0,0,1.708Zm-6.184-8.793h3.527v3.495l-1.452-.568a.854.854,0,0,0-.623,0l-1.452.568Zm39.767-.8a.692.692,0,0,1-.578.31h-4.56a.693.693,0,0,1-.578-.31.716.716,0,0,1-.07-.679l1.747-4.307a3.419,3.419,0,0,0,2.361,0l1.747,4.307a.716.716,0,0,1-.07.679Z" transform="translate(0 0)"/>
    </g>
  </g>
</svg>
