<svg xmlns="http://www.w3.org/2000/svg" xmlns:xlink="http://www.w3.org/1999/xlink" width="93.934" height="93.934" viewBox="0 0 93.934 93.934">
  <defs>
    <filter id="Trazado_982547" x="0" y="0" width="93.934" height="93.934" filterUnits="userSpaceOnUse">
      <feOffset dy="3" input="SourceAlpha"/>
      <feGaussianBlur stdDeviation="3" result="blur"/>
      <feFlood flood-opacity="0.161"/>
      <feComposite operator="in" in2="blur"/>
      <feComposite in="SourceGraphic"/>
    </filter>
  </defs>
  <g id="Grupo_1228416" data-name="Grupo 1228416" transform="translate(-192.301 -2110.001)">
    <g id="Grupo_1224717" data-name="Grupo 1224717" transform="translate(201.301 2116)">
      <g id="Grupo_1220442" data-name="Grupo 1220442">
        <g id="Grupo_1219557" data-name="Grupo 1219557" transform="translate(0 0)">
          <g id="Grupo_1214714" data-name="Grupo 1214714">
            <g id="Grupo_1214432" data-name="Grupo 1214432">
              <g id="Grupo_1183196" data-name="Grupo 1183196" transform="translate(0 0)">
                <g id="Grupo_1179610" data-name="Grupo 1179610">
                  <g id="Grupo_1175227" data-name="Grupo 1175227">
                    <g id="Grupo_1167337" data-name="Grupo 1167337">
                      <g id="Grupo_1166720" data-name="Grupo 1166720">
                        <g id="Grupo_1164305" data-name="Grupo 1164305">
                          <g id="Grupo_1163948" data-name="Grupo 1163948">
                            <g id="Grupo_1158168" data-name="Grupo 1158168">
                              <g id="Grupo_1152576" data-name="Grupo 1152576">
                                <g id="Grupo_1148633" data-name="Grupo 1148633">
                                  <g id="Grupo_1148525" data-name="Grupo 1148525">
                                    <g transform="matrix(1, 0, 0, 1, -9, -6)" filter="url(#Trazado_982547)">
                                      <g id="Trazado_982547-2" data-name="Trazado 982547" transform="translate(9 6)" fill="#fef4f5">
                                        <path d="M 37.966796875 74.43359375 C 33.04315185546875 74.43359375 28.26757431030273 73.46962738037109 23.77274131774902 71.56847381591797 C 19.43047523498535 69.73184967041016 15.53040790557861 67.10224914550781 12.18087482452393 63.75271987915039 C 8.831341743469238 60.4031867980957 6.201741218566895 56.50312042236328 4.365118980407715 52.16086196899414 C 2.463963508605957 47.66601943969727 1.499996900558472 42.89044189453125 1.499996900558472 37.966796875 C 1.499996900558472 33.04315185546875 2.463963508605957 28.26757431030273 4.365118980407715 23.77274131774902 C 6.201741218566895 19.43047523498535 8.831341743469238 15.53040790557861 12.18087482452393 12.18087482452393 C 15.53040790557861 8.831341743469238 19.43047523498535 6.201741218566895 23.77274131774902 4.365118980407715 C 28.26757431030273 2.463963508605957 33.04315185546875 1.499996900558472 37.966796875 1.499996900558472 C 42.89044189453125 1.499996900558472 47.66601943969727 2.463963508605957 52.16086196899414 4.365118980407715 C 56.50312042236328 6.201741218566895 60.4031867980957 8.831341743469238 63.75271987915039 12.18087482452393 C 67.10224914550781 15.53040790557861 69.73184967041016 19.43047523498535 71.56847381591797 23.77274131774902 C 73.46962738037109 28.26757431030273 74.43359375 33.04315185546875 74.43359375 37.966796875 C 74.43359375 42.89044189453125 73.46962738037109 47.66601943969727 71.56847381591797 52.16086196899414 C 69.73184967041016 56.50313186645508 67.10224914550781 60.4031867980957 63.75271987915039 63.75271987915039 C 60.4031867980957 67.10224914550781 56.50313186645508 69.73184967041016 52.16086196899414 71.56847381591797 C 47.66601943969727 73.46962738037109 42.89044189453125 74.43359375 37.966796875 74.43359375 Z" stroke="none"/>
                                        <path d="M 37.966796875 3 C 33.2449836730957 3 28.66600799560547 3.924095153808594 24.35705947875977 5.746635437011719 C 20.19359588623047 7.507637023925781 16.45379638671875 10.02928161621094 13.24153518676758 13.24153518676758 C 10.02927398681641 16.45379638671875 7.507621765136719 20.19359588623047 5.746635437011719 24.35705947875977 C 3.924095153808594 28.66600799560547 3 33.2449836730957 3 37.966796875 C 3 42.6886100769043 3.924095153808594 47.26758575439453 5.746635437011719 51.57653427124023 C 7.507621765136719 55.73999786376953 10.02927398681641 59.47979736328125 13.24153518676758 62.69205856323242 C 16.45379638671875 65.90431976318359 20.19359588623047 68.42597198486328 24.35705947875977 70.18695831298828 C 28.66600799560547 72.00949859619141 33.2449836730957 72.93359375 37.966796875 72.93359375 C 42.6886100769043 72.93359375 47.26758575439453 72.00949859619141 51.57653427124023 70.18695831298828 C 55.73999786376953 68.42597198486328 59.47979736328125 65.90431976318359 62.69205856323242 62.69205856323242 C 65.90431976318359 59.47979736328125 68.42597198486328 55.73999786376953 70.18695831298828 51.57653427124023 C 72.00949859619141 47.26758575439453 72.93359375 42.6886100769043 72.93359375 37.966796875 C 72.93359375 33.2449836730957 72.00949859619141 28.66600799560547 70.18695831298828 24.35705947875977 C 68.42597198486328 20.19359588623047 65.90431976318359 16.45379638671875 62.69205856323242 13.24153518676758 C 59.47979736328125 10.02928161621094 55.73999786376953 7.507637023925781 51.57653427124023 5.746635437011719 C 47.26758575439453 3.924095153808594 42.6886100769043 3 37.966796875 3 M 37.966796875 0 C 58.93528366088867 0 75.93359375 16.99832153320312 75.93359375 37.966796875 C 75.93359375 58.93528366088867 58.93528366088867 75.93359375 37.966796875 75.93359375 C 16.99831008911133 75.93359375 0 58.93528366088867 0 37.966796875 C 0 16.99832153320312 16.99831008911133 0 37.966796875 0 Z" stroke="none" fill="#ff7f8f"/>
                                      </g>
                                    </g>
                                  </g>
                                </g>
                              </g>
                            </g>
                          </g>
                        </g>
                      </g>
                    </g>
                  </g>
                </g>
              </g>
            </g>
          </g>
        </g>
      </g>
    </g>
    <g id="malware" transform="translate(217.447 2110.453)">
      <g id="Grupo_1228414" data-name="Grupo 1228414" transform="translate(0.639 24.354)">
        <path id="Trazado_1177303" data-name="Trazado 1177303" d="M49.863,70.681V100a2.884,2.884,0,0,1-2.884,2.884H10.384A2.884,2.884,0,0,1,7.5,100V73.44l14.028-3.01a1.878,1.878,0,0,0,1.327-.551l1.657-1.658a1.881,1.881,0,0,1,1.327-.55Z" transform="translate(-7.5 -64.563)" fill="#fe646f"/>
        <path id="Trazado_1177304" data-name="Trazado 1177304" d="M28.361,67.979a1.9,1.9,0,0,0-.285.234l-1.657,1.658a1.88,1.88,0,0,1-1.327.551L11.064,73.432v26.56a2.884,2.884,0,0,0,2.883,2.884H10.384A2.884,2.884,0,0,1,7.5,99.991V73.432l14.028-3.011a1.878,1.878,0,0,0,1.327-.551l1.657-1.658a1.881,1.881,0,0,1,1.327-.55Z" transform="translate(-7.5 -64.556)" fill="#fd4755"/>
        <path id="Trazado_1177305" data-name="Trazado 1177305" d="M49.863,34.1V37.33H25.839a1.882,1.882,0,0,0-1.327.55l-1.657,1.658a1.878,1.878,0,0,1-1.327.551H7.5V34.1a2.884,2.884,0,0,1,2.884-2.884H46.979A2.884,2.884,0,0,1,49.863,34.1Z" transform="translate(-7.5 -31.212)" fill="#e8edf2"/>
        <path id="Trazado_1177306" data-name="Trazado 1177306" d="M13.948,31.208a2.884,2.884,0,0,0-2.883,2.884v5.992H7.5V34.092a2.884,2.884,0,0,1,2.884-2.884Z" transform="translate(-7.5 -31.208)" fill="#d9e7ec"/>
        <g id="Grupo_1228410" data-name="Grupo 1228410" transform="translate(3.06 2.551)">
          <circle id="Elipse_12503" data-name="Elipse 12503" cx="1.907" cy="1.907" r="1.907" fill="#82aee3"/>
          <circle id="Elipse_12504" data-name="Elipse 12504" cx="1.907" cy="1.907" r="1.907" transform="translate(6.321)" fill="#82aee3"/>
        </g>
        <g id="Grupo_1228413" data-name="Grupo 1228413" transform="translate(4.125 10.398)">
          <path id="Trazado_1177307" data-name="Trazado 1177307" d="M107.683,259.389l1.227.453,19.24-8.854.453-1.227.072-.195a1.74,1.74,0,1,1,3.263,1.206l-.072.195.195.072a1.74,1.74,0,0,1-1.206,3.263l-.195-.072-1.227-.453-19.24,8.854-.453,1.227-.072.195a1.74,1.74,0,0,1-3.263-1.206l.072-.195-.195-.072a1.74,1.74,0,1,1,1.206-3.263Z" transform="translate(-100.948 -240.313)" fill="#d9e7ec"/>
          <path id="Trazado_1177308" data-name="Trazado 1177308" d="M81.41,259.389l-1.227.453-19.24-8.854-.453-1.227-.072-.195a1.74,1.74,0,0,0-3.263,1.206l.072.195-.195.072a1.74,1.74,0,0,0,1.206,3.263l.195-.072,1.227-.453,19.24,8.854.453,1.227.072.195a1.74,1.74,0,0,0,3.263-1.206l-.072-.195.195-.072a1.74,1.74,0,1,0-1.206-3.263Z" transform="translate(-55.895 -240.313)" fill="#e8edf2"/>
          <path id="Trazado_1177309" data-name="Trazado 1177309" d="M144.088,153.2h-3.8a7.6,7.6,0,0,0-7.6,7.6v5.192a3.994,3.994,0,0,0,3.826,3.991v2.37a1.353,1.353,0,0,0,1.353,1.353h8.643a1.353,1.353,0,0,0,1.353-1.353v-2.37a3.994,3.994,0,0,0,3.826-3.991V160.8A7.6,7.6,0,0,0,144.088,153.2Z" transform="translate(-126.143 -153.2)" fill="#e8edf2"/>
          <path id="Trazado_1177310" data-name="Trazado 1177310" d="M141.494,173.707h-3.625a1.353,1.353,0,0,1-1.353-1.353v-2.37a3.994,3.994,0,0,1-3.826-3.99V160.8a7.6,7.6,0,0,1,7.6-7.6h3.625a7.6,7.6,0,0,0-7.6,7.6v5.192a4,4,0,0,0,2.631,3.755,1.793,1.793,0,0,1,1.2,1.68v.925A1.353,1.353,0,0,0,141.494,173.707Z" transform="translate(-126.144 -153.2)" fill="#d9e7ec"/>
          <g id="Grupo_1228412" data-name="Grupo 1228412" transform="translate(9.369 8.758)">
            <g id="Grupo_1228411" data-name="Grupo 1228411">
              <path id="Trazado_1177311" data-name="Trazado 1177311" d="M169.256,260.266h-.621a2.821,2.821,0,0,1-2.821-2.821,1.5,1.5,0,0,1,1.9-1.442l2.048.568a1.882,1.882,0,0,1-.5,3.695Z" transform="translate(-165.814 -255.948)" fill="#7a8c98"/>
              <path id="Trazado_1177312" data-name="Trazado 1177312" d="M261.9,260.266h.621a2.821,2.821,0,0,0,2.821-2.821,1.5,1.5,0,0,0-1.9-1.442l-2.048.568a1.882,1.882,0,0,0,.5,3.695Z" transform="translate(-251.993 -255.948)" fill="#7a8c98"/>
            </g>
            <path id="Trazado_1177313" data-name="Trazado 1177313" d="M227.63,306.936l-.833,1.443a.652.652,0,0,0,.565.978h1.666a.652.652,0,0,0,.565-.978l-.833-1.443a.652.652,0,0,0-1.13,0Z" transform="translate(-221.518 -302.291)" fill="#7a8c98"/>
          </g>
        </g>
      </g>
      <g id="Grupo_1228415" data-name="Grupo 1228415" transform="translate(0 23.715)">
        <path id="Trazado_1177314" data-name="Trazado 1177314" d="M35.9,56.178a2.546,2.546,0,1,0,2.546-2.546A2.549,2.549,0,0,0,35.9,56.178Zm2.546-1.267a1.268,1.268,0,1,1-1.267,1.267A1.269,1.269,0,0,1,38.442,54.911Z" transform="translate(-32.836 -51.082)"/>
        <path id="Trazado_1177315" data-name="Trazado 1177315" d="M115.141,56.178a2.546,2.546,0,1,0-2.546,2.546A2.549,2.549,0,0,0,115.141,56.178Zm-3.814,0a1.267,1.267,0,1,1,1.267,1.268A1.269,1.269,0,0,1,111.328,56.178Z" transform="translate(-100.669 -51.082)"/>
        <path id="Trazado_1177316" data-name="Trazado 1177316" d="M40.118,23.715H6.611a.639.639,0,0,0,0,1.279H40.118a2.248,2.248,0,0,1,2.245,2.245v2.594H18.979a2.5,2.5,0,0,0-1.78.737l-1.658,1.658a1.23,1.23,0,0,1-.875.363H1.279V27.239a2.248,2.248,0,0,1,2.245-2.245h.1a.639.639,0,1,0,0-1.279h-.1A3.528,3.528,0,0,0,0,27.239v28.73a.639.639,0,1,0,1.279,0v-22.1H14.666a2.5,2.5,0,0,0,1.78-.737L18.1,31.474a1.23,1.23,0,0,1,.875-.363H42.363V59.79a2.248,2.248,0,0,1-2.245,2.245H3.524A2.248,2.248,0,0,1,1.279,59.79v-.838a.639.639,0,1,0-1.279,0v.838a3.528,3.528,0,0,0,3.524,3.524H40.118a3.528,3.528,0,0,0,3.524-3.524V27.239a3.528,3.528,0,0,0-3.524-3.524Z" transform="translate(0 -23.715)"/>
        <path id="Trazado_1177317" data-name="Trazado 1177317" d="M48.551,159.526a2.382,2.382,0,0,0,3.055,1.406l1.173-.434,3.1,1.425a4.613,4.613,0,0,0,2.9,1.776v.654l-1.8.827-1.173-.434a2.379,2.379,0,0,0-2.012,4.294,2.379,2.379,0,0,0,4.57,1.263l.433-1.172,3.568-1.642h5.607l3.568,1.642.433,1.173a2.379,2.379,0,0,0,4.57-1.264,2.379,2.379,0,0,0-2.012-4.293l-1.172.434-1.955-.9V163.7a4.612,4.612,0,0,0,2.809-1.662l3.344-1.539,1.173.433a2.379,2.379,0,0,0,2.012-4.293,2.379,2.379,0,0,0-4.57-1.264l-.433,1.172-.509.234v-2.648a.639.639,0,0,0-1.279,0v5a3.346,3.346,0,0,1-3.213,3.352.639.639,0,0,0-.613.639v2.37a.715.715,0,0,1-.714.714h-.991v-2.2a.639.639,0,1,0-1.279,0v2.2H65.727v-2.2a.639.639,0,1,0-1.279,0v2.2H63.036v-2.2a.639.639,0,1,0-1.279,0v2.2h-.991a.715.715,0,0,1-.714-.714v-2.37a.639.639,0,0,0-.613-.639,3.346,3.346,0,0,1-3.213-3.352v-5.192a6.97,6.97,0,0,1,6.962-6.962h3.8a7,7,0,0,1,6.506,4.481.639.639,0,0,0,1.195-.455,8.241,8.241,0,0,0-7.7-5.3h-3.8a8.25,8.25,0,0,0-8.241,8.241v2.765l-.35-.161-.433-1.173a2.379,2.379,0,0,0-4.569,1.264,2.384,2.384,0,0,0-1.044,2.887Zm27.96-1.928a.639.639,0,0,0,.332-.359l.525-1.421a1.1,1.1,0,0,1,2.065.761l-.073.194a.639.639,0,0,0,.376.823l.2.073a1.1,1.1,0,0,1,.65,1.414,1.1,1.1,0,0,1-1.414.649l-1.42-.525a.639.639,0,0,0-.489.019l-2.161.995a4.679,4.679,0,0,0,.128-1.085v-.947ZM58.021,168.08a.639.639,0,0,0-.332.359l-.525,1.422A1.1,1.1,0,0,1,55.1,169.1l.072-.2a.639.639,0,0,0-.379-.822l-.194-.071a1.1,1.1,0,0,1,.762-2.065l1.423.527a.639.639,0,0,0,.489-.019l1.519-.7a2,2,0,0,0,1.032,1.5Zm15.531-1.609,1.422-.526a1.1,1.1,0,0,1,.764,2.064l-.2.072a.639.639,0,0,0-.379.823l.072.194a1.1,1.1,0,0,1-2.064.764l-.525-1.423a.64.64,0,0,0-.332-.359l-1.89-.87a2,2,0,0,0,.969-1.526l1.67.769A.638.638,0,0,0,73.552,166.471Zm-23.15-8.8.2-.072a.639.639,0,0,0,.376-.822l-.072-.192a1.1,1.1,0,1,1,2.064-.764l.525,1.422a.639.639,0,0,0,.332.359l1.126.518v1.019a4.682,4.682,0,0,0,.109,1l-1.984-.913a.64.64,0,0,0-.489-.019l-1.421.525a1.1,1.1,0,1,1-.763-2.064Z" transform="translate(-44.278 -135.305)"/>
        <path id="Trazado_1177318" data-name="Trazado 1177318" d="M164.916,251.518a2.528,2.528,0,0,0-1.847-2.429l-2.048-.568a2.136,2.136,0,0,0-2.707,2.058,3.464,3.464,0,0,0,3.46,3.46h.621A2.524,2.524,0,0,0,164.916,251.518Zm-2.521,1.242h-.621a2.184,2.184,0,0,1-2.182-2.182.858.858,0,0,1,.855-.858.865.865,0,0,1,.232.032l2.048.568a1.242,1.242,0,0,1-.332,2.439Z" transform="translate(-144.82 -229.287)"/>
        <path id="Trazado_1177319" data-name="Trazado 1177319" d="M255.666,254.04a3.464,3.464,0,0,0,3.46-3.46,2.136,2.136,0,0,0-2.707-2.058l-2.048.568a2.521,2.521,0,0,0,.674,4.95Zm-1.863-2.521a1.246,1.246,0,0,1,.91-1.2l2.048-.568a.862.862,0,0,1,.231-.032.858.858,0,0,1,.855.858,2.184,2.184,0,0,1-2.182,2.182h-.621A1.244,1.244,0,0,1,253.8,251.519Z" transform="translate(-230.999 -229.287)"/>
        <path id="Trazado_1177320" data-name="Trazado 1177320" d="M220.491,303.136h1.666a1.292,1.292,0,0,0,1.118-1.937l-.833-1.443a1.291,1.291,0,0,0-2.237,0l-.833,1.443a1.292,1.292,0,0,0,1.118,1.937Zm.822-2.741,0-.005h.005a.02.02,0,0,1,.014.006l.836,1.448a.018.018,0,0,1-.014.014h-1.672a.018.018,0,0,1-.005-.019Z" transform="translate(-200.513 -275.636)"/>
      </g>
    </g>
  </g>
</svg>
