<svg xmlns="http://www.w3.org/2000/svg" xmlns:xlink="http://www.w3.org/1999/xlink" width="113" height="113" viewBox="0 0 113 113">
  <defs>
    <filter id="Trazado_982547" x="0" y="0" width="113" height="113" filterUnits="userSpaceOnUse">
      <feOffset dy="3" input="SourceAlpha"/>
      <feGaussianBlur stdDeviation="3" result="blur"/>
      <feFlood flood-opacity="0.161"/>
      <feComposite operator="in" in2="blur"/>
      <feComposite in="SourceGraphic"/>
    </filter>
  </defs>
  <g id="Grupo_1228304" data-name="Grupo 1228304" transform="translate(-585 -877.51)">
    <g id="Grupo_1228081" data-name="Grupo 1228081" transform="translate(0 -4755.689)">
      <g id="Grupo_1227503" data-name="Grupo 1227503" transform="translate(0 2048.198)">
        <g id="Grupo_1225351" data-name="Grupo 1225351" transform="translate(-1 -393.91)">
          <g id="Grupo_1208122" data-name="Grupo 1208122" transform="translate(0 -1922.377)">
            <g id="Grupo_1202433" data-name="Grupo 1202433" transform="translate(-0.56 1255.773)">
              <g id="Grupo_1202054" data-name="Grupo 1202054" transform="translate(0 3240.511)">
                <g id="Grupo_1177897" data-name="Grupo 1177897" transform="translate(595.561 1411.003)">
                  <g id="Grupo_1172010" data-name="Grupo 1172010" transform="translate(0)">
                    <g id="Grupo_1171046" data-name="Grupo 1171046">
                      <g id="Grupo_1148525" data-name="Grupo 1148525">
                        <g transform="matrix(1, 0, 0, 1, -9, -6)" filter="url(#Trazado_982547)">
                          <g id="Trazado_982547-2" data-name="Trazado 982547" transform="translate(9 6)" fill="#d9faea">
                            <path d="M 47.5 93.5 C 41.28937149047852 93.5 35.26533508300781 92.28397369384766 29.59518623352051 89.88570404052734 C 24.11771965026855 87.56893157958984 19.19813346862793 84.25196075439453 14.97309303283691 80.02691650390625 C 10.74804019927979 75.80186462402344 7.431066513061523 70.88229370117188 5.114293098449707 65.40481567382812 C 2.716026782989502 59.73468017578125 1.5 53.71062850952148 1.5 47.5 C 1.5 41.28937149047852 2.716026782989502 35.26533508300781 5.114293098449707 29.59518623352051 C 7.431066513061523 24.11771965026855 10.74804019927979 19.19813346862793 14.97309303283691 14.97309303283691 C 19.19813346862793 10.74804019927979 24.11771965026855 7.431066513061523 29.59518623352051 5.114293098449707 C 35.26533508300781 2.716026782989502 41.28937149047852 1.5 47.5 1.5 C 53.71062850952148 1.5 59.73468017578125 2.716026782989502 65.40481567382812 5.114293098449707 C 70.88229370117188 7.431066513061523 75.80186462402344 10.74804019927979 80.02691650390625 14.97309303283691 C 84.25196075439453 19.19813346862793 87.56893157958984 24.11771965026855 89.88570404052734 29.59518623352051 C 92.28397369384766 35.26533508300781 93.5 41.28937149047852 93.5 47.5 C 93.5 53.71062850952148 92.28397369384766 59.73468017578125 89.88570404052734 65.40481567382812 C 87.56893157958984 70.88229370117188 84.25196075439453 75.80186462402344 80.02691650390625 80.02691650390625 C 75.80186462402344 84.25196075439453 70.88229370117188 87.56893157958984 65.40481567382812 89.88570404052734 C 59.73468017578125 92.28397369384766 53.71062850952148 93.5 47.5 93.5 Z" stroke="none"/>
                            <path d="M 47.5 3 C 41.49121475219727 3 35.66376876831055 4.176155090332031 30.17950439453125 6.495796203613281 C 24.88084411621094 8.736953735351562 20.12152099609375 11.94598388671875 16.03375244140625 16.03375244140625 C 11.94598388671875 20.12152099609375 8.736953735351562 24.88084411621094 6.495796203613281 30.17950439453125 C 4.176155090332031 35.66376876831055 3 41.49121475219727 3 47.5 C 3 53.50878524780273 4.176155090332031 59.33623123168945 6.495796203613281 64.82049560546875 C 8.736953735351562 70.11915588378906 11.94598388671875 74.87847900390625 16.03375244140625 78.96624755859375 C 20.12152099609375 83.05401611328125 24.88084411621094 86.26304626464844 30.17950439453125 88.50419616699219 C 35.66376876831055 90.82384490966797 41.49121475219727 92 47.5 92 C 53.50878524780273 92 59.33623123168945 90.82384490966797 64.82049560546875 88.50419616699219 C 70.11915588378906 86.26304626464844 74.87847900390625 83.05401611328125 78.96624755859375 78.96624755859375 C 83.05401611328125 74.87847900390625 86.26304626464844 70.11915588378906 88.50419616699219 64.82049560546875 C 90.82384490966797 59.33623123168945 92 53.50878524780273 92 47.5 C 92 41.49121475219727 90.82384490966797 35.66376876831055 88.50419616699219 30.17950439453125 C 86.26304626464844 24.88084411621094 83.05401611328125 20.12152099609375 78.96624755859375 16.03375244140625 C 74.87847900390625 11.94598388671875 70.11915588378906 8.736953735351562 64.82049560546875 6.495796203613281 C 59.33623123168945 4.176155090332031 53.50878524780273 3 47.5 3 M 47.5 0 C 73.7335205078125 0 95 21.2664794921875 95 47.5 C 95 73.7335205078125 73.7335205078125 95 47.5 95 C 21.2664794921875 95 0 73.7335205078125 0 47.5 C 0 21.2664794921875 21.2664794921875 0 47.5 0 Z" stroke="none" fill="#277e53"/>
                          </g>
                        </g>
                      </g>
                    </g>
                  </g>
                </g>
              </g>
            </g>
          </g>
        </g>
      </g>
    </g>
    <g id="presentacion_1_" data-name="presentacion (1)" transform="translate(613.187 902.696)">
      <path id="Trazado_1176985" data-name="Trazado 1176985" d="M184.885,29.235a6.189,6.189,0,0,0,6.194-6.194,1.77,1.77,0,1,0-3.539,0,2.651,2.651,0,0,1-2.654,2.654H184V8h35.392V34.544H184V29.235Zm0,0" transform="translate(-163.65 -7.115)" fill="#656d78"/>
      <path id="Trazado_1176986" data-name="Trazado 1176986" d="M385.733,288v2.654a2.651,2.651,0,0,1,2.654,2.654v4.424a7.189,7.189,0,0,1-12.387,0v-4.424A5.3,5.3,0,0,1,381.309,288Zm0,0" transform="translate(-334.415 -256.147)" fill="#965353"/>
      <path id="Trazado_1176987" data-name="Trazado 1176987" d="M382.194,379.539A7.028,7.028,0,0,0,388.387,376a6.154,6.154,0,0,1-3.539,5.583,6.147,6.147,0,0,1-5.309,0A6.153,6.153,0,0,1,376,376,7.028,7.028,0,0,0,382.194,379.539Zm0,0" transform="translate(-334.415 -334.415)" fill="#eac6bb"/>
      <path id="Trazado_1176988" data-name="Trazado 1176988" d="M419.437,379.353a6.146,6.146,0,0,1-2.552,2.23,6.068,6.068,0,0,1-.885.334,6.583,6.583,0,0,0,.805.184c.032.005.064.013.1.017a5.841,5.841,0,0,0,.866.067,6.074,6.074,0,0,0,2.654-.6A6.153,6.153,0,0,0,423.962,376,7.03,7.03,0,0,1,419.437,379.353Zm0,0" transform="translate(-369.99 -334.414)" fill="#d3b1a9"/>
      <path id="Trazado_1176989" data-name="Trazado 1176989" d="M435.539,290.654V288H432v4.424a2.651,2.651,0,0,1,2.654,2.654v2.654a6.152,6.152,0,0,1-.987,3.353,7.036,7.036,0,0,0,4.526-3.353v-4.424A2.651,2.651,0,0,0,435.539,290.654Zm0,0" transform="translate(-384.221 -256.147)" fill="#844747"/>
      <path id="Trazado_1176990" data-name="Trazado 1176990" d="M410.654,427.075a6.075,6.075,0,0,0,2.654-.6v3.266H408v-3.265A6.086,6.086,0,0,0,410.654,427.075Zm0,0" transform="translate(-362.875 -379.305)" fill="#f5f7fa"/>
      <path id="Trazado_1176991" data-name="Trazado 1176991" d="M375.926,458.654v2.654H360v-2.654A2.651,2.651,0,0,1,362.654,456h10.618A2.651,2.651,0,0,1,375.926,458.654Zm0,0" transform="translate(-320.184 -405.567)" fill="#e6e9ed"/>
      <path id="Trazado_1176992" data-name="Trazado 1176992" d="M451.539,456H448a2.651,2.651,0,0,1,2.654,2.654v2.654h3.539v-2.654A2.651,2.651,0,0,0,451.539,456Zm0,0" transform="translate(-398.451 -405.567)" fill="#ccd1d9"/>
      <path id="Trazado_1176993" data-name="Trazado 1176993" d="M232,434.654V432h5.309v2.654l-2.654.885Zm0,0" transform="translate(-206.341 -384.221)" fill="#eac6bb"/>
      <path id="Trazado_1176994" data-name="Trazado 1176994" d="M199.926,288.283V297.1H184v-8.813a7.963,7.963,0,0,1,15.926,0Zm0,0" transform="translate(-163.65 -249.317)" fill="#ffce54"/>
      <path id="Trazado_1176995" data-name="Trazado 1176995" d="M241.77,280.32a8,8,0,0,0-1.77.2,7.963,7.963,0,0,1,6.194,7.76V297.1h3.539v-8.813A7.964,7.964,0,0,0,241.77,280.32Zm0,0" transform="translate(-213.456 -249.317)" fill="#f6bb42"/>
      <path id="Trazado_1176996" data-name="Trazado 1176996" d="M199.926,458.654v2.654H184v-2.654A2.651,2.651,0,0,1,186.654,456h2.654l2.654.885,2.654-.885h2.654A2.651,2.651,0,0,1,199.926,458.654Zm0,0" transform="translate(-163.65 -405.567)" fill="#48cfad"/>
      <path id="Trazado_1176997" data-name="Trazado 1176997" d="M280.632,456h-2.654l-.251.084a2.645,2.645,0,0,1,2.021,2.57v2.654h3.539v-2.654A2.651,2.651,0,0,0,280.632,456Zm0,0" transform="translate(-247.01 -405.567)" fill="#37bc9b"/>
      <path id="Trazado_1176998" data-name="Trazado 1176998" d="M23.926,461.309H8v-2.654A2.651,2.651,0,0,1,10.654,456H21.272a2.651,2.651,0,0,1,2.654,2.654Zm0,0" transform="translate(-7.115 -405.567)" fill="#5d9cec"/>
      <path id="Trazado_1176999" data-name="Trazado 1176999" d="M99.539,456H96a2.651,2.651,0,0,1,2.654,2.654v2.654h3.539v-2.654A2.651,2.651,0,0,0,99.539,456Zm0,0" transform="translate(-85.382 -405.567)" fill="#4a89dc"/>
      <path id="Trazado_1177000" data-name="Trazado 1177000" d="M58.654,427.075a6.075,6.075,0,0,0,2.654-.6v3.266H56v-3.265A6.086,6.086,0,0,0,58.654,427.075Zm0,0" transform="translate(-49.806 -379.305)" fill="#f5f7fa"/>
      <path id="Trazado_1177001" data-name="Trazado 1177001" d="M30.194,382.185a6.074,6.074,0,0,1-2.654-.6A6.152,6.152,0,0,1,24,376a7.189,7.189,0,0,0,12.387,0,6.154,6.154,0,0,1-3.539,5.583A6.086,6.086,0,0,1,30.194,382.185Zm0,0" transform="translate(-21.346 -334.415)" fill="#eac6bb"/>
      <path id="Trazado_1177002" data-name="Trazado 1177002" d="M36.387,294.194v3.539a7.189,7.189,0,0,1-12.387,0v-3.539a6.194,6.194,0,0,1,12.387,0Zm0,0" transform="translate(-21.346 -256.147)" fill="#656d78"/>
      <path id="Trazado_1177003" data-name="Trazado 1177003" d="M67.437,379.346a6.146,6.146,0,0,1-2.552,2.23,6.075,6.075,0,0,1-.885.334,6.579,6.579,0,0,0,.805.184c.032.005.064.013.1.017a5.989,5.989,0,0,0,.867.067,6.075,6.075,0,0,0,2.654-.6,6.153,6.153,0,0,0,3.539-5.583A7.033,7.033,0,0,1,67.437,379.346Zm0,0" transform="translate(-56.922 -334.407)" fill="#d3b1a9"/>
      <path id="Trazado_1177004" data-name="Trazado 1177004" d="M65.77,288a6.068,6.068,0,0,0-.826.061l-.167.025a6.215,6.215,0,0,0-.775.172h0a6.187,6.187,0,0,1,4.424,5.934v3.539a6.152,6.152,0,0,1-.987,3.353,7.033,7.033,0,0,0,4.526-3.353v-3.539A6.189,6.189,0,0,0,65.77,288Zm0,0" transform="translate(-56.922 -256.147)" fill="#434a54"/>
      <path id="Trazado_1177005" data-name="Trazado 1177005" d="M74.654,147.075a6.074,6.074,0,0,0,2.654-.6v2.381l-.885.885-1.77-.885-1.77.885L72,148.854v-2.38A6.086,6.086,0,0,0,74.654,147.075Zm0,0" transform="translate(-64.037 -130.273)" fill="#f5f7fa"/>
      <path id="Trazado_1177006" data-name="Trazado 1177006" d="M17.733,132.424l1.77.885.885-.885H28.35A2.651,2.651,0,0,0,31,129.77a1.77,1.77,0,0,1,3.539,0,6.189,6.189,0,0,1-6.194,6.194H23.926v5.309H8v-5.309a3.538,3.538,0,0,1,3.539-3.539h3.539l.885.885Zm0,0" transform="translate(-7.115 -113.843)" fill="#e6e9ed"/>
      <path id="Trazado_1177007" data-name="Trazado 1177007" d="M344,40a6.194,6.194,0,0,1,4.38,10.573l-3.132-3.132A1.765,1.765,0,0,0,344,44.424Zm0,0" transform="translate(-305.954 -35.576)" fill="#a0d468"/>
      <path id="Trazado_1177008" data-name="Trazado 1177008" d="M295.441,47.441l3.132,3.132A6.194,6.194,0,1,1,294.193,40v4.424a1.77,1.77,0,1,0,1.248,3.017Zm0,0" transform="translate(-256.147 -35.576)" fill="#5d9cec"/>
      <path id="Trazado_1177009" data-name="Trazado 1177009" d="M123.539,31.785V33c-1.522-1.982-2.442-2.345-3.539-2.115l1.761-3.6A6.565,6.565,0,0,1,123.539,31.785Zm0,0" transform="translate(-106.728 -24.264)" fill="#edab37"/>
      <path id="Trazado_1177010" data-name="Trazado 1177010" d="M32.885,15.2c-.283-.035-.575-.071-.885-.124v-.442A6.638,6.638,0,0,1,38.636,8a6.556,6.556,0,0,1,4.858,2.133l-1.761,3.6c-1.655.345-3.707,2.062-8.848,1.469Zm0,0" transform="translate(-28.461 -7.115)" fill="#ffce54"/>
      <path id="Trazado_1177011" data-name="Trazado 1177011" d="M77.742,8a6.33,6.33,0,0,0-.855.061l-.122.019a7.256,7.256,0,0,0-.795.167h0a6.653,6.653,0,0,1,4.8,5.5c.022,0,.045-.013.067-.017l1.761-3.6A6.556,6.556,0,0,0,77.742,8Zm0,0" transform="translate(-67.567 -7.115)" fill="#f6bb42"/>
      <path id="Trazado_1177012" data-name="Trazado 1177012" d="M40,60.824c5.141.593,7.193-1.124,8.848-1.468,1.1-.231,2.017.132,3.539,2.115v1.884a6.154,6.154,0,0,1-3.539,5.583,6.147,6.147,0,0,1-5.309,0A6.154,6.154,0,0,1,40,63.354Zm0,0" transform="translate(-35.576 -52.737)" fill="#eac6bb"/>
      <path id="Trazado_1177013" data-name="Trazado 1177013" d="M84.424,59.351v4a6.154,6.154,0,0,1-3.539,5.583,6.076,6.076,0,0,1-.885.334,6.146,6.146,0,0,0,1.77.268,6.074,6.074,0,0,0,2.654-.6,6.153,6.153,0,0,0,3.539-5.583V61.466C86.441,59.483,85.521,59.121,84.424,59.351Zm0,0" transform="translate(-71.152 -52.732)" fill="#d3b1a9"/>
      <path id="Trazado_1177014" data-name="Trazado 1177014" d="M311.963,201.77h-7.078a.885.885,0,1,1,0-1.77h7.078a.885.885,0,0,1,0,1.77Zm0,0" transform="translate(-270.378 -177.88)"/>
      <path id="Trazado_1177015" data-name="Trazado 1177015" d="M287.042,177.77H272.885a.885.885,0,1,1,0-1.77h14.157a.885.885,0,0,1,0,1.77Zm0,0" transform="translate(-241.917 -156.534)"/>
      <path id="Trazado_1177016" data-name="Trazado 1177016" d="M351.323,104.208a.881.881,0,0,1-.626-.26l-3.128-3.127a.885.885,0,1,1,1.251-1.251l3.127,3.128a.885.885,0,0,1-.625,1.51Zm0,0" transform="translate(-308.897 -88.326)"/>
      <path id="Trazado_1177017" data-name="Trazado 1177017" d="M336.885,38.194a.884.884,0,0,1-.885-.885V32.885a.885.885,0,1,1,1.77,0v4.424A.884.884,0,0,1,336.885,38.194Zm0,0" transform="translate(-298.839 -28.461)"/>
      <path id="Trazado_1177018" data-name="Trazado 1177018" d="M322.654,77.309a2.654,2.654,0,1,1,2.654-2.654A2.658,2.658,0,0,1,322.654,77.309Zm0-3.539a.885.885,0,1,0,.885.885A.885.885,0,0,0,322.654,73.77Zm0,0" transform="translate(-284.608 -64.037)"/>
      <path id="Trazado_1177019" data-name="Trazado 1177019" d="M287.078,46.157a7.078,7.078,0,1,1,7.078-7.078A7.086,7.086,0,0,1,287.078,46.157Zm0-12.387a5.309,5.309,0,1,0,5.309,5.309A5.314,5.314,0,0,0,287.078,33.77Zm0,0" transform="translate(-249.032 -28.461)"/>
      <path id="Trazado_1177020" data-name="Trazado 1177020" d="M212.277,28.313H176.885a.884.884,0,0,1-.885-.885V22.12a.885.885,0,1,1,1.77,0v4.424h33.622V1.77H177.77V18.581a.885.885,0,1,1-1.77,0V.885A.884.884,0,0,1,176.885,0h35.392a.884.884,0,0,1,.885.885V27.429A.884.884,0,0,1,212.277,28.313Zm0,0" transform="translate(-156.534)"/>
      <path id="Trazado_1177021" data-name="Trazado 1177021" d="M32.885,206.194a.884.884,0,0,1-.885-.885v-4.424a.885.885,0,1,1,1.77,0v4.424A.884.884,0,0,1,32.885,206.194Zm0,0" transform="translate(-28.461 -177.88)"/>
      <path id="Trazado_1177022" data-name="Trazado 1177022" d="M36.424,161.786H32.885a.885.885,0,1,1,0-1.77h3.539a.885.885,0,1,1,0,1.77Zm0,0" transform="translate(-28.461 -142.318)"/>
      <path id="Trazado_1177023" data-name="Trazado 1177023" d="M.885,165.309A.884.884,0,0,1,0,164.424,4.429,4.429,0,0,1,4.424,160a.885.885,0,1,1,0,1.77,2.658,2.658,0,0,0-2.654,2.654A.884.884,0,0,1,.885,165.309Zm0,0" transform="translate(0 -142.304)"/>
      <path id="Trazado_1177024" data-name="Trazado 1177024" d="M.885,199.078A.884.884,0,0,1,0,198.194v-5.309a.885.885,0,0,1,1.77,0v5.309A.884.884,0,0,1,.885,199.078Zm0,0" transform="translate(0 -170.765)"/>
      <path id="Trazado_1177025" data-name="Trazado 1177025" d="M144.885,199.078a.884.884,0,0,1-.885-.885v-5.309a.885.885,0,0,1,1.77,0v5.309A.884.884,0,0,1,144.885,199.078Zm0,0" transform="translate(-128.074 -170.765)"/>
      <path id="Trazado_1177026" data-name="Trazado 1177026" d="M149.309,193.77h-4.424a.885.885,0,0,1,0-1.77h4.424a.885.885,0,1,1,0,1.77Zm0,0" transform="translate(-128.074 -170.765)"/>
      <path id="Trazado_1177027" data-name="Trazado 1177027" d="M212.424,123.539a.884.884,0,0,1-.885-.885.885.885,0,1,0-1.77,0,.885.885,0,0,1-1.77,0,2.654,2.654,0,0,1,5.309,0A.884.884,0,0,1,212.424,123.539Zm0,0" transform="translate(-184.995 -106.728)"/>
      <path id="Trazado_1177028" data-name="Trazado 1177028" d="M184.885,143.963a.885.885,0,0,1,0-1.77,5.314,5.314,0,0,0,5.309-5.309.885.885,0,0,1,1.77,0A7.086,7.086,0,0,1,184.885,143.963Zm0,0" transform="translate(-163.65 -120.958)"/>
      <path id="Trazado_1177029" data-name="Trazado 1177029" d="M184.885,140.424a.885.885,0,0,1,0-1.77,1.771,1.771,0,0,0,1.77-1.77.885.885,0,0,1,1.77,0A3.543,3.543,0,0,1,184.885,140.424Zm0,0" transform="translate(-163.65 -120.958)"/>
      <path id="Trazado_1177030" data-name="Trazado 1177030" d="M459.541,308.425a.884.884,0,0,1-.885-.885,1.772,1.772,0,0,0-1.771-1.77.885.885,0,1,1,0-1.77,3.544,3.544,0,0,1,3.541,3.54A.884.884,0,0,1,459.541,308.425Zm0,0" transform="translate(-405.567 -270.378)"/>
      <path id="Trazado_1177031" data-name="Trazado 1177031" d="M456.885,284.424a.884.884,0,0,1-.885-.885v-2.654a.885.885,0,1,1,1.77,0v2.654A.884.884,0,0,1,456.885,284.424Zm0,0" transform="translate(-405.567 -249.032)"/>
      <path id="Trazado_1177032" data-name="Trazado 1177032" d="M368.885,287.078a.884.884,0,0,1-.885-.885A6.2,6.2,0,0,1,374.194,280a.885.885,0,1,1,0,1.77,4.429,4.429,0,0,0-4.424,4.424A.884.884,0,0,1,368.885,287.078Zm0,0" transform="translate(-327.299 -249.032)"/>
      <path id="Trazado_1177033" data-name="Trazado 1177033" d="M421.309,281.77h-4.424a.885.885,0,1,1,0-1.77h4.424a.885.885,0,0,1,0,1.77Zm0,0" transform="translate(-369.991 -249.032)"/>
      <path id="Trazado_1177034" data-name="Trazado 1177034" d="M375.072,373.31a7.875,7.875,0,0,1-6.985-4.029.885.885,0,0,1,1.581-.8,6.308,6.308,0,0,0,10.806,0,.885.885,0,1,1,1.583.792A7.874,7.874,0,0,1,375.072,373.31Zm0,0" transform="translate(-327.293 -327.3)"/>
      <path id="Trazado_1177035" data-name="Trazado 1177035" d="M368.885,334.166a.884.884,0,0,1-.885-.885v-4.427a.885.885,0,0,1,1.77,0v4.427A.884.884,0,0,1,368.885,334.166Zm0,0" transform="translate(-327.299 -291.695)"/>
      <path id="Trazado_1177036" data-name="Trazado 1177036" d="M480.885,334.166a.884.884,0,0,1-.885-.885v-4.427a.885.885,0,0,1,1.77,0v4.427A.884.884,0,0,1,480.885,334.166Zm0,0" transform="translate(-426.912 -291.695)"/>
      <path id="Trazado_1177037" data-name="Trazado 1177037" d="M352.885,452.392a.884.884,0,0,1-.885-.885,3.543,3.543,0,0,1,3.539-3.538.885.885,0,1,1,0,1.77,1.771,1.771,0,0,0-1.77,1.769A.884.884,0,0,1,352.885,452.392Zm0,0" transform="translate(-313.069 -398.424)"/>
      <path id="Trazado_1177038" data-name="Trazado 1177038" d="M379.539,449.786h-2.654a.885.885,0,1,1,0-1.77h2.654a.885.885,0,1,1,0,1.77Zm0,0" transform="translate(-334.415 -398.466)"/>
      <path id="Trazado_1177039" data-name="Trazado 1177039" d="M352.885,476.389A.884.884,0,0,1,352,475.5v-2.659a.885.885,0,1,1,1.77,0V475.5A.884.884,0,0,1,352.885,476.389Zm0,0" transform="translate(-313.069 -419.762)"/>
      <path id="Trazado_1177040" data-name="Trazado 1177040" d="M475.539,452.392a.884.884,0,0,1-.885-.885,1.771,1.771,0,0,0-1.77-1.769.885.885,0,1,1,0-1.77,3.543,3.543,0,0,1,3.539,3.538A.884.884,0,0,1,475.539,452.392Zm0,0" transform="translate(-419.797 -398.424)"/>
      <path id="Trazado_1177041" data-name="Trazado 1177041" d="M451.539,449.786h-2.654a.885.885,0,1,1,0-1.77h2.654a.885.885,0,1,1,0,1.77Zm0,0" transform="translate(-398.451 -398.466)"/>
      <path id="Trazado_1177042" data-name="Trazado 1177042" d="M496.885,476.389A.884.884,0,0,1,496,475.5v-2.659a.885.885,0,1,1,1.77,0V475.5A.884.884,0,0,1,496.885,476.389Zm0,0" transform="translate(-441.143 -419.762)"/>
      <path id="Trazado_1177043" data-name="Trazado 1177043" d="M368.811,497.77H352.885a.885.885,0,1,1,0-1.77h15.926a.885.885,0,1,1,0,1.77Zm0,0" transform="translate(-313.069 -441.143)"/>
      <path id="Trazado_1177044" data-name="Trazado 1177044" d="M400.885,423.573a.884.884,0,0,1-.885-.885v-3.26a.885.885,0,1,1,1.77,0v3.26A.884.884,0,0,1,400.885,423.573Zm0,0" transform="translate(-355.76 -372.253)"/>
      <path id="Trazado_1177045" data-name="Trazado 1177045" d="M448.885,423.566a.884.884,0,0,1-.885-.885v-3.254a.885.885,0,1,1,1.77,0v3.254A.884.884,0,0,1,448.885,423.566Zm0,0" transform="translate(-398.451 -372.252)"/>
      <path id="Trazado_1177046" data-name="Trazado 1177046" d="M375.078,375.922A7.086,7.086,0,0,1,368,368.846a.885.885,0,1,1,1.77,0,5.309,5.309,0,0,0,10.618,0,.885.885,0,1,1,1.77,0A7.086,7.086,0,0,1,375.078,375.922Zm0,0" transform="translate(-327.299 -327.265)"/>
      <path id="Trazado_1177047" data-name="Trazado 1177047" d="M406.194,449.731h-5.309a.885.885,0,1,1,0-1.77h5.309a.885.885,0,1,1,0,1.77Zm0,0" transform="translate(-355.76 -398.417)"/>
      <path id="Trazado_1177048" data-name="Trazado 1177048" d="M23.072,373.31a7.875,7.875,0,0,1-6.985-4.029.885.885,0,0,1,1.581-.8,6.308,6.308,0,0,0,10.806,0,.885.885,0,1,1,1.583.792,7.874,7.874,0,0,1-6.985,4.027Zm0,0" transform="translate(-14.224 -327.3)"/>
      <path id="Trazado_1177049" data-name="Trazado 1177049" d="M16.885,341.281A.884.884,0,0,1,16,340.4v-3.543a.885.885,0,1,1,1.77,0V340.4A.884.884,0,0,1,16.885,341.281Zm0,0" transform="translate(-14.23 -298.811)"/>
      <path id="Trazado_1177050" data-name="Trazado 1177050" d="M128.885,341.281A.884.884,0,0,1,128,340.4v-3.543a.885.885,0,1,1,1.77,0V340.4A.884.884,0,0,1,128.885,341.281Zm0,0" transform="translate(-113.843 -298.811)"/>
      <path id="Trazado_1177051" data-name="Trazado 1177051" d="M.885,452.392A.884.884,0,0,1,0,451.507a3.543,3.543,0,0,1,3.539-3.538.885.885,0,1,1,0,1.77,1.771,1.771,0,0,0-1.77,1.769A.884.884,0,0,1,.885,452.392Zm0,0" transform="translate(0 -398.424)"/>
      <path id="Trazado_1177052" data-name="Trazado 1177052" d="M27.539,449.786H24.885a.885.885,0,1,1,0-1.77h2.654a.885.885,0,1,1,0,1.77Zm0,0" transform="translate(-21.346 -398.466)"/>
      <path id="Trazado_1177053" data-name="Trazado 1177053" d="M.885,476.389A.884.884,0,0,1,0,475.5v-2.659a.885.885,0,1,1,1.77,0V475.5A.884.884,0,0,1,.885,476.389Zm0,0" transform="translate(0 -419.762)"/>
      <path id="Trazado_1177054" data-name="Trazado 1177054" d="M123.539,452.392a.884.884,0,0,1-.885-.885,1.771,1.771,0,0,0-1.77-1.769.885.885,0,1,1,0-1.77,3.543,3.543,0,0,1,3.539,3.538A.884.884,0,0,1,123.539,452.392Zm0,0" transform="translate(-106.728 -398.424)"/>
      <path id="Trazado_1177055" data-name="Trazado 1177055" d="M99.539,449.786H96.885a.885.885,0,1,1,0-1.77h2.654a.885.885,0,1,1,0,1.77Zm0,0" transform="translate(-85.382 -398.466)"/>
      <path id="Trazado_1177056" data-name="Trazado 1177056" d="M144.885,476.389A.884.884,0,0,1,144,475.5v-2.659a.885.885,0,1,1,1.77,0V475.5A.884.884,0,0,1,144.885,476.389Zm0,0" transform="translate(-128.074 -419.762)"/>
      <path id="Trazado_1177057" data-name="Trazado 1177057" d="M16.811,497.77H.885a.885.885,0,1,1,0-1.77H16.811a.885.885,0,1,1,0,1.77Zm0,0" transform="translate(0 -441.143)"/>
      <path id="Trazado_1177058" data-name="Trazado 1177058" d="M48.885,423.573a.884.884,0,0,1-.885-.885v-3.26a.885.885,0,1,1,1.77,0v3.26A.884.884,0,0,1,48.885,423.573Zm0,0" transform="translate(-42.691 -372.253)"/>
      <path id="Trazado_1177059" data-name="Trazado 1177059" d="M96.885,423.566a.884.884,0,0,1-.885-.885v-3.254a.885.885,0,1,1,1.77,0v3.254A.884.884,0,0,1,96.885,423.566Zm0,0" transform="translate(-85.382 -372.252)"/>
      <path id="Trazado_1177060" data-name="Trazado 1177060" d="M23.078,375.922A7.086,7.086,0,0,1,16,368.846a.885.885,0,1,1,1.77,0,5.309,5.309,0,0,0,10.618,0,.885.885,0,1,1,1.77,0A7.086,7.086,0,0,1,23.078,375.922Zm0,0" transform="translate(-14.23 -327.265)"/>
      <path id="Trazado_1177061" data-name="Trazado 1177061" d="M29.272,287.96a.884.884,0,0,1-.885-.885,5.309,5.309,0,0,0-10.618,0,.885.885,0,0,1-1.77,0,7.078,7.078,0,0,1,14.157,0A.884.884,0,0,1,29.272,287.96Zm0,0" transform="translate(-14.23 -249.032)"/>
      <path id="Trazado_1177062" data-name="Trazado 1177062" d="M54.194,449.731H48.885a.885.885,0,1,1,0-1.77h5.309a.885.885,0,1,1,0,1.77Zm0,0" transform="translate(-42.691 -398.417)"/>
      <path id="Trazado_1177063" data-name="Trazado 1177063" d="M320.885,354.916a.884.884,0,0,1-.885-.885v-8.811a.885.885,0,0,1,1.77,0v8.811A.884.884,0,0,1,320.885,354.916Zm0,0" transform="translate(-284.608 -306.253)"/>
      <path id="Trazado_1177064" data-name="Trazado 1177064" d="M192.811,425.77H176.885a.885.885,0,1,1,0-1.77h15.926a.885.885,0,1,1,0,1.77Zm0,0" transform="translate(-156.534 -377.106)"/>
      <path id="Trazado_1177065" data-name="Trazado 1177065" d="M176.885,354.916a.884.884,0,0,1-.885-.885v-8.811a.885.885,0,1,1,1.77,0v8.811A.884.884,0,0,1,176.885,354.916Zm0,0" transform="translate(-156.534 -306.253)"/>
      <path id="Trazado_1177066" data-name="Trazado 1177066" d="M192.811,282.069a.884.884,0,0,1-.885-.885,7.078,7.078,0,0,0-14.157,0,.885.885,0,0,1-1.77,0,8.848,8.848,0,1,1,17.7,0A.884.884,0,0,1,192.811,282.069Zm0,0" transform="translate(-156.534 -242.216)"/>
      <path id="Trazado_1177067" data-name="Trazado 1177067" d="M176.885,452.392a.884.884,0,0,1-.885-.885,3.543,3.543,0,0,1,3.539-3.538.885.885,0,1,1,0,1.77,1.771,1.771,0,0,0-1.77,1.769A.884.884,0,0,1,176.885,452.392Zm0,0" transform="translate(-156.534 -398.424)"/>
      <path id="Trazado_1177068" data-name="Trazado 1177068" d="M203.539,449.786h-2.654a.885.885,0,1,1,0-1.77h2.654a.885.885,0,1,1,0,1.77Zm0,0" transform="translate(-177.88 -398.466)"/>
      <path id="Trazado_1177069" data-name="Trazado 1177069" d="M176.885,476.389A.884.884,0,0,1,176,475.5v-2.659a.885.885,0,1,1,1.77,0V475.5A.884.884,0,0,1,176.885,476.389Zm0,0" transform="translate(-156.534 -419.762)"/>
      <path id="Trazado_1177070" data-name="Trazado 1177070" d="M299.539,452.392a.884.884,0,0,1-.885-.885,1.771,1.771,0,0,0-1.77-1.769.885.885,0,1,1,0-1.77,3.542,3.542,0,0,1,3.539,3.538A.884.884,0,0,1,299.539,452.392Zm0,0" transform="translate(-263.262 -398.424)"/>
      <path id="Trazado_1177071" data-name="Trazado 1177071" d="M275.539,449.786h-2.654a.885.885,0,1,1,0-1.77h2.654a.885.885,0,1,1,0,1.77Zm0,0" transform="translate(-241.917 -398.466)"/>
      <path id="Trazado_1177072" data-name="Trazado 1177072" d="M320.885,476.389A.884.884,0,0,1,320,475.5v-2.659a.885.885,0,1,1,1.77,0V475.5A.884.884,0,0,1,320.885,476.389Zm0,0" transform="translate(-284.608 -419.762)"/>
      <path id="Trazado_1177073" data-name="Trazado 1177073" d="M192.811,497.77H176.885a.885.885,0,1,1,0-1.77h15.926a.885.885,0,1,1,0,1.77Zm0,0" transform="translate(-156.534 -441.143)"/>
      <path id="Trazado_1177074" data-name="Trazado 1177074" d="M224.885,437.8a.884.884,0,0,1-.885-.885v-1.49a.885.885,0,1,1,1.77,0v1.49A.884.884,0,0,1,224.885,437.8Zm0,0" transform="translate(-199.226 -386.483)"/>
      <path id="Trazado_1177075" data-name="Trazado 1177075" d="M272.885,437.8a.884.884,0,0,1-.885-.885v-1.484a.885.885,0,1,1,1.77,0v1.484A.884.884,0,0,1,272.885,437.8Zm0,0" transform="translate(-241.917 -386.483)"/>
      <path id="Trazado_1177076" data-name="Trazado 1177076" d="M227.541,450.6a.883.883,0,0,1-.28-.046l-2.654-.885a.885.885,0,1,1,.56-1.678l2.654.885a.885.885,0,0,1-.28,1.725Zm0,0" transform="translate(-199.227 -398.405)"/>
      <path id="Trazado_1177077" data-name="Trazado 1177077" d="M248.885,450.6a.885.885,0,0,1-.28-1.725l2.654-.885a.885.885,0,1,1,.56,1.678l-2.654.885A.866.866,0,0,1,248.885,450.6Zm0,0" transform="translate(-220.572 -398.405)"/>
      <path id="Trazado_1177078" data-name="Trazado 1177078" d="M32.885,69.362A.884.884,0,0,1,32,68.477V65.939a.885.885,0,1,1,1.77,0v2.538A.884.884,0,0,1,32.885,69.362Zm0,0" transform="translate(-28.461 -57.86)"/>
      <path id="Trazado_1177079" data-name="Trazado 1177079" d="M144.885,64.859a.884.884,0,0,1-.885-.885v-3.1a.885.885,0,1,1,1.77,0v3.1A.884.884,0,0,1,144.885,64.859Zm0,0" transform="translate(-128.074 -53.357)"/>
      <path id="Trazado_1177080" data-name="Trazado 1177080" d="M38.157,8.4a.884.884,0,0,1-.885-.885,5.751,5.751,0,0,0-11.5,0,.885.885,0,1,1-1.77,0,7.521,7.521,0,0,1,15.042,0A.884.884,0,0,1,38.157,8.4Zm0,0" transform="translate(-21.346 0)"/>
      <path id="Trazado_1177081" data-name="Trazado 1177081" d="M38.161,55.269a.884.884,0,0,1-.7-.347c-1.709-2.231-2.172-2.047-3.906-1.361a14.9,14.9,0,0,1-8.8.922.884.884,0,1,1,.277-1.747,13.192,13.192,0,0,0,7.874-.82c2.133-.846,3.563-1.2,5.962,1.93a.885.885,0,0,1-.7,1.423Zm0,0" transform="translate(-21.349 -45.651)"/>
      <path id="Trazado_1177082" data-name="Trazado 1177082" d="M112.887,24.605a.885.885,0,0,1-.793-1.275l1.77-3.6a.885.885,0,1,1,1.588.78l-1.77,3.6A.885.885,0,0,1,112.887,24.605Zm0,0" transform="translate(-99.616 -17.106)"/>
      <path id="Trazado_1177083" data-name="Trazado 1177083" d="M120.848,161.735l-7.964,0a.885.885,0,0,1,0-1.77h0l7.963,0a.885.885,0,0,1,0,1.77Zm0,0" transform="translate(-99.613 -142.269)"/>
      <path id="Trazado_1177084" data-name="Trazado 1177084" d="M64.885,142.688A.884.884,0,0,1,64,141.8v-2.375a.885.885,0,0,1,1.77,0V141.8A.884.884,0,0,1,64.885,142.688Zm0,0" transform="translate(-56.922 -123.22)"/>
      <path id="Trazado_1177085" data-name="Trazado 1177085" d="M112.885,142.681A.884.884,0,0,1,112,141.8v-2.369a.885.885,0,1,1,1.77,0V141.8A.884.884,0,0,1,112.885,142.681Zm0,0" transform="translate(-99.613 -123.22)"/>
      <path id="Trazado_1177086" data-name="Trazado 1177086" d="M39.078,95.922A7.086,7.086,0,0,1,32,88.846a.885.885,0,1,1,1.77,0,5.309,5.309,0,0,0,10.618,0,.885.885,0,1,1,1.77,0A7.086,7.086,0,0,1,39.078,95.922Zm0,0" transform="translate(-28.461 -78.233)"/>
      <path id="Trazado_1177087" data-name="Trazado 1177087" d="M72.879,162.615a.885.885,0,0,1-.4-1.677l1.77-.885a.885.885,0,1,1,.792,1.583l-1.77.885A.877.877,0,0,1,72.879,162.615Zm0,0" transform="translate(-64.031 -142.269)"/>
      <path id="Trazado_1177088" data-name="Trazado 1177088" d="M104.882,162.613a.885.885,0,0,1-.626-1.51l.885-.885a.885.885,0,0,1,1.251,1.251l-.885.885A.883.883,0,0,1,104.882,162.613Zm0,0" transform="translate(-92.495 -142.267)"/>
      <path id="Trazado_1177089" data-name="Trazado 1177089" d="M65.767,162.613a.883.883,0,0,1-.626-.259l-.885-.885a.885.885,0,0,1,1.251-1.251l.885.885a.885.885,0,0,1-.626,1.51Zm0,0" transform="translate(-56.919 -142.267)"/>
      <path id="Trazado_1177090" data-name="Trazado 1177090" d="M90.654,162.622a.888.888,0,0,1-.394-.093l-1.77-.885a.885.885,0,1,1,.792-1.583l1.77.885a.885.885,0,0,1-.4,1.676Zm0,0" transform="translate(-78.268 -142.276)"/>
      <path id="Trazado_1177091" data-name="Trazado 1177091" d="M24.885,62.2A.884.884,0,0,1,24,61.316v-.439a.885.885,0,0,1,1.77,0v.439A.884.884,0,0,1,24.885,62.2Zm0,0" transform="translate(-21.346 -53.357)"/>
    </g>
  </g>
</svg>
