<svg xmlns="http://www.w3.org/2000/svg" xmlns:xlink="http://www.w3.org/1999/xlink" width="108" height="108" viewBox="0 0 108 108">
  <defs>
    <filter id="Trazado_904820" x="0" y="0" width="108" height="108" filterUnits="userSpaceOnUse">
      <feOffset dy="3" input="SourceAlpha"/>
      <feGaussianBlur stdDeviation="3" result="blur"/>
      <feFlood flood-opacity="0.161"/>
      <feComposite operator="in" in2="blur"/>
      <feComposite in="SourceGraphic"/>
    </filter>
  </defs>
  <g id="Grupo_1228421" data-name="Grupo 1228421" transform="translate(-200.734 -4255)">
    <g id="Grupo_1222982" data-name="Grupo 1222982" transform="translate(0.734 1619.248)">
      <g id="Grupo_1222609" data-name="Grupo 1222609" transform="translate(209 2641.752)">
        <g id="Grupo_1173585" data-name="Grupo 1173585" transform="translate(0 0)">
          <g id="Grupo_1173428" data-name="Grupo 1173428">
            <g id="Grupo_1171958" data-name="Grupo 1171958">
              <g id="Grupo_1167341" data-name="Grupo 1167341">
                <g id="Grupo_1166792" data-name="Grupo 1166792">
                  <g transform="matrix(1, 0, 0, 1, -9, -6)" filter="url(#Trazado_904820)">
                    <g id="Trazado_904820-2" data-name="Trazado 904820" transform="translate(9 6)" fill="#ebfcf4">
                      <path d="M 44.99999618530273 88.50003051757812 C 39.12687301635742 88.50003051757812 33.43022155761719 87.35010528564453 28.06829643249512 85.08219146728516 C 22.88852119445801 82.89134216308594 18.23629570007324 79.75461578369141 14.24084663391113 75.75917053222656 C 10.24540901184082 71.76371765136719 7.108683586120605 67.11149597167969 4.917821407318115 61.93172073364258 C 2.649921178817749 56.56979370117188 1.499996185302734 50.87314224243164 1.499996185302734 45.00001907348633 C 1.499996185302734 39.12689590454102 2.649921178817749 33.43024444580078 4.917821407318115 28.06831932067871 C 7.108683586120605 22.8885440826416 10.24540901184082 18.23631858825684 14.24084663391113 14.24086952209473 C 18.23629570007324 10.2454195022583 22.88852119445801 7.108694076538086 28.06829643249512 4.917844295501709 C 33.43022155761719 2.649931669235229 39.12687301635742 1.500006556510925 44.99999618530273 1.500006556510925 C 50.87311935424805 1.500006556510925 56.56977081298828 2.649931669235229 61.93169784545898 4.917844295501709 C 67.11147308349609 7.108694076538086 71.76369476318359 10.2454195022583 75.75914764404297 14.24086952209473 C 79.75458526611328 18.23631858825684 82.89131164550781 22.8885440826416 85.08216857910156 28.06831932067871 C 87.35007476806641 33.43024444580078 88.5 39.12689590454102 88.5 45.00001907348633 C 88.5 50.87314224243164 87.35007476806641 56.56979370117188 85.08216857910156 61.93172073364258 C 82.89131164550781 67.11149597167969 79.75458526611328 71.76371765136719 75.75914764404297 75.75917053222656 C 71.76369476318359 79.75461578369141 67.11147308349609 82.89134216308594 61.93169784545898 85.08219146728516 C 56.56977081298828 87.35010528564453 50.87311935424805 88.50003051757812 44.99999618530273 88.50003051757812 Z" stroke="none"/>
                      <path d="M 44.99999618530273 3.000007629394531 C 39.32870864868164 3.000007629394531 33.82865142822266 4.110061645507812 28.65262603759766 6.299346923828125 C 23.65165710449219 8.414573669433594 19.15968322753906 11.44334411621094 15.301513671875 15.30153656005859 C 11.44333648681641 19.15970611572266 8.414566040039062 23.65166473388672 6.299339294433594 28.65264892578125 C 4.110054016113281 33.82867431640625 2.999992370605469 39.32873153686523 2.999992370605469 45.00001907348633 C 2.999992370605469 50.67130661010742 4.110054016113281 56.17136383056641 6.299339294433594 61.34738922119141 C 8.414566040039062 66.34837341308594 11.44333648681641 70.84033203125 15.301513671875 74.69850158691406 C 19.15968322753906 78.55668640136719 23.65165710449219 81.58546447753906 28.65262603759766 83.70069122314453 C 33.82865142822266 85.88997650146484 39.32870864868164 87.00003051757812 44.99999618530273 87.00003051757812 C 50.67128372192383 87.00003051757812 56.17134094238281 85.88997650146484 61.34736633300781 83.70069122314453 C 66.34834289550781 81.58546447753906 70.84030914306641 78.55668640136719 74.69847869873047 74.69850158691406 C 78.55665588378906 70.84033203125 81.58542633056641 66.34837341308594 83.70065307617188 61.34738922119141 C 85.88993835449219 56.17136383056641 87 50.67130661010742 87 45.00001907348633 C 87 39.32873153686523 85.88993835449219 33.82867431640625 83.70065307617188 28.65264892578125 C 81.58542633056641 23.65166473388672 78.55665588378906 19.15970611572266 74.69847869873047 15.30153656005859 C 70.84030914306641 11.44334411621094 66.34834289550781 8.414573669433594 61.34736633300781 6.299346923828125 C 56.17134094238281 4.110061645507812 50.67128372192383 3.000007629394531 44.99999618530273 3.000007629394531 M 44.99999618530273 7.62939453125e-06 C 69.85281372070312 7.62939453125e-06 90 20.14720153808594 90 45.00001907348633 C 90 69.85282897949219 69.85281372070312 90.00003051757812 44.99999618530273 90.00003051757812 C 20.14717864990234 90.00003051757812 -7.62939453125e-06 69.85282897949219 -7.62939453125e-06 45.00001907348633 C -7.62939453125e-06 20.14720153808594 20.14717864990234 7.62939453125e-06 44.99999618530273 7.62939453125e-06 Z" stroke="none" fill="#277e53"/>
                    </g>
                  </g>
                </g>
              </g>
            </g>
          </g>
        </g>
      </g>
    </g>
    <g id="asistente-de-ai_3_" data-name="asistente-de-ai (3)" transform="translate(224.954 4280.519)">
      <path id="Trazado_1177338" data-name="Trazado 1177338" d="M476.119,7.5A1.619,1.619,0,0,0,474.5,9.119v16.19a1.619,1.619,0,0,0,3.238,0V9.119A1.619,1.619,0,0,0,476.119,7.5Z" transform="translate(-423.286 -6.691)" fill="#a096e1"/>
      <path id="Trazado_1177339" data-name="Trazado 1177339" d="M308.843,8.576a1.619,1.619,0,0,0-3.051,0L299.6,24.729a1.619,1.619,0,1,0,3.023,1.159l1.147-2.993h7.094l1.147,2.993a1.619,1.619,0,1,0,3.023-1.159Zm-3.831,11.082,2.306-6.015,2.306,6.015Z" transform="translate(-267.167 -6.691)" fill="#a096e1"/>
      <path id="Trazado_1177340" data-name="Trazado 1177340" d="M7.5,339.5v3.238a3.238,3.238,0,0,0,3.238,3.238H25.309V339.5Z" transform="translate(-6.69 -302.857)" fill="#8b7ee2"/>
      <path id="Trazado_1177341" data-name="Trazado 1177341" d="M10.738,283.5A3.238,3.238,0,0,0,7.5,286.738v2.806a3.238,3.238,0,0,0,3.238,3.238H25.309V283.5Z" transform="translate(-6.69 -252.901)" fill="#a096e1"/>
      <path id="Trazado_1177342" data-name="Trazado 1177342" d="M172.5,339.5v6.476h14.571a3.238,3.238,0,0,0,3.238-3.238V339.5Z" transform="translate(-153.882 -302.857)" fill="#7666e3"/>
      <path id="Trazado_1177343" data-name="Trazado 1177343" d="M187.071,283.5H172.5v9.282h14.571a3.238,3.238,0,0,0,3.238-3.238v-2.806A3.238,3.238,0,0,0,187.071,283.5Z" transform="translate(-153.882 -252.901)" fill="#6b80ea"/>
      <path id="Trazado_1177344" data-name="Trazado 1177344" d="M145.738,7.5a3.237,3.237,0,0,0-2.8,4.857,8.851,8.851,0,0,1,1.185,4.423v9.176h3.238V16.78a8.845,8.845,0,0,1,1.185-4.423,3.238,3.238,0,0,0-2.8-4.857Z" transform="translate(-127.12 -6.691)" fill="#ccc7e0"/>
      <path id="Trazado_1177345" data-name="Trazado 1177345" d="M232.5,162.544v36.908a8.1,8.1,0,0,0,8.095-8.095V175.6A14.57,14.57,0,0,0,232.5,162.544Z" transform="translate(-207.406 -145)" fill="#ccc7e0"/>
      <path id="Trazado_1177346" data-name="Trazado 1177346" d="M63.4,175.6c0-5.721-1.979-10.671-4.857-13.055H45.595A14.57,14.57,0,0,0,37.5,175.6v15.758a8.1,8.1,0,0,0,8.095,8.095l6.476-1.619,6.476,1.619c2.682,0,4.857-3.624,4.857-8.095v-3.238l-1.619-3.778,1.619-3.778Z" transform="translate(-33.453 -145)" fill="#dfdde9"/>
      <path id="Trazado_1177347" data-name="Trazado 1177347" d="M125.452,159.833v-9.817a14.591,14.591,0,0,0-12.952,0v9.817Z" transform="translate(-100.358 -132.472)" fill="#f2f2f2"/>
      <path id="Trazado_1177348" data-name="Trazado 1177348" d="M115.738,474.5l-3.238,3.238h12.952l-3.238-3.238Z" transform="translate(-100.358 -423.286)" fill="#ccc7e0"/>
      <path id="Trazado_1177349" data-name="Trazado 1177349" d="M204.738,283.5H201.5l.108,17.377h3.238a4.857,4.857,0,0,0,4.857-4.857v-7.555A4.965,4.965,0,0,0,204.738,283.5Z" transform="translate(-179.752 -252.901)" fill="#4c4a49"/>
      <path id="Trazado_1177350" data-name="Trazado 1177350" d="M86.928,296.02v-7.555a4.965,4.965,0,0,0-4.965-4.965h-9.5a4.965,4.965,0,0,0-4.965,4.965v7.555a4.857,4.857,0,0,0,4.857,4.857h9.714A4.857,4.857,0,0,0,86.928,296.02Z" transform="translate(-60.215 -252.901)" fill="#625f5e"/>
      <circle id="Elipse_12505" data-name="Elipse 12505" cx="1.619" cy="1.619" r="1.619" transform="translate(10.523 33.837)" fill="#fff"/>
      <circle id="Elipse_12506" data-name="Elipse 12506" cx="1.619" cy="1.619" r="1.619" transform="translate(23.475 33.837)" fill="#fff"/>
      <path id="Trazado_1177351" data-name="Trazado 1177351" d="M469.428,0A2.431,2.431,0,0,0,467,2.428V8.9a.809.809,0,0,0,1.619,0V2.428a.809.809,0,0,1,1.619,0v16.19a.809.809,0,0,1-1.619,0V12.142a.809.809,0,0,0-1.619,0v6.476a2.428,2.428,0,0,0,4.857,0V2.428A2.431,2.431,0,0,0,469.428,0Z" transform="translate(-416.596)"/>
      <path id="Trazado_1177352" data-name="Trazado 1177352" d="M302.914,1.6a2.429,2.429,0,0,0-4.569,0l-6.189,16.145a2.428,2.428,0,0,0,4.535,1.738l.948-2.473h5.981l.949,2.473a2.428,2.428,0,0,0,4.535-1.738S302.914,1.6,302.914,1.6Zm4.213,17.77a.811.811,0,0,1-1.046-.466l-1.148-2.992a.809.809,0,0,0-.756-.52h-7.094a.81.81,0,0,0-.756.52l-1.147,2.992a.81.81,0,1,1-1.512-.579L299.86,2.175l.007-.018a.81.81,0,0,1,1.526,0l.007.018,6.194,16.153A.81.81,0,0,1,307.127,19.374Z" transform="translate(-260.479)"/>
      <path id="Trazado_1177353" data-name="Trazado 1177353" d="M347,57.429a.809.809,0,0,0-1.512,0l-2.306,6.015a.809.809,0,0,0,.756,1.1h4.612a.809.809,0,0,0,.756-1.1Zm-1.885,5.5,1.129-2.944,1.129,2.944Z" transform="translate(-306.096 -50.767)"/>
      <path id="Trazado_1177354" data-name="Trazado 1177354" d="M152.429,362.072a3.079,3.079,0,0,0,2.191-.908.809.809,0,0,0-1.145-1.145,1.479,1.479,0,0,1-2.093,0,.809.809,0,0,0-1.145,1.145A3.079,3.079,0,0,0,152.429,362.072Z" transform="translate(-133.81 -320.95)"/>
      <path id="Trazado_1177355" data-name="Trazado 1177355" d="M65.666,295H78.618a5.673,5.673,0,0,0,5.666-5.666v-7.555A5.781,5.781,0,0,0,78.51,276H65.774A5.781,5.781,0,0,0,60,281.774v7.555A5.673,5.673,0,0,0,65.666,295Zm-4.047-13.222a4.16,4.16,0,0,1,4.155-4.155H78.51a4.16,4.16,0,0,1,4.155,4.155v7.555a4.052,4.052,0,0,1-4.047,4.047H65.666a4.052,4.052,0,0,1-4.047-4.047Z" transform="translate(-53.524 -246.211)"/>
      <path id="Trazado_1177356" data-name="Trazado 1177356" d="M33.981,29.868A15.407,15.407,0,0,0,21.047,15.411V10.09a8.048,8.048,0,0,1,1.077-4.018,4.048,4.048,0,1,0-7.01,0A8.051,8.051,0,0,1,16.19,10.09v5.32a15.292,15.292,0,0,0-9.66,5.679.809.809,0,0,0,1.272,1,13.825,13.825,0,0,1,3.531-3.174v8.444a.81.81,0,0,0,.809.809H25.094a.81.81,0,0,0,.809-.809V18.929A13.764,13.764,0,0,1,32.38,30.6V46.357a7.294,7.294,0,0,1-6.958,7.277l-2.993-2.993a.809.809,0,0,0-.572-.237H15.38a.809.809,0,0,0-.572.237l-2.993,2.993a7.294,7.294,0,0,1-6.959-7.277V30.6a13.634,13.634,0,0,1,1.331-5.91.81.81,0,0,0-1.462-.7,15.209,15.209,0,0,0-1.47,5.875A4.054,4.054,0,0,0,0,33.837v6.044a4.054,4.054,0,0,0,3.238,3.966v2.51a8.914,8.914,0,0,0,8.9,8.9H25.094a8.914,8.914,0,0,0,8.9-8.9v-2.51a4.054,4.054,0,0,0,3.238-3.966V33.837A4.054,4.054,0,0,0,33.981,29.868ZM18.618,1.619a2.429,2.429,0,0,1,2.1,3.643,9.668,9.668,0,0,0-1.294,4.828v5.15q-.4-.021-.809-.021c-.271,0-.541.008-.809.022V10.09a9.674,9.674,0,0,0-1.294-4.829,2.428,2.428,0,0,1,2.1-3.642Zm5.666,24.932H12.952v-8.5a13.8,13.8,0,0,1,11.333.009ZM3.238,42.17a2.432,2.432,0,0,1-1.619-2.289V33.837a2.432,2.432,0,0,1,1.619-2.289ZM14.1,53.642l1.619-1.619h5.805l1.619,1.619ZM35.618,39.881A2.432,2.432,0,0,1,34,42.17V31.547a2.432,2.432,0,0,1,1.619,2.289Z" transform="translate(0 0)"/>
      <path id="Trazado_1177357" data-name="Trazado 1177357" d="M92.428,310.857A2.428,2.428,0,1,0,90,308.428,2.431,2.431,0,0,0,92.428,310.857Zm0-3.238a.809.809,0,1,1-.809.81A.81.81,0,0,1,92.428,307.619Z" transform="translate(-80.286 -272.973)"/>
      <path id="Trazado_1177358" data-name="Trazado 1177358" d="M212.428,310.857A2.428,2.428,0,1,0,210,308.428,2.431,2.431,0,0,0,212.428,310.857Zm0-3.238a.809.809,0,1,1-.809.81A.81.81,0,0,1,212.428,307.619Z" transform="translate(-187.334 -272.973)"/>
    </g>
  </g>
</svg>
