<svg xmlns="http://www.w3.org/2000/svg" xmlns:xlink="http://www.w3.org/1999/xlink" width="113" height="113" viewBox="0 0 113 113">
  <defs>
    <filter id="Trazado_982547" x="0" y="0" width="113" height="113" filterUnits="userSpaceOnUse">
      <feOffset dy="3" input="SourceAlpha"/>
      <feGaussianBlur stdDeviation="3" result="blur"/>
      <feFlood flood-opacity="0.161"/>
      <feComposite operator="in" in2="blur"/>
      <feComposite in="SourceGraphic"/>
    </filter>
  </defs>
  <g id="Grupo_1228308" data-name="Grupo 1228308" transform="translate(-900.425 -877.778)">
    <g id="Grupo_1228082" data-name="Grupo 1228082" transform="translate(0 -4755.689)">
      <g id="Grupo_1227504" data-name="Grupo 1227504" transform="translate(0 2048.198)">
        <g id="Grupo_1225352" data-name="Grupo 1225352" transform="translate(-0.575 -393.641)">
          <g id="Grupo_1208123" data-name="Grupo 1208123" transform="translate(0 -1922.377)">
            <g id="Grupo_1202434" data-name="Grupo 1202434" transform="translate(-0.56 1255.773)">
              <g id="Grupo_1202053" data-name="Grupo 1202053" transform="translate(0 3240.511)">
                <g id="Grupo_1177898" data-name="Grupo 1177898" transform="translate(910.561 1411.003)">
                  <g id="Grupo_1172010" data-name="Grupo 1172010" transform="translate(0)">
                    <g id="Grupo_1171046" data-name="Grupo 1171046">
                      <g id="Grupo_1148525" data-name="Grupo 1148525">
                        <g transform="matrix(1, 0, 0, 1, -9, -6)" filter="url(#Trazado_982547)">
                          <g id="Trazado_982547-2" data-name="Trazado 982547" transform="translate(9 6)" fill="#d9faea">
                            <path d="M 47.5 93.5 C 41.28937149047852 93.5 35.26533508300781 92.28397369384766 29.59518623352051 89.88570404052734 C 24.11771965026855 87.56893157958984 19.19813346862793 84.25196075439453 14.97309303283691 80.02691650390625 C 10.74804019927979 75.80186462402344 7.431066513061523 70.88229370117188 5.114293098449707 65.40481567382812 C 2.716026782989502 59.73468017578125 1.5 53.71062850952148 1.5 47.5 C 1.5 41.28937149047852 2.716026782989502 35.26533508300781 5.114293098449707 29.59518623352051 C 7.431066513061523 24.11771965026855 10.74804019927979 19.19813346862793 14.97309303283691 14.97309303283691 C 19.19813346862793 10.74804019927979 24.11771965026855 7.431066513061523 29.59518623352051 5.114293098449707 C 35.26533508300781 2.716026782989502 41.28937149047852 1.5 47.5 1.5 C 53.71062850952148 1.5 59.73468017578125 2.716026782989502 65.40481567382812 5.114293098449707 C 70.88229370117188 7.431066513061523 75.80186462402344 10.74804019927979 80.02691650390625 14.97309303283691 C 84.25196075439453 19.19813346862793 87.56893157958984 24.11771965026855 89.88570404052734 29.59518623352051 C 92.28397369384766 35.26533508300781 93.5 41.28937149047852 93.5 47.5 C 93.5 53.71062850952148 92.28397369384766 59.73468017578125 89.88570404052734 65.40481567382812 C 87.56893157958984 70.88229370117188 84.25196075439453 75.80186462402344 80.02691650390625 80.02691650390625 C 75.80186462402344 84.25196075439453 70.88229370117188 87.56893157958984 65.40481567382812 89.88570404052734 C 59.73468017578125 92.28397369384766 53.71062850952148 93.5 47.5 93.5 Z" stroke="none"/>
                            <path d="M 47.5 3 C 41.49121475219727 3 35.66376876831055 4.176155090332031 30.17950439453125 6.495796203613281 C 24.88084411621094 8.736953735351562 20.12152099609375 11.94598388671875 16.03375244140625 16.03375244140625 C 11.94598388671875 20.12152099609375 8.736953735351562 24.88084411621094 6.495796203613281 30.17950439453125 C 4.176155090332031 35.66376876831055 3 41.49121475219727 3 47.5 C 3 53.50878524780273 4.176155090332031 59.33623123168945 6.495796203613281 64.82049560546875 C 8.736953735351562 70.11915588378906 11.94598388671875 74.87847900390625 16.03375244140625 78.96624755859375 C 20.12152099609375 83.05401611328125 24.88084411621094 86.26304626464844 30.17950439453125 88.50419616699219 C 35.66376876831055 90.82384490966797 41.49121475219727 92 47.5 92 C 53.50878524780273 92 59.33623123168945 90.82384490966797 64.82049560546875 88.50419616699219 C 70.11915588378906 86.26304626464844 74.87847900390625 83.05401611328125 78.96624755859375 78.96624755859375 C 83.05401611328125 74.87847900390625 86.26304626464844 70.11915588378906 88.50419616699219 64.82049560546875 C 90.82384490966797 59.33623123168945 92 53.50878524780273 92 47.5 C 92 41.49121475219727 90.82384490966797 35.66376876831055 88.50419616699219 30.17950439453125 C 86.26304626464844 24.88084411621094 83.05401611328125 20.12152099609375 78.96624755859375 16.03375244140625 C 74.87847900390625 11.94598388671875 70.11915588378906 8.736953735351562 64.82049560546875 6.495796203613281 C 59.33623123168945 4.176155090332031 53.50878524780273 3 47.5 3 M 47.5 0 C 73.7335205078125 0 95 21.2664794921875 95 47.5 C 95 73.7335205078125 73.7335205078125 95 47.5 95 C 21.2664794921875 95 0 73.7335205078125 0 47.5 C 0 21.2664794921875 21.2664794921875 0 47.5 0 Z" stroke="none" fill="#277e53"/>
                          </g>
                        </g>
                      </g>
                    </g>
                  </g>
                </g>
              </g>
            </g>
          </g>
        </g>
      </g>
    </g>
    <g id="tour-virtual_1_" data-name="tour-virtual (1)" transform="translate(926.862 890.722)">
      <g id="Grupo_1228306" data-name="Grupo 1228306" transform="translate(0.881 12.77)">
        <path id="Trazado_1177092" data-name="Trazado 1177092" d="M65.865,23.969c0,2.095-6.018,4.589-6.018,4.589L56.94,52.732a142.1,142.1,0,0,0-20.257-1.284,142.5,142.5,0,0,0-20.14,1.266L13.953,30.8S8.987,26.614,7.719,24.67a1.234,1.234,0,0,1-.219-.7c0-2.53,13.066-4.58,29.183-4.58s29.183,2.05,29.183,4.58Z" transform="translate(-7.5 -19.389)" fill="#a2aee6"/>
        <path id="Trazado_1177093" data-name="Trazado 1177093" d="M437.425,58.389v32.06c0,1.262-3.254,2.406-8.519,3.234a.352.352,0,0,1-.406-.348V61.988a.353.353,0,0,1,.3-.348C434.127,60.81,437.425,59.66,437.425,58.389Z" transform="translate(-379.06 -53.809)" fill="#bec6ed"/>
        <path id="Trazado_1177094" data-name="Trazado 1177094" d="M16.542,62.006V93.352a.352.352,0,0,1-.406.348C10.8,92.871,7.5,91.72,7.5,90.449V58.389c0,1.28,3.347,2.438,8.743,3.268A.353.353,0,0,1,16.542,62.006Z" transform="translate(-7.5 -53.809)" fill="#bec6ed"/>
        <g id="Grupo_1228305" data-name="Grupo 1228305" transform="translate(8.451 7.366)">
          <path id="Trazado_1177095" data-name="Trazado 1177095" d="M148.733,223.072l-29.264-.008c-.016,0-.307.27-.323.269A1.193,1.193,0,0,1,118,222.156v-3.889a1.179,1.179,0,0,1,1.13-1.178c.016,0,1.035.473,1.051.473l28.589-.112c.016,0,.5-.362.512-.361a1.179,1.179,0,0,1,1.13,1.178v3.889a1.179,1.179,0,0,1-1.13,1.178C149.266,223.334,148.749,223.072,148.733,223.072Z" transform="translate(-113.474 -201.238)" fill="#f5f8f9"/>
          <path id="Trazado_1177096" data-name="Trazado 1177096" d="M342.9,217.08v6.244H337.38v-6.246H342.9Z" transform="translate(-307.091 -201.229)" fill="#e8edf2"/>
          <path id="Trazado_1177097" data-name="Trazado 1177097" d="M127.669,217.079h5.47v6.246h-5.5c-.016,0,.016,0,0,0l-.016-6.245Z" transform="translate(-121.965 -201.229)" fill="#e8edf2"/>
          <path id="Trazado_1177098" data-name="Trazado 1177098" d="M135.668,390.3a6.79,6.79,0,0,0-4.719-5.334l-5.665-1.376-1.145-.77-2.193-.691H112.5l-8.036,3.58c-2.461.74-5.293,2.07-5.733,4.6l12.646,3.794,2.121,1h7.4l2.483-.669Z" transform="translate(-96.47 -346.896)" fill="#f5f8f9"/>
          <path id="Trazado_1177099" data-name="Trazado 1177099" d="M113.627,383.876l.217-1.747H112.5l-9.035,2.843a6.789,6.789,0,0,0-4.734,5.339l2.229.882h0l9.887,3.911H113.5l-.572-1.091a26.4,26.4,0,0,1-2.35-8.41.469.469,0,0,1,.325-.507l2.32-.73A.59.59,0,0,0,113.627,383.876Z" transform="translate(-96.467 -346.896)" fill="#e8edf2"/>
          <path id="Trazado_1177100" data-name="Trazado 1177100" d="M220.036,335.469l-.1,2.938.631,1.162.23,1.777a3.822,3.822,0,0,1-.8,2.841,7.06,7.06,0,0,1-9.992,0,3.69,3.69,0,0,1-.46-.733l.381-3.229.035-4.977Z" transform="translate(-194.27 -305.522)" fill="#fed2a4"/>
          <path id="Trazado_1177101" data-name="Trazado 1177101" d="M217.807,339.569l-.532-4.1-10.074-.22-.756,6.1a3.849,3.849,0,0,0,.342,2.108l1.475-.464a.59.59,0,0,0,.406-.489l.14-1.131a.586.586,0,0,1,.749-.49,9.364,9.364,0,0,0,2.683.4A10.653,10.653,0,0,0,217.807,339.569Z" transform="translate(-191.509 -305.522)" fill="#ffbd86"/>
          <path id="Trazado_1177102" data-name="Trazado 1177102" d="M157.044,123.375c0-8.45,4.3-14.01,11.621-14.01s11.621,5.559,11.621,14.01c0,4.921-.1,6.98-2.1,9.762-2.771,3.837-6.222,6.443-9.516,6.443s-6.746-2.606-9.516-6.443C157.14,130.355,157.044,128.3,157.044,123.375Z" transform="translate(-147.933 -106.164)" fill="#fed2a4"/>
          <path id="Trazado_1177103" data-name="Trazado 1177103" d="M83.352,402.662a.352.352,0,0,1-.347-.414l.849-3.951a8.2,8.2,0,0,1,5.747-6.483l2.519-.6a1.163,1.163,0,0,1,1.5,1.029,4.78,4.78,0,0,0,.749,1.66,28.465,28.465,0,0,0,2.6,9.174H86.378Z" transform="translate(-82.584 -354.871)" fill="#bbf49b"/>
          <path id="Trazado_1177104" data-name="Trazado 1177104" d="M91.242,388.606,87.135,389.9a4.416,4.416,0,0,0-3.091,3.463l-.788,4.419H79.814a.353.353,0,0,1-.346-.415l.824-4.627a8.2,8.2,0,0,1,5.747-6.484l3.468-1.043a1.163,1.163,0,0,1,1.5,1.029C91.049,386.877,91.123,387.687,91.242,388.606Z" transform="translate(-79.462 -349.574)" fill="#9be69d"/>
          <path id="Trazado_1177105" data-name="Trazado 1177105" d="M302.285,395.5l-12.113,4.8H287.52l.572-1.091c1.894-3.612,2.431-8.628,2.574-10.616a3.421,3.421,0,0,1,.09-.575l6.81,2.146A6.786,6.786,0,0,1,302.285,395.5Z" transform="translate(-263.087 -352.095)" fill="#e8edf2"/>
          <path id="Trazado_1177106" data-name="Trazado 1177106" d="M324.127,397.78a.352.352,0,0,0,.347-.414l-.824-4.628a8.2,8.2,0,0,0-5.747-6.483l-3.469-1.043a1.163,1.163,0,0,0-1.5,1.029c-.178,2.479-.786,7.628-2.837,11.539h14.026Z" transform="translate(-283.016 -349.574)" fill="#bbf49b"/>
          <path id="Trazado_1177107" data-name="Trazado 1177107" d="M168.331,97.047a12.8,12.8,0,0,1-1.68,2.717c-.02-.151-.157-.215-2.872-1.271-1.31-.509,1.695-2.072-.587-2.349-.318-.039-1.644.235-5.872-.939-3.523-.7-5.311-2.775-7-4.637a.586.586,0,0,0-.986.2,7.309,7.309,0,0,1-3.028,4.145c-1.833,1.078-2.9,4.852-2.9,4.852-1.055-2.418-1.814-4.208-1.814-6.655,0-3.306,1.612-6.694,4.328-7.556a10.409,10.409,0,0,1,2.585-.189,4.98,4.98,0,0,1,.524.2.236.236,0,0,0,.268-.049,11.449,11.449,0,0,1,11.953-2.76,11.256,11.256,0,0,1,7.078,14.289Z" transform="translate(-134.299 -82.111)" fill="#827e7c"/>
          <path id="Trazado_1177108" data-name="Trazado 1177108" d="M140.181,115.758a11.984,11.984,0,0,0,.691,4.114,15.211,15.211,0,0,0-1.093,2.69,10.038,10.038,0,0,1-2.3-6.8c0-4.32,3.457-8.874,7.4-7.6C142.183,109.047,140.181,112.47,140.181,115.758Z" transform="translate(-130.667 -104.91)" fill="#726d6a"/>
          <path id="Trazado_1177109" data-name="Trazado 1177109" d="M175.753,194.849v7.307a2.357,2.357,0,0,1-2.357,2.357h-5.46a2.6,2.6,0,0,1-2.327-1.445l-.025-.051a2.4,2.4,0,0,0-2.713-1.266,2.456,2.456,0,0,0-1.607,1.317,2.6,2.6,0,0,1-2.327,1.445h-5.46a2.357,2.357,0,0,1-2.357-2.357v-7.307a2.357,2.357,0,0,1,2.357-2.357H173.4A2.357,2.357,0,0,1,175.753,194.849Z" transform="translate(-142.705 -179.529)" fill="#f5f8f9"/>
        </g>
      </g>
      <g id="Grupo_1228307" data-name="Grupo 1228307" transform="translate(0 11.889)">
        <path id="Trazado_1177110" data-name="Trazado 1177110" d="M57.645,14.891a28.545,28.545,0,0,0-5.5-1.431.881.881,0,0,0-.31,1.734c5.437.971,6.375,1.957,6.513,2.155-.151.217-1.263,1.382-8.159,2.426a.881.881,0,0,0-.749.871V45.1c-2.012-.278-4.231-.509-6.628-.691a3.213,3.213,0,0,0,.43-1.292h1.849a2.062,2.062,0,0,0,2.059-2.059V37.164A2.062,2.062,0,0,0,45.091,35.1h-.809a11.962,11.962,0,0,0-.943-9.5.881.881,0,1,0-1.539.856,10.217,10.217,0,0,1,1.016,7.354,3.239,3.239,0,0,0-2.792-1.6H31.885C29.152,31.489,27.528,29.7,26.007,28a1.466,1.466,0,0,0-2.464.483,6.5,6.5,0,0,1-2.713,3.733H20.1a3.239,3.239,0,0,0-2.757,1.543,11.7,11.7,0,0,1-.322-2.776,7.816,7.816,0,0,1,3.2-6.338,3.513,3.513,0,0,1,3.6-.193.88.88,0,0,0,1.028-.185,10.671,10.671,0,0,1,14.525-.735.881.881,0,0,0,1.135-1.347,12.442,12.442,0,0,0-16.5.434,5.291,5.291,0,0,0-4.72.531,9.546,9.546,0,0,0-4.029,7.833A12.986,12.986,0,0,0,15.9,35.1h-.868a2.062,2.062,0,0,0-2.059,2.059v3.889a2.062,2.062,0,0,0,2.059,2.059h1.849a3.214,3.214,0,0,0,.43,1.292c-2.351.178-4.531.4-6.511.675V20.664a.881.881,0,0,0-.75-.871c-7-1.048-8.124-2.224-8.276-2.443.152-.22,1.285-1.406,8.364-2.456A142.531,142.531,0,0,1,30.063,13.65a151.294,151.294,0,0,1,17.73.948.881.881,0,0,0,.212-1.749,153.075,153.075,0,0,0-17.942-.961A141.115,141.115,0,0,0,9.292,13.241a35,35,0,0,0-6.424,1.5C1.637,15.2,0,15.965,0,17.35V36.365a.881.881,0,1,0,1.762,0V19.47a25.743,25.743,0,0,0,7.281,1.948V51.694c-6.428-1.059-7.216-2.192-7.281-2.31V40.709a.881.881,0,0,0-1.762,0v8.7c0,1.167,1.015,2.871,9.793,4.185a.881.881,0,0,0,1.011-.871V46.858c2.394-.335,5.1-.6,8.053-.8a21.206,21.206,0,0,0,5,5.86l-.376,3.22-2.06.62a2.036,2.036,0,0,0-2.292-.83l-3.469,1.043a9.074,9.074,0,0,0-6.36,7.172l-.9,5.042a.881.881,0,0,0,1.734.309l.9-5.046a7.324,7.324,0,0,1,5.133-5.79l3.469-1.043a.281.281,0,0,1,.243.038.276.276,0,0,1,.121.211c.2,2.721.837,7.884,2.935,11.885a.881.881,0,1,0,1.56-.818,29.6,29.6,0,0,1-2.678-10.452L23.4,57a4.671,4.671,0,0,0,.985,2.352,6.771,6.771,0,0,0,5.285,2.391H29.7a.881.881,0,0,0,.032-1.761,5.082,5.082,0,0,1-3.978-1.736,2.957,2.957,0,0,1-.612-2.191l.352-3.01a9.1,9.1,0,0,0,4.569,1.38,9.1,9.1,0,0,0,4.57-1.381l.351,3.011a2.958,2.958,0,0,1-.612,2.19,4.226,4.226,0,0,1-1.112.968.881.881,0,1,0,.911,1.508,5.985,5.985,0,0,0,1.573-1.371,4.67,4.67,0,0,0,.988-2.378l1.585.481a29.628,29.628,0,0,1-2.68,10.474.881.881,0,1,0,1.56.818c2.1-4,2.74-9.164,2.935-11.885a.276.276,0,0,1,.121-.211.279.279,0,0,1,.243-.038l3.468,1.043A7.326,7.326,0,0,1,49.1,63.455L50,68.5a.881.881,0,0,0,1.734-.309l-.9-5.038a9.076,9.076,0,0,0-6.361-7.176L41,54.931a2.038,2.038,0,0,0-2.28.811l-2.076-.63-.372-3.192a20.987,20.987,0,0,0,4.993-5.858c3.006.2,5.748.47,8.171.813v5.831a.881.881,0,0,0,.306.668.919.919,0,0,0,.706.2c8.672-1.312,9.674-3.007,9.674-4.167V17.35c0-1.445-1.868-2.208-2.482-2.458ZM45.388,37.164v3.889a.3.3,0,0,1-.3.3h-1.83V36.866h1.83A.3.3,0,0,1,45.388,37.164ZM25.026,29.543a18.594,18.594,0,0,0,2.836,2.674H23.513a9.652,9.652,0,0,0,1.513-2.674Zm-6.4,5.912A1.478,1.478,0,0,1,20.1,33.979H40.023A1.478,1.478,0,0,1,41.5,35.455v7.307a1.478,1.478,0,0,1-1.476,1.477h-5.46A1.868,1.868,0,0,1,33,43.233a3.282,3.282,0,0,0-2.932-1.823A3.28,3.28,0,0,0,27.1,43.285a1.705,1.705,0,0,1-1.538.955H20.1a1.478,1.478,0,0,1-1.476-1.477Zm-3.889,5.6V37.164a.3.3,0,0,1,.3-.3h1.83v4.485h-1.83a.3.3,0,0,1-.3-.3ZM30.063,52.67c-2.979.04-6.586-2.72-9.2-6.669H25.5a3.511,3.511,0,0,0,3.177-1.922,1.57,1.57,0,0,1,1.029-.864A1.516,1.516,0,0,1,31,43.5a1.557,1.557,0,0,1,.453.595A3.48,3.48,0,0,0,34.563,46h4.705c-2.467,3.828-6.384,6.794-9.2,6.669Zm28.3-3.286c-.065.117-.843,1.237-7.164,2.291V21.4a25.445,25.445,0,0,0,7.164-1.929Z" transform="translate(0 -11.889)"/>
        <path id="Trazado_1177111" data-name="Trazado 1177111" d="M234.264,311.229a2.786,2.786,0,0,1-3.519,0,.881.881,0,1,0-1.105,1.372,4.536,4.536,0,0,0,5.729,0,.881.881,0,1,0-1.105-1.372Z" transform="translate(-202.382 -275.904)"/>
      </g>
    </g>
  </g>
</svg>
