<svg xmlns="http://www.w3.org/2000/svg" xmlns:xlink="http://www.w3.org/1999/xlink" width="103" height="103" viewBox="0 0 103 103">
  <defs>
    <filter id="Trazado_978624" x="0" y="0" width="103" height="103" filterUnits="userSpaceOnUse">
      <feOffset dy="3" input="SourceAlpha"/>
      <feGaussianBlur stdDeviation="3" result="blur"/>
      <feFlood flood-opacity="0.161"/>
      <feComposite operator="in" in2="blur"/>
      <feComposite in="SourceGraphic"/>
    </filter>
  </defs>
  <g id="Grupo_1228301" data-name="Grupo 1228301" transform="translate(-171 -738)">
    <g id="Grupo_1222970" data-name="Grupo 1222970" transform="translate(0 -95)">
      <g id="Grupo_1222589" data-name="Grupo 1222589">
        <g id="Grupo_1203109" data-name="Grupo 1203109" transform="translate(180 839)">
          <g id="Grupo_1176881" data-name="Grupo 1176881">
            <g id="Grupo_1175148" data-name="Grupo 1175148">
              <g id="Grupo_1173798" data-name="Grupo 1173798">
                <g id="Grupo_1171925" data-name="Grupo 1171925">
                  <g id="Grupo_1164524" data-name="Grupo 1164524">
                    <g id="Grupo_1144123" data-name="Grupo 1144123">
                      <g transform="matrix(1, 0, 0, 1, -9, -6)" filter="url(#Trazado_978624)">
                        <g id="Trazado_978624-2" data-name="Trazado 978624" transform="translate(9 6)" fill="#f3f8fc">
                          <path d="M 42.5 83.5 C 36.96437835693359 83.5 31.59512901306152 82.41617584228516 26.54141235351562 80.27863311767578 C 21.65934181213379 78.21369171142578 17.27447128295898 75.25723266601562 13.50862312316895 71.49137878417969 C 9.742764472961426 67.72553253173828 6.786305904388428 63.34066009521484 4.721364498138428 58.45858764648438 C 2.583823442459106 53.40486907958984 1.5 48.03562164306641 1.5 42.5 C 1.5 36.96437835693359 2.583823442459106 31.59512901306152 4.721364498138428 26.54141235351562 C 6.786305904388428 21.65934181213379 9.742764472961426 17.27447128295898 13.50862312316895 13.50862312316895 C 17.27447128295898 9.742764472961426 21.65934181213379 6.786305904388428 26.54141235351562 4.721364498138428 C 31.59512901306152 2.583823442459106 36.96437835693359 1.5 42.5 1.5 C 48.03562164306641 1.5 53.40486907958984 2.583823442459106 58.45858764648438 4.721364498138428 C 63.34066009521484 6.786305904388428 67.72553253173828 9.742764472961426 71.49137878417969 13.50862312316895 C 75.25723266601562 17.27447128295898 78.21369171142578 21.65934181213379 80.27863311767578 26.54141235351562 C 82.41617584228516 31.59512901306152 83.5 36.96437835693359 83.5 42.5 C 83.5 48.03562164306641 82.41617584228516 53.40486907958984 80.27863311767578 58.45858764648438 C 78.21369171142578 63.34066009521484 75.25723266601562 67.72553253173828 71.49137878417969 71.49137878417969 C 67.72553253173828 75.25723266601562 63.34066009521484 78.21369171142578 58.45858764648438 80.27863311767578 C 53.40486907958984 82.41617584228516 48.03562164306641 83.5 42.5 83.5 Z" stroke="none"/>
                          <path d="M 42.5 3 C 37.16621398925781 3 31.99356079101562 4.043960571289062 27.125732421875 6.102882385253906 C 22.42246627807617 8.092185974121094 18.19785308837891 10.94070434570312 14.56928253173828 14.56928253173828 C 10.94070434570312 18.19785308837891 8.092185974121094 22.42246627807617 6.102882385253906 27.125732421875 C 4.043960571289062 31.99356079101562 3 37.16621398925781 3 42.5 C 3 47.83378601074219 4.043960571289062 53.00643920898438 6.102882385253906 57.87425231933594 C 8.092185974121094 62.57753372192383 10.94070434570312 66.80213165283203 14.56928253173828 70.43071746826172 C 18.19786834716797 74.05929565429688 22.42246627807617 76.90781402587891 27.125732421875 78.89711761474609 C 31.99356079101562 80.95603942871094 37.16621398925781 82 42.5 82 C 47.83378601074219 82 53.00642395019531 80.95603942871094 57.87425231933594 78.89711761474609 C 62.57753372192383 76.90781402587891 66.80213165283203 74.05929565429688 70.43071746826172 70.43071746826172 C 74.05929565429688 66.80213165283203 76.90781402587891 62.57753372192383 78.89711761474609 57.87425231933594 C 80.95603942871094 53.00642395019531 82 47.83378601074219 82 42.5 C 82 37.16621398925781 80.95603942871094 31.99356079101562 78.89711761474609 27.125732421875 C 76.90781402587891 22.42246627807617 74.05929565429688 18.19786834716797 70.43071746826172 14.56928253173828 C 66.80213165283203 10.94070434570312 62.57753372192383 8.092185974121094 57.87425231933594 6.102882385253906 C 53.00643920898438 4.043960571289062 47.83378601074219 3 42.5 3 M 42.5 0 C 65.97209167480469 0 85 19.02789306640625 85 42.5 C 85 65.97209167480469 65.97209167480469 85 42.5 85 C 19.02789306640625 85 0 65.97209167480469 0 42.5 C 0 19.02789306640625 19.02789306640625 0 42.5 0 Z" stroke="none" fill="#8ebee7"/>
                        </g>
                      </g>
                    </g>
                  </g>
                </g>
              </g>
            </g>
          </g>
        </g>
      </g>
    </g>
    <g id="ocurrencia_2_" data-name="ocurrencia (2)" transform="translate(149.349 750.41)">
      <g id="Grupo_1228292" data-name="Grupo 1228292" transform="translate(51.042 7.714)">
        <path id="Trazado_1176927" data-name="Trazado 1176927" d="M91.015,446.173v-1.732a7.023,7.023,0,0,0-7.023-7.023H67.108a7.023,7.023,0,0,0-7.023,7.023v1.938h30.14Z" transform="translate(-59.745 -389.632)" fill="#2abcc8"/>
        <path id="Trazado_1176928" data-name="Trazado 1176928" d="M235.418,437.417h-2.372a7.023,7.023,0,0,1,7.023,7.023v1.938h2.372V444.44A7.023,7.023,0,0,0,235.418,437.417Z" transform="translate(-209.589 -389.631)" fill="#0cacba"/>
        <path id="Trazado_1176929" data-name="Trazado 1176929" d="M152.847,351.02h-7.134v8.235l-1.436,1.618v2.187a5,5,0,0,0,10.006,0v-2.174l-1.436-1.632V351.02Z" transform="translate(-132.684 -314.781)" fill="#ffb09e"/>
        <path id="Trazado_1176930" data-name="Trazado 1176930" d="M144.277,351.02v9.853a12.236,12.236,0,0,0,10.007.013V351.02Z" transform="translate(-132.684 -314.781)" fill="#ffa78f"/>
        <path id="Trazado_1176931" data-name="Trazado 1176931" d="M298.678,422.388h-5.229v10.97h4.438l.791-.3Z" transform="translate(-261.919 -376.611)" fill="#ffcebf"/>
        <path id="Trazado_1176932" data-name="Trazado 1176932" d="M327.816,328.945a1.878,1.878,0,0,0-1.088,1.7v12.867h2.967V330.647a1.877,1.877,0,0,0-1.088-1.7Z" transform="translate(-290.751 -295.657)" fill="#ffcebf"/>
        <path id="Trazado_1176933" data-name="Trazado 1176933" d="M196.891,200.635l1.085-12.305A5,5,0,0,0,193,182.9h-9.492v17.738Z" transform="translate(-166.673 -169.128)" fill="#444"/>
        <path id="Trazado_1176934" data-name="Trazado 1176934" d="M231.4,278.461h5.869a4.086,4.086,0,0,1,4.086,4.086v.025a4.086,4.086,0,0,1-4.086,4.086H231.4Z" transform="translate(-208.165 -251.92)" fill="#ffa78f"/>
        <path id="Trazado_1176935" data-name="Trazado 1176935" d="M67.495,286.659H61.626a4.086,4.086,0,0,1-4.086-4.086v-.025a4.086,4.086,0,0,1,4.086-4.086h5.869Z" transform="translate(-57.54 -251.921)" fill="#ffa78f"/>
        <g id="Grupo_1228286" data-name="Grupo 1228286" transform="translate(4.539 16.498)">
          <path id="Trazado_1176936" data-name="Trazado 1176936" d="M114.858,219.581v-4.265a11.683,11.683,0,1,0-23.357,0v4.265a11.683,11.683,0,1,0,23.357,0Z" transform="translate(-91.501 -203.316)" fill="#ffcebf"/>
        </g>
        <path id="Trazado_1176937" data-name="Trazado 1176937" d="M155.024,352.178a3.567,3.567,0,0,0,7.134,0Z" transform="translate(-141.995 -315.785)" fill="#ffa799"/>
        <g id="Grupo_1228287" data-name="Grupo 1228287" transform="translate(22.055 35.405)">
          <path id="Trazado_1176938" data-name="Trazado 1176938" d="M225.743,346.76h-2.2a.988.988,0,0,1,0-1.977h2.2a.988.988,0,0,1,0,1.977Z" transform="translate(-222.559 -344.783)" fill="#fe8f83"/>
        </g>
        <path id="Trazado_1176939" data-name="Trazado 1176939" d="M174.737,203.094a12.033,12.033,0,0,1,11.151,12v4.265a12.023,12.023,0,0,1-11.182,12,12.042,12.042,0,0,0,13.027-12v-4.265A12.041,12.041,0,0,0,174.737,203.094Z" transform="translate(-159.047 -186.597)" fill="#ffb09e"/>
        <g id="Grupo_1228288" data-name="Grupo 1228288" transform="translate(7.002 35.405)">
          <path id="Trazado_1176940" data-name="Trazado 1176940" d="M110.917,346.76h2.2a.988.988,0,1,0,0-1.977h-2.2a.988.988,0,1,0,0,1.977Z" transform="translate(-109.929 -344.783)" fill="#fe8f83"/>
        </g>
        <path id="Trazado_1176941" data-name="Trazado 1176941" d="M293.449,422.388h6.019v10.97h-6.019Z" transform="translate(-261.919 -376.611)" fill="#ffcebf"/>
        <path id="Trazado_1176942" data-name="Trazado 1176942" d="M326.655,422.388h1.581v10.97h-1.581Z" transform="translate(-290.687 -376.611)" fill="#ffb09e"/>
        <path id="Trazado_1176943" data-name="Trazado 1176943" d="M335.66,327.627a1.867,1.867,0,0,0-.791.176,1.877,1.877,0,0,1,1.088,1.7v12.867h1.581V329.506A1.878,1.878,0,0,0,335.66,327.627Z" transform="translate(-297.804 -294.515)" fill="#ffb09e"/>
        <path id="Trazado_1176944" data-name="Trazado 1176944" d="M88.725,155.079H79.973a8.142,8.142,0,0,0-8.142,8.142v8.341H86.506a8.242,8.242,0,0,0,8.242-8.242V161.1A6.023,6.023,0,0,0,88.725,155.079Z" transform="translate(-69.921 -145.028)" fill="#5a5a5a"/>
        <path id="Trazado_1176945" data-name="Trazado 1176945" d="M177.154,155.079h-3.162a6.023,6.023,0,0,1,6.023,6.023v2.219a8.242,8.242,0,0,1-8.242,8.242h3.162a8.242,8.242,0,0,0,8.242-8.242V161.1A6.023,6.023,0,0,0,177.154,155.079Z" transform="translate(-156.506 -145.028)" fill="#444"/>
        <path id="Trazado_1176946" data-name="Trazado 1176946" d="M287.379,394.45h-8.8a1.586,1.586,0,0,0-.116.593v7.045a1.581,1.581,0,0,0,1.581,1.581H286.3a1.581,1.581,0,0,0,1.58-1.581v-7.134A.5.5,0,0,0,287.379,394.45Z" transform="translate(-248.94 -352.407)" fill="#ffcebf"/>
        <path id="Trazado_1176947" data-name="Trazado 1176947" d="M289.427,395.681v-7.045a1.581,1.581,0,0,0-1.581-1.581H280.8a1.581,1.581,0,0,0-1.465.988h8.006a.5.5,0,0,1,.5.5v7.134a1.581,1.581,0,0,1-1.581,1.581h1.581A1.587,1.587,0,0,0,289.427,395.681Z" transform="translate(-249.693 -346)" fill="#ffb09e"/>
        <g id="Grupo_1228291" data-name="Grupo 1228291" transform="translate(28.204)">
          <path id="Trazado_1176948" data-name="Trazado 1176948" d="M297.812,244.069a4.1,4.1,0,1,0,8.19-.244v-.51h-7.937v.51Z" transform="translate(-293.904 -221.471)" fill="#bfbfbf"/>
          <path id="Trazado_1176949" data-name="Trazado 1176949" d="M299.673,206.661h-7.62a1.225,1.225,0,1,0,0,2.449h7.62a1.225,1.225,0,1,0,0-2.449Z" transform="translate(-287.853 -189.716)" fill="#cecece"/>
          <path id="Trazado_1176950" data-name="Trazado 1176950" d="M299.673,224.988h-7.62a1.225,1.225,0,1,0,0,2.449h7.62a1.225,1.225,0,1,0,0-2.449Z" transform="translate(-287.853 -205.594)" fill="#cecece"/>
          <path id="Trazado_1176951" data-name="Trazado 1176951" d="M275.649,80.307a8.02,8.02,0,0,0-6.032,11.9,38.644,38.644,0,0,1,2.57,5.4h7.731a41.187,41.187,0,0,1,2.592-5.435A7.955,7.955,0,0,0,275.649,80.307Z" transform="translate(-268.569 -80.25)" fill="#fff0ad"/>
          <path id="Trazado_1176952" data-name="Trazado 1176952" d="M321.54,79.935a8.01,8.01,0,0,1,6.07,11.86,41.225,41.225,0,0,0-2.592,5.435h1.845a41.2,41.2,0,0,1,2.592-5.435A8.013,8.013,0,0,0,321.54,79.935Z" transform="translate(-314.46 -79.877)" fill="#ffe177"/>
          <path id="Trazado_1176953" data-name="Trazado 1176953" d="M345.05,206.661H343.2a1.225,1.225,0,0,1,1.225,1.225c0,.676.987,1.224.31,1.224h.31a1.225,1.225,0,0,0,0-2.449Z" transform="translate(-333.23 -189.716)" fill="#bfbfbf"/>
          <path id="Trazado_1176954" data-name="Trazado 1176954" d="M304.37,230.889c-6.873,0-6.4-.016-6.616.038,0,2.359,0,2.2.007,2.375.212.052-.264.036,6.6.036a4.231,4.231,0,0,1-3.3,3.848,4.23,4.23,0,0,0,5.149-3.973c.005-.15,0,.089,0-2.2Z" transform="translate(-293.853 -210.704)" fill="#acacac"/>
          <path id="Trazado_1176955" data-name="Trazado 1176955" d="M345.05,224.986h-.31c.676,0-.31.549-.31,1.225a1.225,1.225,0,0,1-1.225,1.225h1.845a1.225,1.225,0,0,0,0-2.449Z" transform="translate(-333.23 -205.592)" fill="#bfbfbf"/>
          <g id="Grupo_1228289" data-name="Grupo 1228289" transform="translate(2.975 16.945)">
            <path id="Trazado_1176956" data-name="Trazado 1176956" d="M299.054,207.886a1.225,1.225,0,0,0-1.224-1.225h-5.776a1.225,1.225,0,0,0,0,2.449h5.776A1.225,1.225,0,0,0,299.054,207.886Z" transform="translate(-290.829 -206.661)" fill="#cecece"/>
          </g>
          <g id="Grupo_1228290" data-name="Grupo 1228290" transform="translate(2.975 19.394)">
            <path id="Trazado_1176957" data-name="Trazado 1176957" d="M299.055,226.213a1.225,1.225,0,0,0-1.225-1.225h-5.776a1.225,1.225,0,0,0,0,2.449h5.776A1.225,1.225,0,0,0,299.055,226.213Z" transform="translate(-290.83 -224.988)" fill="#cecece"/>
          </g>
        </g>
      </g>
      <g id="Grupo_1228300" data-name="Grupo 1228300" transform="translate(50.04 6.715)">
        <path id="Trazado_1176958" data-name="Trazado 1176958" d="M155.8,344.678h-7.134a1,1,0,0,0-1,1,4.569,4.569,0,1,0,9.139,0A1,1,0,0,0,155.8,344.678Zm-3.567,3.567a2.569,2.569,0,0,1-2.361-1.562h4.721A2.569,2.569,0,0,1,152.232,348.245Z" transform="translate(-134.616 -308.288)"/>
        <path id="Trazado_1176959" data-name="Trazado 1176959" d="M219.455,299.8a1,1,0,0,0-1,1v2.224a1,1,0,0,0,2,0V300.8A1,1,0,0,0,219.455,299.8Z" transform="translate(-195.944 -269.407)"/>
        <path id="Trazado_1176960" data-name="Trazado 1176960" d="M131.252,299.8a1,1,0,0,0-1,1v2.224a1,1,0,1,0,2,0V300.8A1,1,0,0,0,131.252,299.8Z" transform="translate(-119.53 -269.407)"/>
        <g id="Grupo_1228299" data-name="Grupo 1228299" transform="translate(0)">
          <path id="Trazado_1176961" data-name="Trazado 1176961" d="M87.13,72.406a9.05,9.05,0,0,0-8.879,8.959,9.98,9.98,0,0,0,1.664,5.378A6.2,6.2,0,0,0,77.9,86.2a7.031,7.031,0,0,0-6.212-3.749h-10.6a9.172,9.172,0,0,0-4.163,1h0A9.113,9.113,0,0,0,51.95,91.6v1.88a1,1,0,0,0,2,0V91.6a7.117,7.117,0,0,1,3.889-6.359h0a7.062,7.062,0,0,1,3.249-.78h10.6a5.028,5.028,0,0,1,4.952,4.2,20.7,20.7,0,0,1-.116,4.657,7.256,7.256,0,0,1-7.055,5.623H53.955v-.781a1,1,0,0,0-2,0c0,1.878,0,1.8.007,1.9a5.08,5.08,0,0,0-1.917,3.975v.025a5.094,5.094,0,0,0,4.881,5.083,13.087,13.087,0,0,0,6.712,8.608v2.441H58.406a8.035,8.035,0,0,0-8.026,8.026v1.938a1,1,0,0,0,1,1H72.974a1,1,0,1,0,0-2H52.385v-.936a6.027,6.027,0,0,1,6.021-6.021h3.248a6,6,0,0,0,11.967,0h3.25a6.007,6.007,0,0,1,2.7.637,2.557,2.557,0,0,0,2,2.773v3.546H77.652a1,1,0,1,0,0,2H88.591a1,1,0,0,0,1-1v-4.517a2.585,2.585,0,0,0,2.186-2.55V108.4a2.881,2.881,0,1,0-5.762,0v5.062H82.15a2.587,2.587,0,0,0-2.584,2.584v4.614a8.019,8.019,0,0,0-2.7-.466H73.644V117.77a13.046,13.046,0,0,0,6.747-8.632,5.1,5.1,0,0,0,2.339-9.489l.113-1.284a5.232,5.232,0,0,0,9.767-2.74,2.221,2.221,0,0,0,.316-2.826,2.222,2.222,0,0,0-.018-2.475c1.923-4.661,3.355-5.473,3.355-8.912a9.007,9.007,0,0,0-9.133-9.006Zm.459,56.743H83.575v-3.48h4.014Zm.433-20.754a.876.876,0,1,1,1.752,0v5.127a2.735,2.735,0,0,0-.579-.065H88.022v-5.062Zm-6.45,7.645a.58.58,0,0,1,.579-.579H89.2a.58.58,0,0,1,.579.579v7.045a.58.58,0,0,1-.579.579H82.151a.58.58,0,0,1-.579-.579V116.04Zm9.551-24.68a.222.222,0,0,1-.057.437,1,1,0,1,0,0,2,.222.222,0,0,1,.1.42.258.258,0,0,1-.051.019c-.055.013-7.645,0-7.717,0a.222.222,0,0,1,.048-.438,1,1,0,0,0,0-2,.221.221,0,0,1-.093-.021c-.008-.127-.021-.254-.038-.38a.115.115,0,0,1,.034-.02c.333-.04,7.74-.024,7.774-.015ZM54.612,107.1a3.088,3.088,0,0,1-2.567-3.04v-.025a3.088,3.088,0,0,1,2.566-3.04c-.054.77-.044,5.43,0,6.073C54.611,107.074,54.611,107.085,54.612,107.1Zm17.027,11.5v3.091a4,4,0,0,1-8,0v-3.1A13.181,13.181,0,0,0,71.639,118.592Zm-3.21-1.427a11.037,11.037,0,0,1-11.707-9.256,11.629,11.629,0,0,1-.139-1.741V101.9c0-.272.011-.59.043-.961H69.472a9.281,9.281,0,0,0,7.87-4.4,11.647,11.647,0,0,1,1.239,3.573c.185,1.142.144,1.486.144,6.048A11.076,11.076,0,0,1,68.429,117.165ZM80.7,107.09c.02-.289.032-.65.032-.923V101.9c0-.292-.013-.643-.031-.9a3.1,3.1,0,0,1,0,6.093Zm-.3-8.141a12.8,12.8,0,0,0-1.055-2.911,12.372,12.372,0,0,0-1.016-1.683,9.129,9.129,0,0,0,.38-2.212,32.968,32.968,0,0,0-.071-3.739l0-.013a3.93,3.93,0,0,1,1.685,1.082,3.987,3.987,0,0,1,.932,1.757,3.379,3.379,0,0,1,.108,1.117c-.007.151.04-.4-.581,6.638l-.03,0C80.631,98.966,80.514,98.955,80.4,98.949Zm6.982.037a3.233,3.233,0,0,1-3.19-2.735c.889,0,2.336,0,6.381,0A3.233,3.233,0,0,1,87.378,98.986Zm3.764-9.638c-.056,0-1.046,0-1.1,0l.768-3.947a1,1,0,0,0-1.968-.383L88,89.344l-1.479,0-.841-4.323a1,1,0,0,0-1.968.383l.767,3.941-1.1.01c-1.925-4.651-3.133-5.118-3.118-7.976a7.035,7.035,0,0,1,6.9-6.964,7,7,0,0,1,7.1,7C94.258,84.22,93.071,84.73,91.142,89.348Z" transform="translate(-50.04 -72.405)"/>
        </g>
      </g>
    </g>
  </g>
</svg>
