<svg xmlns="http://www.w3.org/2000/svg" xmlns:xlink="http://www.w3.org/1999/xlink" width="103" height="103" viewBox="0 0 103 103">
  <defs>
    <filter id="Trazado_978624" x="0" y="0" width="103" height="103" filterUnits="userSpaceOnUse">
      <feOffset dy="3" input="SourceAlpha"/>
      <feGaussianBlur stdDeviation="3" result="blur"/>
      <feFlood flood-opacity="0.161"/>
      <feComposite operator="in" in2="blur"/>
      <feComposite in="SourceGraphic"/>
    </filter>
  </defs>
  <g id="Grupo_1228322" data-name="Grupo 1228322" transform="translate(-170.734 -3694)">
    <g id="Grupo_1228122" data-name="Grupo 1228122" transform="translate(-0.266 1407)">
      <g id="Grupo_1222635" data-name="Grupo 1222635" transform="translate(0 1454)">
        <g id="Grupo_1203109" data-name="Grupo 1203109" transform="translate(180 839)">
          <g id="Grupo_1176881" data-name="Grupo 1176881">
            <g id="Grupo_1175148" data-name="Grupo 1175148">
              <g id="Grupo_1173798" data-name="Grupo 1173798">
                <g id="Grupo_1171925" data-name="Grupo 1171925">
                  <g id="Grupo_1164524" data-name="Grupo 1164524">
                    <g id="Grupo_1144123" data-name="Grupo 1144123">
                      <g transform="matrix(1, 0, 0, 1, -9, -6)" filter="url(#Trazado_978624)">
                        <g id="Trazado_978624-2" data-name="Trazado 978624" transform="translate(9 6)" fill="#ebfcf4">
                          <path d="M 42.5 83.5 C 36.96437835693359 83.5 31.59512901306152 82.41617584228516 26.54141235351562 80.27863311767578 C 21.65934181213379 78.21369171142578 17.27447128295898 75.25723266601562 13.50862312316895 71.49137878417969 C 9.742764472961426 67.72553253173828 6.786305904388428 63.34066009521484 4.721364498138428 58.45858764648438 C 2.583823442459106 53.40486907958984 1.5 48.03562164306641 1.5 42.5 C 1.5 36.96437835693359 2.583823442459106 31.59512901306152 4.721364498138428 26.54141235351562 C 6.786305904388428 21.65934181213379 9.742764472961426 17.27447128295898 13.50862312316895 13.50862312316895 C 17.27447128295898 9.742764472961426 21.65934181213379 6.786305904388428 26.54141235351562 4.721364498138428 C 31.59512901306152 2.583823442459106 36.96437835693359 1.5 42.5 1.5 C 48.03562164306641 1.5 53.40486907958984 2.583823442459106 58.45858764648438 4.721364498138428 C 63.34066009521484 6.786305904388428 67.72553253173828 9.742764472961426 71.49137878417969 13.50862312316895 C 75.25723266601562 17.27447128295898 78.21369171142578 21.65934181213379 80.27863311767578 26.54141235351562 C 82.41617584228516 31.59512901306152 83.5 36.96437835693359 83.5 42.5 C 83.5 48.03562164306641 82.41617584228516 53.40486907958984 80.27863311767578 58.45858764648438 C 78.21369171142578 63.34066009521484 75.25723266601562 67.72553253173828 71.49137878417969 71.49137878417969 C 67.72553253173828 75.25723266601562 63.34066009521484 78.21369171142578 58.45858764648438 80.27863311767578 C 53.40486907958984 82.41617584228516 48.03562164306641 83.5 42.5 83.5 Z" stroke="none"/>
                          <path d="M 42.5 3 C 37.16621398925781 3 31.99356079101562 4.043960571289062 27.125732421875 6.102882385253906 C 22.42246627807617 8.092185974121094 18.19785308837891 10.94070434570312 14.56928253173828 14.56928253173828 C 10.94070434570312 18.19785308837891 8.092185974121094 22.42246627807617 6.102882385253906 27.125732421875 C 4.043960571289062 31.99356079101562 3 37.16621398925781 3 42.5 C 3 47.83378601074219 4.043960571289062 53.00643920898438 6.102882385253906 57.87425231933594 C 8.092185974121094 62.57753372192383 10.94070434570312 66.80213165283203 14.56928253173828 70.43071746826172 C 18.19786834716797 74.05929565429688 22.42246627807617 76.90781402587891 27.125732421875 78.89711761474609 C 31.99356079101562 80.95603942871094 37.16621398925781 82 42.5 82 C 47.83378601074219 82 53.00642395019531 80.95603942871094 57.87425231933594 78.89711761474609 C 62.57753372192383 76.90781402587891 66.80213165283203 74.05929565429688 70.43071746826172 70.43071746826172 C 74.05929565429688 66.80213165283203 76.90781402587891 62.57753372192383 78.89711761474609 57.87425231933594 C 80.95603942871094 53.00642395019531 82 47.83378601074219 82 42.5 C 82 37.16621398925781 80.95603942871094 31.99356079101562 78.89711761474609 27.125732421875 C 76.90781402587891 22.42246627807617 74.05929565429688 18.19786834716797 70.43071746826172 14.56928253173828 C 66.80213165283203 10.94070434570312 62.57753372192383 8.092185974121094 57.87425231933594 6.102882385253906 C 53.00643920898438 4.043960571289062 47.83378601074219 3 42.5 3 M 42.5 0 C 65.97209167480469 0 85 19.02789306640625 85 42.5 C 85 65.97209167480469 65.97209167480469 85 42.5 85 C 19.02789306640625 85 0 65.97209167480469 0 42.5 C 0 19.02789306640625 19.02789306640625 0 42.5 0 Z" stroke="none" fill="#277e53"/>
                        </g>
                      </g>
                    </g>
                  </g>
                </g>
              </g>
            </g>
          </g>
        </g>
      </g>
    </g>
    <g id="gamificacion" transform="translate(153.733 3704.304)">
      <path id="Trazado_1177150" data-name="Trazado 1177150" d="M103.5,269.92c-1.246-4.137-2.242-6.341-3.328-7.36-.89-.836-1.834-.871-3.722-.868-.4,0-.819,0-1.273-.009-.541-.01-2.537-.01-3.193-.01-2.123,0-2.763.615-4.166,1.962-.152.146-.309.3-.474.453v1.271a3.593,3.593,0,0,1-3.589,3.589H77.87a3.593,3.593,0,0,1-3.589-3.589v-1.271c-.168-.158-.327-.31-.481-.459-1.4-1.344-2.039-1.957-4.159-1.957-.657,0-2.655,0-3.2.01-.452.01-.868.009-1.27.009-1.887,0-2.831.032-3.722.868-1.085,1.019-2.081,3.224-3.331,7.37-3.144,10.919-1.275,17.582,1.792,19.147,2.761,1.409,6.847-.8,11.008-5.91a4.236,4.236,0,1,1,7.469-2.736,4.283,4.283,0,0,1-.023.439h4.882a4.237,4.237,0,1,1,8.451-.439,4.219,4.219,0,0,1-1,2.736c4.162,5.112,8.247,7.319,11.008,5.91,3.068-1.565,4.936-8.227,1.789-19.157Z" transform="translate(-12.309 -222.785)" fill="#628b96"/>
      <path id="Trazado_1177151" data-name="Trazado 1177151" d="M157.573,21.97a13.659,13.659,0,0,0-3.444,26.876.853.853,0,0,1,.505.367l2.939,4.612,2.939-4.612a.853.853,0,0,1,.505-.367,13.659,13.659,0,0,0-3.444-26.876Z" transform="translate(-89.072 -12.294)" fill="#6cf5c2"/>
      <path id="Trazado_1177152" data-name="Trazado 1177152" d="M83.373,48.1a2.292,2.292,0,1,0,2.29-2.294,2.294,2.294,0,0,0-2.29,2.294Zm2.29-.588a.588.588,0,1,1-.584.588A.588.588,0,0,1,85.663,47.517Zm-3.841,2.135a2.294,2.294,0,1,0,2.294,2.294A2.3,2.3,0,0,0,81.822,49.652Zm0,2.881a.587.587,0,1,1,.588-.587A.588.588,0,0,1,81.822,52.533ZM77.981,50.4a2.294,2.294,0,1,0-2.29-2.294,2.3,2.3,0,0,0,2.29,2.294Zm0-2.881a.588.588,0,1,1-.584.588A.588.588,0,0,1,77.981,47.517Zm3.841-.96a2.292,2.292,0,1,0-2.294-2.294A2.3,2.3,0,0,0,81.822,46.557Zm0-2.878a.586.586,0,1,1-.587.584A.586.586,0,0,1,81.822,43.679ZM62.673,39.613c-1.471-1.412-2.534-2.432-5.34-2.432-.661,0-2.672,0-3.232.011-.434.01-.839.009-1.232.008-4.154,0-5.948.352-8.692,9.462A34.746,34.746,0,0,0,42.664,60.34c.487,3.695,1.967,6.348,4.167,7.471a5.592,5.592,0,0,0,2.573.611c3.146,0,6.843-2.422,10.552-6.986A4.228,4.228,0,0,0,65.5,59.791H71.5a4.228,4.228,0,0,0,5.543,1.646C80.757,66,84.453,68.423,87.6,68.422a5.594,5.594,0,0,0,2.573-.611c2.2-1.123,3.68-3.776,4.167-7.471a34.764,34.764,0,0,0-1.517-13.688c-2.742-9.1-4.532-9.46-8.689-9.452-.392,0-.8,0-1.235-.008-.561-.01-2.569-.01-3.229-.01-2.81,0-3.874,1.023-5.348,2.438-.155.149-.314.3-.482.46H71.45L72.7,38.115a15.365,15.365,0,1,0-8.4,0l1.252,1.965H63.162c-.17-.16-.331-.315-.489-.466Zm-.825,20.565a2.532,2.532,0,1,1,2.529-2.532A2.535,2.535,0,0,1,61.848,60.178Zm10.778-2.532a2.531,2.531,0,1,1,2.529,2.532A2.534,2.534,0,0,1,72.626,57.646ZM79.67,38.888c.656,0,2.652,0,3.193.01.455.01.871.01,1.273.009,1.888,0,2.831.032,3.722.868,1.085,1.019,2.081,3.224,3.328,7.36,3.147,10.929,1.278,17.592-1.789,19.157-2.761,1.409-6.847-.8-11.008-5.91a4.236,4.236,0,1,0-7.469-2.736,4.279,4.279,0,0,0,.023.439H66.06a4.237,4.237,0,1,0-8.451-.439,4.219,4.219,0,0,0,1,2.736c-4.162,5.112-8.247,7.319-11.008,5.91-3.068-1.565-4.936-8.227-1.792-19.147,1.249-4.147,2.245-6.351,3.331-7.37.89-.836,1.834-.871,3.722-.868.4,0,.819,0,1.27-.009.541-.01,2.54-.01,3.2-.01,2.12,0,2.759.613,4.159,1.957.155.148.313.3.481.459v1.271a3.593,3.593,0,0,0,3.589,3.589h5.88a3.593,3.593,0,0,0,3.589-3.589V41.3c.165-.156.322-.306.474-.453,1.4-1.348,2.043-1.963,4.166-1.963ZM65.057,36.552a13.659,13.659,0,1,1,6.888,0,.853.853,0,0,0-.505.367L68.5,41.532,65.563,36.92A.854.854,0,0,0,65.057,36.552Zm2.725,7.026a.853.853,0,0,0,1.439,0l1.142-1.792h2.961v.788a1.885,1.885,0,0,1-1.883,1.883h-5.88a1.885,1.885,0,0,1-1.883-1.883v-.788H66.64Zm-10.2,2.233h-.829v-.826a2.294,2.294,0,1,0-4.587,0v.826h-.826a2.294,2.294,0,1,0,0,4.587h.826v.829a2.294,2.294,0,1,0,4.587,0V50.4h.829a2.294,2.294,0,0,0,0-4.587Zm0,2.881H55.9a.853.853,0,0,0-.853.853v1.682a.587.587,0,1,1-1.175,0V49.545a.853.853,0,0,0-.853-.853H51.339a.588.588,0,0,1,0-1.175h1.679a.853.853,0,0,0,.853-.853V44.985a.587.587,0,1,1,1.175,0v1.679a.853.853,0,0,0,.853.853h1.682a.588.588,0,0,1,0,1.175ZM68.5,30.051h.013a13.156,13.156,0,0,0,4.019-.714v.246l-.684,1.261a.853.853,0,1,0,1.5.814l.036-.067.035.065a.853.853,0,0,0,1.5-.811l-.682-1.261v-.93c.544-.252,1.095-.536,1.653-.858a.853.853,0,0,0,.427-.739V22.921l3.028-1.045a.853.853,0,0,0,0-1.613L68.78,16.612a.853.853,0,0,0-.557,0L57.655,20.263a.853.853,0,0,0,0,1.613l3.028,1.045v4.135a.853.853,0,0,0,.427.739,15.115,15.115,0,0,0,7.377,2.256H68.5Zm6.111-3.494c-.125.068-.249.134-.374.2V23.639l.374-.129ZM68.5,18.321l7.954,2.748-3.048,1.052-4.589-1.843a.853.853,0,0,0-.636,1.583l2.763,1.11-2.445.844-7.954-2.746L68.5,18.321ZM62.39,23.51l5.833,2.014a.853.853,0,0,0,.557,0l3.753-1.3v3.3a11.766,11.766,0,0,1-4.032.821,13.138,13.138,0,0,1-6.111-1.788V23.51Z" transform="translate(0 0)"/>
      <path id="Trazado_1177153" data-name="Trazado 1177153" d="M216,139.5v-3.3l-3.753,1.3a.853.853,0,0,1-.557,0l-5.833-2.014v3.047a13.14,13.14,0,0,0,6.111,1.788A11.769,11.769,0,0,0,216,139.5Z" transform="translate(-143.463 -111.978)" fill="#776d77"/>
      <path id="Trazado_1177154" data-name="Trazado 1177154" d="M201.127,97.554l-2.763-1.11A.853.853,0,0,1,199,94.861l4.589,1.843,3.048-1.052L198.682,92.9l-7.954,2.748,7.954,2.746,2.445-.844Z" transform="translate(-130.181 -74.584)" fill="#837683"/>
      <path id="Trazado_1177155" data-name="Trazado 1177155" d="M218.309,288.126h5.88a1.885,1.885,0,0,0,1.883-1.883v-.788H223.11l-1.142,1.792a.853.853,0,0,1-1.439,0l-1.142-1.792h-2.961v.788A1.885,1.885,0,0,0,218.309,288.126Z" transform="translate(-152.747 -243.669)" fill="#557d87"/>
      <path id="Trazado_1177156" data-name="Trazado 1177156" d="M329.576,333.658a.588.588,0,1,0-.584-.587A.588.588,0,0,0,329.576,333.658Z" transform="translate(-251.596 -284.966)" fill="#6cf5c2"/>
      <path id="Trazado_1177157" data-name="Trazado 1177157" d="M303.083,138.733q.186-.1.374-.2v-3.047l-.374.129Z" transform="translate(-228.844 -111.978)" fill="#776d77"/>
      <path id="Trazado_1177158" data-name="Trazado 1177158" d="M361.073,302.161a.586.586,0,1,0-.587-.587A.588.588,0,0,0,361.073,302.161Z" transform="translate(-279.251 -257.311)" fill="#8ac9fe"/>
      <path id="Trazado_1177159" data-name="Trazado 1177159" d="M183.156,394.818a2.532,2.532,0,1,0,2.529,2.532A2.535,2.535,0,0,0,183.156,394.818Z" transform="translate(-121.308 -339.705)" fill="#7ca1b1"/>
      <path id="Trazado_1177160" data-name="Trazado 1177160" d="M361.073,364.005a.587.587,0,1,0,.587.588A.588.588,0,0,0,361.073,364.005Z" transform="translate(-279.251 -312.647)" fill="#ffe177"/>
      <path id="Trazado_1177161" data-name="Trazado 1177161" d="M292.373,394.818a2.532,2.532,0,1,0,2.532,2.532A2.534,2.534,0,0,0,292.373,394.818Z" transform="translate(-217.218 -339.705)" fill="#7ca1b1"/>
      <path id="Trazado_1177162" data-name="Trazado 1177162" d="M392.62,333.658a.588.588,0,1,0-.584-.587A.588.588,0,0,0,392.62,333.658Z" transform="translate(-306.957 -284.966)" fill="#fe646f"/>
      <path id="Trazado_1177163" data-name="Trazado 1177163" d="M117.182,310.005H115.5a.853.853,0,0,1-.853-.853v-1.679a.587.587,0,1,0-1.175,0v1.679a.853.853,0,0,1-.853.853H110.94a.588.588,0,0,0,0,1.175h1.679a.853.853,0,0,1,.853.853v1.682a.587.587,0,1,0,1.175,0v-1.682a.853.853,0,0,1,.853-.853h1.682a.588.588,0,0,0,0-1.175Z" transform="translate(-59.6 -262.489)" fill="#7ca1b1"/>
    </g>
  </g>
</svg>
