<svg xmlns="http://www.w3.org/2000/svg" xmlns:xlink="http://www.w3.org/1999/xlink" width="103" height="103" viewBox="0 0 103 103">
  <defs>
    <filter id="Trazado_978624" x="0" y="0" width="103" height="103" filterUnits="userSpaceOnUse">
      <feOffset dy="3" input="SourceAlpha"/>
      <feGaussianBlur stdDeviation="3" result="blur"/>
      <feFlood flood-opacity="0.161"/>
      <feComposite operator="in" in2="blur"/>
      <feComposite in="SourceGraphic"/>
    </filter>
  </defs>
  <g id="Grupo_1228326" data-name="Grupo 1228326" transform="translate(-203 -327)">
    <g id="Grupo_1228123" data-name="Grupo 1228123" transform="translate(32 -1960)">
      <g id="Grupo_1222635" data-name="Grupo 1222635" transform="translate(0 1454)">
        <g id="Grupo_1203109" data-name="Grupo 1203109" transform="translate(180 839)">
          <g id="Grupo_1176881" data-name="Grupo 1176881">
            <g id="Grupo_1175148" data-name="Grupo 1175148">
              <g id="Grupo_1173798" data-name="Grupo 1173798">
                <g id="Grupo_1171925" data-name="Grupo 1171925">
                  <g id="Grupo_1164524" data-name="Grupo 1164524">
                    <g id="Grupo_1144123" data-name="Grupo 1144123">
                      <g transform="matrix(1, 0, 0, 1, -9, -6)" filter="url(#Trazado_978624)">
                        <g id="Trazado_978624-2" data-name="Trazado 978624" transform="translate(9 6)" fill="#f3f8fc">
                          <path d="M 42.5 83.5 C 36.96437835693359 83.5 31.59512901306152 82.41617584228516 26.54141235351562 80.27863311767578 C 21.65934181213379 78.21369171142578 17.27447128295898 75.25723266601562 13.50862312316895 71.49137878417969 C 9.742764472961426 67.72553253173828 6.786305904388428 63.34066009521484 4.721364498138428 58.45858764648438 C 2.583823442459106 53.40486907958984 1.5 48.03562164306641 1.5 42.5 C 1.5 36.96437835693359 2.583823442459106 31.59512901306152 4.721364498138428 26.54141235351562 C 6.786305904388428 21.65934181213379 9.742764472961426 17.27447128295898 13.50862312316895 13.50862312316895 C 17.27447128295898 9.742764472961426 21.65934181213379 6.786305904388428 26.54141235351562 4.721364498138428 C 31.59512901306152 2.583823442459106 36.96437835693359 1.5 42.5 1.5 C 48.03562164306641 1.5 53.40486907958984 2.583823442459106 58.45858764648438 4.721364498138428 C 63.34066009521484 6.786305904388428 67.72553253173828 9.742764472961426 71.49137878417969 13.50862312316895 C 75.25723266601562 17.27447128295898 78.21369171142578 21.65934181213379 80.27863311767578 26.54141235351562 C 82.41617584228516 31.59512901306152 83.5 36.96437835693359 83.5 42.5 C 83.5 48.03562164306641 82.41617584228516 53.40486907958984 80.27863311767578 58.45858764648438 C 78.21369171142578 63.34066009521484 75.25723266601562 67.72553253173828 71.49137878417969 71.49137878417969 C 67.72553253173828 75.25723266601562 63.34066009521484 78.21369171142578 58.45858764648438 80.27863311767578 C 53.40486907958984 82.41617584228516 48.03562164306641 83.5 42.5 83.5 Z" stroke="none"/>
                          <path d="M 42.5 3 C 37.16621398925781 3 31.99356079101562 4.043960571289062 27.125732421875 6.102882385253906 C 22.42246627807617 8.092185974121094 18.19785308837891 10.94070434570312 14.56928253173828 14.56928253173828 C 10.94070434570312 18.19785308837891 8.092185974121094 22.42246627807617 6.102882385253906 27.125732421875 C 4.043960571289062 31.99356079101562 3 37.16621398925781 3 42.5 C 3 47.83378601074219 4.043960571289062 53.00643920898438 6.102882385253906 57.87425231933594 C 8.092185974121094 62.57753372192383 10.94070434570312 66.80213165283203 14.56928253173828 70.43071746826172 C 18.19786834716797 74.05929565429688 22.42246627807617 76.90781402587891 27.125732421875 78.89711761474609 C 31.99356079101562 80.95603942871094 37.16621398925781 82 42.5 82 C 47.83378601074219 82 53.00642395019531 80.95603942871094 57.87425231933594 78.89711761474609 C 62.57753372192383 76.90781402587891 66.80213165283203 74.05929565429688 70.43071746826172 70.43071746826172 C 74.05929565429688 66.80213165283203 76.90781402587891 62.57753372192383 78.89711761474609 57.87425231933594 C 80.95603942871094 53.00642395019531 82 47.83378601074219 82 42.5 C 82 37.16621398925781 80.95603942871094 31.99356079101562 78.89711761474609 27.125732421875 C 76.90781402587891 22.42246627807617 74.05929565429688 18.19786834716797 70.43071746826172 14.56928253173828 C 66.80213165283203 10.94070434570312 62.57753372192383 8.092185974121094 57.87425231933594 6.102882385253906 C 53.00643920898438 4.043960571289062 47.83378601074219 3 42.5 3 M 42.5 0 C 65.97209167480469 0 85 19.02789306640625 85 42.5 C 85 65.97209167480469 65.97209167480469 85 42.5 85 C 19.02789306640625 85 0 65.97209167480469 0 42.5 C 0 19.02789306640625 19.02789306640625 0 42.5 0 Z" stroke="none" fill="#8ebee7"/>
                        </g>
                      </g>
                    </g>
                  </g>
                </g>
              </g>
            </g>
          </g>
        </g>
      </g>
    </g>
    <g id="asistente-de-ai_2_" data-name="asistente-de-ai (2)" transform="translate(198.215 348.995)">
      <g id="Grupo_1228324" data-name="Grupo 1228324" transform="translate(31.844 0.835)">
        <path id="Trazado_1177164" data-name="Trazado 1177164" d="M41.5,115.443h3.354V105.382H41.5a5.03,5.03,0,0,0,0,10.061Z" transform="translate(-36.474 -94.483)" fill="#4a66a0"/>
        <circle id="Elipse_12496" data-name="Elipse 12496" cx="2.515" cy="2.515" r="2.515" transform="translate(0.838)" fill="#f9475e"/>
        <path id="Trazado_1177165" data-name="Trazado 1177165" d="M401.239,115.443h-3.354V105.382h3.354a5.03,5.03,0,0,1,0,10.061Z" transform="translate(-357.641 -94.483)" fill="#687daa"/>
        <path id="Trazado_1177166" data-name="Trazado 1177166" d="M196.3,10.842v3.366H179.537V10.842A3.34,3.34,0,0,1,182.878,7.5h10.086a3.34,3.34,0,0,1,3.341,3.341Z" transform="translate(-163.607 -7.501)" fill="#f3f5fc"/>
        <path id="Trazado_1177167" data-name="Trazado 1177167" d="M185.833,9.745v1.11s-.354,1.578-.767,3.353h-5.53V10.842A3.34,3.34,0,0,1,182.877,7.5h4c-1.086.518-1.04,2.244-1.04,2.244Z" transform="translate(-163.606 -7.501)" fill="#e8ecf9"/>
        <path id="Trazado_1177168" data-name="Trazado 1177168" d="M217.176,218.321h8.385v15.091h-8.385Z" transform="translate(-197.055 -194.846)" fill="#687daa"/>
        <path id="Trazado_1177169" data-name="Trazado 1177169" d="M219.724,233.785v10.061h-2.548V230.061C218.481,231.9,219.724,233.785,219.724,233.785Z" transform="translate(-197.055 -205.278)" fill="#4a66a0"/>
        <path id="Trazado_1177170" data-name="Trazado 1177170" d="M131.92,308.488v8.443a1.671,1.671,0,0,1-1.67,1.67H119.344l-5.176-1.5-4.886,1.5H98.376a1.671,1.671,0,0,1-1.67-1.67v-8.443a13.365,13.365,0,0,1,10.967-13.147,1.656,1.656,0,0,1,1.274.3,4.5,4.5,0,0,0,1.174.592l.646.814,1.9-.308h0c.491.043,1.038.068,1.645.068,3.187,0,4.691-.673,5.366-1.166a1.656,1.656,0,0,1,1.274-.3A13.365,13.365,0,0,1,131.92,308.488Z" transform="translate(-89.999 -263.266)" fill="#f3f5fc"/>
        <path id="Trazado_1177171" data-name="Trazado 1177171" d="M107.324,308.226v9.268a1.406,1.406,0,0,0,.894,1.107H98.376a1.671,1.671,0,0,1-1.67-1.67v-8.443a13.365,13.365,0,0,1,10.967-13.147,1.656,1.656,0,0,1,1.274.3,7.347,7.347,0,0,0,3.72,1.1C112.569,296.774,107.324,298.875,107.324,308.226Z" transform="translate(-89.999 -263.266)" fill="#e8ecf9"/>
        <path id="Trazado_1177172" data-name="Trazado 1177172" d="M131.92,44.3v11.79a6.681,6.681,0,0,1-6.681,6.681h-12.57l-1.883-.49-.665.49h-6.733a6.681,6.681,0,0,1-6.681-6.681v-.867l2.385-5.043-2.385-5.015V44.3a6.681,6.681,0,0,1,6.681-6.681h2.542l1.961.913,4.336-.913h13.013A6.681,6.681,0,0,1,131.92,44.3Z" transform="translate(-89.999 -34.267)" fill="#93bce8"/>
        <path id="Trazado_1177173" data-name="Trazado 1177173" d="M112.668,62.773h-9.281a6.681,6.681,0,0,1-6.681-6.681V44.3a6.681,6.681,0,0,1,6.681-6.681h8.839a8.355,8.355,0,0,0-5.276,7.767V55.562C106.95,59.006,109.471,61.654,112.668,62.773Z" transform="translate(-89.999 -34.267)" fill="#68a2df"/>
        <path id="Trazado_1177174" data-name="Trazado 1177174" d="M198.861,90.337a7.547,7.547,0,0,1-7.545,7.545H181.254a7.559,7.559,0,0,1-2.064-.286l-1.493-.973V85.536l1.6-2.488a7.514,7.514,0,0,1,1.958-.257h10.062A7.546,7.546,0,0,1,198.861,90.337Z" transform="translate(-161.971 -74.407)" fill="#f3f5fc"/>
        <path id="Trazado_1177175" data-name="Trazado 1177175" d="M147.1,97.755a6.77,6.77,0,0,0,.267,1.894,7.548,7.548,0,0,1,.107-14.548,8.36,8.36,0,0,0-.374,2.48Z" transform="translate(-130.148 -76.46)" fill="#e8ecf9"/>
        <circle id="Elipse_12497" data-name="Elipse 12497" cx="2.515" cy="2.515" r="2.515" transform="translate(42.759)" fill="#ff6e80"/>
        <circle id="Elipse_12498" data-name="Elipse 12498" cx="1.677" cy="1.677" r="1.677" transform="translate(10.061 48.628)" fill="#f9475e"/>
        <g id="Grupo_1228323" data-name="Grupo 1228323" transform="translate(19.703 36.89)">
          <circle id="Elipse_12499" data-name="Elipse 12499" cx="1.677" cy="1.677" r="1.677" fill="#ff6e80"/>
          <circle id="Elipse_12500" data-name="Elipse 12500" cx="1.677" cy="1.677" r="1.677" transform="translate(5.869 2.515)" fill="#ff6e80"/>
          <circle id="Elipse_12501" data-name="Elipse 12501" cx="1.677" cy="1.677" r="1.677" transform="translate(15.511 10.899)" fill="#ff6e80"/>
        </g>
        <path id="Trazado_1177176" data-name="Trazado 1177176" d="M219.711,424.149H209.65v-6.72a3.341,3.341,0,0,1,3.341-3.341h3.38a3.341,3.341,0,0,1,3.341,3.341Z" transform="translate(-190.367 -368.814)" fill="#93bce8"/>
      </g>
      <g id="Grupo_1228325" data-name="Grupo 1228325" transform="translate(31.264 0)">
        <path id="Trazado_1177177" data-name="Trazado 1177177" d="M77.953,11.465V6.6a3.35,3.35,0,1,0-1.67,0V10.96A10.557,10.557,0,0,0,74.6,10.9a7.524,7.524,0,0,0-7.516-7.546H65.295A4.183,4.183,0,0,0,61.2,0H51.115a4.183,4.183,0,0,0-4.094,3.354H45.233A7.523,7.523,0,0,0,37.716,10.9a10.934,10.934,0,0,0-1.683.06V6.6a3.35,3.35,0,1,0-1.67,0v4.866a5.854,5.854,0,0,0-2.7,2.61.835.835,0,1,0,1.483.768,4.183,4.183,0,0,1,3.727-2.269h.842v8.39h-.842a4.19,4.19,0,0,1-3.982-2.871.835.835,0,1,0-1.585.527,5.858,5.858,0,0,0,5.567,4.015h.842a7.524,7.524,0,0,0,7.516,7.546h5.9v2.252a2.5,2.5,0,0,0-1.761-.341A14.179,14.179,0,0,0,37.716,46.057V54.5a2.508,2.508,0,0,0,2.505,2.505H65.688a.835.835,0,1,0,0-1.67H62.023V53.651H63.7a.835.835,0,0,0,0-1.67h-1.68V49.46h.988a.841.841,0,0,1,.591.244l.7.7a2.523,2.523,0,0,0,1.772.733h.293a2.512,2.512,0,1,0,0-1.67h-.293a.841.841,0,0,1-.591-.244l-.7-.7a2.523,2.523,0,0,0-1.772-.733H61.678a4.2,4.2,0,0,0-1.751-1.959V44.286a2.512,2.512,0,1,0-1.67,0v1.009c-.135-.013-.271-.02-.409-.02H54.592a3.959,3.959,0,0,0-.533.02V41.771a2.512,2.512,0,1,0-1.67,0v4.06a4.2,4.2,0,0,0-1.751,1.959H48.613a.835.835,0,1,0,0,1.67h1.68v2.521H49.3a.841.841,0,0,1-.591-.244l-.7-.7a2.52,2.52,0,0,0-1.773-.736H45.95a2.512,2.512,0,1,0,0,1.67h.293a.839.839,0,0,1,.591.245l.7.7a2.523,2.523,0,0,0,1.772.733h.988v1.684H40.221a.836.836,0,0,1-.835-.835V46.057A12.51,12.51,0,0,1,49.667,33.732a.825.825,0,0,1,.632.149c.828.605,2.517,1.327,5.859,1.327s5.031-.721,5.86-1.327a.824.824,0,0,1,.632-.148A12.51,12.51,0,0,1,72.929,46.057V54.5a.836.836,0,0,1-.835.835H69.586a.835.835,0,1,0,0,1.67h2.509A2.508,2.508,0,0,0,74.6,54.5V46.057A14.179,14.179,0,0,0,62.947,32.088a2.5,2.5,0,0,0-1.762.34V30.176h5.9A7.524,7.524,0,0,0,74.6,22.63h.842a5.865,5.865,0,0,0,2.512-11.165ZM75.438,3.35a1.68,1.68,0,1,1,1.68,1.68A1.682,1.682,0,0,1,75.438,3.35Zm-41.92,0A1.68,1.68,0,1,1,35.2,5.03,1.682,1.682,0,0,1,33.518,3.35ZM68.734,49.46a.842.842,0,1,1-.842.842A.843.843,0,0,1,68.734,49.46Zm-9.642-8.384a.842.842,0,1,1-.842.842A.843.843,0,0,1,59.092,41.076ZM53.223,38.56a.842.842,0,1,1-.842.842A.843.843,0,0,1,53.223,38.56ZM43.582,51.982a.842.842,0,1,1,.842-.842A.843.843,0,0,1,43.582,51.982Zm8.381-2.532a2.508,2.508,0,0,1,2.505-2.505h3.38a2.508,2.508,0,0,1,2.505,2.505v5.885H51.963ZM51.115,1.67H61.2a2.509,2.509,0,0,1,2.365,1.683H48.749A2.509,2.509,0,0,1,51.115,1.67Zm8.4,31.512a15.982,15.982,0,0,1-6.715,0V30.176h6.715ZM72.929,22.66a5.853,5.853,0,0,1-5.846,5.846H45.232a5.853,5.853,0,0,1-5.846-5.846V10.87a5.853,5.853,0,0,1,5.846-5.846H67.084a5.853,5.853,0,0,1,5.846,5.846Zm2.512-1.7H74.6v-8.39h.842a4.2,4.2,0,0,1,0,8.39Z" transform="translate(-31.264 0)"/>
        <path id="Trazado_1177178" data-name="Trazado 1177178" d="M159.615,80.264a.835.835,0,0,0-.493,1.073,6.712,6.712,0,0,1-6.293,9.044H142.767a6.711,6.711,0,0,1,0-13.421h10.062a6.723,6.723,0,0,1,4.266,1.53.835.835,0,0,0,1.062-1.289,8.4,8.4,0,0,0-5.328-1.911H142.767a8.381,8.381,0,0,0,0,16.762h10.062a8.386,8.386,0,0,0,7.859-11.3A.835.835,0,0,0,159.615,80.264Z" transform="translate(-122.904 -66.906)"/>
        <path id="Trazado_1177179" data-name="Trazado 1177179" d="M207.3,106.052a1.029,1.029,0,0,0-1.906.021l-3.19,8.266a.835.835,0,0,0,1.558.6l.588-1.524h3.978l.582,1.522a.835.835,0,1,0,1.56-.6ZM205,111.746l1.353-3.507,1.341,3.507Z" transform="translate(-183.12 -93.683)"/>
        <path id="Trazado_1177180" data-name="Trazado 1177180" d="M292.5,106.247v8.384a.835.835,0,1,0,1.67,0v-8.384a.835.835,0,1,0-1.67,0Z" transform="translate(-263.414 -93.674)"/>
      </g>
    </g>
  </g>
</svg>
