<svg xmlns="http://www.w3.org/2000/svg" xmlns:xlink="http://www.w3.org/1999/xlink" width="93.934" height="93.934" viewBox="0 0 93.934 93.934">
  <defs>
    <filter id="Trazado_982547" x="0" y="0" width="93.934" height="93.934" filterUnits="userSpaceOnUse">
      <feOffset dy="3" input="SourceAlpha"/>
      <feGaussianBlur stdDeviation="3" result="blur"/>
      <feFlood flood-opacity="0.161"/>
      <feComposite operator="in" in2="blur"/>
      <feComposite in="SourceGraphic"/>
    </filter>
  </defs>
  <g id="Grupo_1228338" data-name="Grupo 1228338" transform="translate(-191.734 -1970)">
    <g id="Grupo_1224689" data-name="Grupo 1224689" transform="translate(200.734 1976)">
      <g id="Grupo_1220441" data-name="Grupo 1220441">
        <g id="Grupo_1219553" data-name="Grupo 1219553">
          <g id="Grupo_1214711" data-name="Grupo 1214711">
            <g id="Grupo_1214432" data-name="Grupo 1214432">
              <g id="Grupo_1183196" data-name="Grupo 1183196" transform="translate(0 0)">
                <g id="Grupo_1179610" data-name="Grupo 1179610">
                  <g id="Grupo_1175227" data-name="Grupo 1175227">
                    <g id="Grupo_1167337" data-name="Grupo 1167337">
                      <g id="Grupo_1166720" data-name="Grupo 1166720">
                        <g id="Grupo_1164305" data-name="Grupo 1164305">
                          <g id="Grupo_1163948" data-name="Grupo 1163948">
                            <g id="Grupo_1158168" data-name="Grupo 1158168">
                              <g id="Grupo_1152576" data-name="Grupo 1152576">
                                <g id="Grupo_1148633" data-name="Grupo 1148633">
                                  <g id="Grupo_1148525" data-name="Grupo 1148525">
                                    <g transform="matrix(1, 0, 0, 1, -9, -6)" filter="url(#Trazado_982547)">
                                      <g id="Trazado_982547-2" data-name="Trazado 982547" transform="translate(9 6)" fill="#fef4f5">
                                        <path d="M 37.966796875 74.43359375 C 33.04315185546875 74.43359375 28.26757431030273 73.46962738037109 23.77274131774902 71.56847381591797 C 19.43047523498535 69.73184967041016 15.53040790557861 67.10224914550781 12.18087482452393 63.75271987915039 C 8.831341743469238 60.4031867980957 6.201741218566895 56.50312042236328 4.365118980407715 52.16086196899414 C 2.463963508605957 47.66601943969727 1.499996900558472 42.89044189453125 1.499996900558472 37.966796875 C 1.499996900558472 33.04315185546875 2.463963508605957 28.26757431030273 4.365118980407715 23.77274131774902 C 6.201741218566895 19.43047523498535 8.831341743469238 15.53040790557861 12.18087482452393 12.18087482452393 C 15.53040790557861 8.831341743469238 19.43047523498535 6.201741218566895 23.77274131774902 4.365118980407715 C 28.26757431030273 2.463963508605957 33.04315185546875 1.499996900558472 37.966796875 1.499996900558472 C 42.89044189453125 1.499996900558472 47.66601943969727 2.463963508605957 52.16086196899414 4.365118980407715 C 56.50312042236328 6.201741218566895 60.4031867980957 8.831341743469238 63.75271987915039 12.18087482452393 C 67.10224914550781 15.53040790557861 69.73184967041016 19.43047523498535 71.56847381591797 23.77274131774902 C 73.46962738037109 28.26757431030273 74.43359375 33.04315185546875 74.43359375 37.966796875 C 74.43359375 42.89044189453125 73.46962738037109 47.66601943969727 71.56847381591797 52.16086196899414 C 69.73184967041016 56.50313186645508 67.10224914550781 60.4031867980957 63.75271987915039 63.75271987915039 C 60.4031867980957 67.10224914550781 56.50313186645508 69.73184967041016 52.16086196899414 71.56847381591797 C 47.66601943969727 73.46962738037109 42.89044189453125 74.43359375 37.966796875 74.43359375 Z" stroke="none"/>
                                        <path d="M 37.966796875 3 C 33.2449836730957 3 28.66600799560547 3.924095153808594 24.35705947875977 5.746635437011719 C 20.19359588623047 7.507637023925781 16.45379638671875 10.02928161621094 13.24153518676758 13.24153518676758 C 10.02927398681641 16.45379638671875 7.507621765136719 20.19359588623047 5.746635437011719 24.35705947875977 C 3.924095153808594 28.66600799560547 3 33.2449836730957 3 37.966796875 C 3 42.6886100769043 3.924095153808594 47.26758575439453 5.746635437011719 51.57653427124023 C 7.507621765136719 55.73999786376953 10.02927398681641 59.47979736328125 13.24153518676758 62.69205856323242 C 16.45379638671875 65.90431976318359 20.19359588623047 68.42597198486328 24.35705947875977 70.18695831298828 C 28.66600799560547 72.00949859619141 33.2449836730957 72.93359375 37.966796875 72.93359375 C 42.6886100769043 72.93359375 47.26758575439453 72.00949859619141 51.57653427124023 70.18695831298828 C 55.73999786376953 68.42597198486328 59.47979736328125 65.90431976318359 62.69205856323242 62.69205856323242 C 65.90431976318359 59.47979736328125 68.42597198486328 55.73999786376953 70.18695831298828 51.57653427124023 C 72.00949859619141 47.26758575439453 72.93359375 42.6886100769043 72.93359375 37.966796875 C 72.93359375 33.2449836730957 72.00949859619141 28.66600799560547 70.18695831298828 24.35705947875977 C 68.42597198486328 20.19359588623047 65.90431976318359 16.45379638671875 62.69205856323242 13.24153518676758 C 59.47979736328125 10.02928161621094 55.73999786376953 7.507637023925781 51.57653427124023 5.746635437011719 C 47.26758575439453 3.924095153808594 42.6886100769043 3 37.966796875 3 M 37.966796875 0 C 58.93528366088867 0 75.93359375 16.99832153320312 75.93359375 37.966796875 C 75.93359375 58.93528366088867 58.93528366088867 75.93359375 37.966796875 75.93359375 C 16.99831008911133 75.93359375 0 58.93528366088867 0 37.966796875 C 0 16.99832153320312 16.99831008911133 0 37.966796875 0 Z" stroke="none" fill="#ff7f8f"/>
                                      </g>
                                    </g>
                                  </g>
                                </g>
                              </g>
                            </g>
                          </g>
                        </g>
                      </g>
                    </g>
                  </g>
                </g>
              </g>
            </g>
          </g>
        </g>
      </g>
    </g>
    <g id="asistente-virtual" transform="translate(212.3 1989.185)">
      <g id="Grupo_1228336" data-name="Grupo 1228336" transform="translate(0.76 0.759)">
        <path id="Trazado_1177181" data-name="Trazado 1177181" d="M138.238,57.765h-19.6a4.551,4.551,0,0,1-4.551-4.551V12.051A4.551,4.551,0,0,1,118.634,7.5h19.6a4.551,4.551,0,0,1,4.551,4.551V53.214A4.551,4.551,0,0,1,138.238,57.765Z" transform="translate(-103.304 -7.5)" fill="#f9f7f8"/>
        <g id="Grupo_1228335" data-name="Grupo 1228335" transform="translate(0 0.072)">
          <g id="Grupo_1228328" data-name="Grupo 1228328" transform="translate(10.882)">
            <g id="Grupo_1228327" data-name="Grupo 1228327">
              <path id="Trazado_1177182" data-name="Trazado 1177182" d="M139.953,8.21V51.273a3.54,3.54,0,0,1-3.54,3.54H115.1a4.552,4.552,0,0,0,4.448,3.59h19.6a4.551,4.551,0,0,0,4.551-4.551V12.689A4.551,4.551,0,0,0,139.953,8.21Z" transform="translate(-115.1 -8.21)" fill="#efedef"/>
            </g>
          </g>
          <g id="Grupo_1228329" data-name="Grupo 1228329" transform="translate(16.735 16.613)">
            <path id="Trazado_1177183" data-name="Trazado 1177183" d="M184.7,188.507h-6.683a5.057,5.057,0,0,1-5.057-5.057v-5.919a5.057,5.057,0,0,1,5.057-5.057H184.7a5.057,5.057,0,0,1,5.057,5.057v5.919A5.057,5.057,0,0,1,184.7,188.507Z" transform="translate(-172.965 -172.474)" fill="#7a6d79"/>
            <path id="Trazado_1177184" data-name="Trazado 1177184" d="M184.7,188.507h-6.683a5.057,5.057,0,0,1-5.057-5.057v-5.919a5.057,5.057,0,0,1,5.057-5.057H184.7a5.057,5.057,0,0,1,5.057,5.057v5.919A5.057,5.057,0,0,1,184.7,188.507Z" transform="translate(-172.965 -172.474)" fill="#7a6d79"/>
            <path id="Trazado_1177185" data-name="Trazado 1177185" d="M189.694,173.993V184.31a2.528,2.528,0,0,1-2.528,2.528H177.137a5.057,5.057,0,0,0,4.635,3.034h6.683a5.057,5.057,0,0,0,5.057-5.057V178.9A5.058,5.058,0,0,0,189.694,173.993Z" transform="translate(-176.715 -173.839)" fill="#685e68"/>
            <path id="Trazado_1177186" data-name="Trazado 1177186" d="M210.708,214.962v-3.226a1.517,1.517,0,0,1,1.517-1.517h6.127a1.517,1.517,0,0,1,1.517,1.517v3.226a1.517,1.517,0,0,1-1.517,1.517h-6.127A1.517,1.517,0,0,1,210.708,214.962Z" transform="translate(-206.891 -206.402)" fill="#00f2a6"/>
            <path id="Trazado_1177187" data-name="Trazado 1177187" d="M218.354,210.219h-.738v3.012a1.011,1.011,0,0,1-1.011,1.011h-5.9v.72a1.517,1.517,0,0,0,1.517,1.517h6.128a1.517,1.517,0,0,0,1.517-1.517v-3.226A1.517,1.517,0,0,0,218.354,210.219Z" transform="translate(-206.892 -206.402)" fill="#05e39c"/>
          </g>
          <g id="Grupo_1228333" data-name="Grupo 1228333" transform="translate(0 0.706)">
            <g id="Grupo_1228330" data-name="Grupo 1228330" transform="translate(0 28.54)">
              <path id="Trazado_1177188" data-name="Trazado 1177188" d="M15.895,297.387a8.022,8.022,0,0,1,6.637,11.923,1.022,1.022,0,0,0-.082.823l.822,2.462a.506.506,0,0,1-.581.656l-3.159-.645a1.007,1.007,0,0,0-.627.074,8.023,8.023,0,1,1-3.009-15.292Z" transform="translate(-7.501 -297.379)" fill="#ffe177"/>
              <path id="Trazado_1177189" data-name="Trazado 1177189" d="M41.934,312.429a1.022,1.022,0,0,1,.082-.823,8.02,8.02,0,0,0-4.991-11.673,8.023,8.023,0,0,1-7.847,13.3,8.051,8.051,0,0,0,9.21,1.746,1.008,1.008,0,0,1,.627-.074l3.159.645a.506.506,0,0,0,.581-.655Z" transform="translate(-26.986 -299.676)" fill="#ffd15b"/>
            </g>
            <g id="Grupo_1228332" data-name="Grupo 1228332" transform="translate(34.218)">
              <g id="Grupo_1228331" data-name="Grupo 1228331">
                <path id="Trazado_1177190" data-name="Trazado 1177190" d="M353.489,15.2a8.022,8.022,0,0,0-6.637,11.923,1.022,1.022,0,0,1,.082.823l-.822,2.462a.506.506,0,0,0,.581.656l3.159-.645a1.008,1.008,0,0,1,.627.074A8.023,8.023,0,1,0,353.489,15.2Z" transform="translate(-345.835 -15.192)" fill="#ffe177"/>
              </g>
              <path id="Trazado_1177191" data-name="Trazado 1177191" d="M358.629,19.26a8.023,8.023,0,0,1-9.617,11.394c.023.042.044.084.068.126a1.022,1.022,0,0,1,.082.823l-.822,2.462a.506.506,0,0,0,.581.656l3.159-.645a1.008,1.008,0,0,1,.627.074,8.024,8.024,0,1,0,5.921-14.889Z" transform="translate(-348.063 -18.849)" fill="#ffd15b"/>
            </g>
          </g>
          <g id="Grupo_1228334" data-name="Grupo 1228334" transform="translate(28.98 36.059)">
            <circle id="Elipse_12502" data-name="Elipse 12502" cx="2.276" cy="2.276" r="2.276" fill="#00f2a6"/>
          </g>
        </g>
      </g>
      <g id="Grupo_1228337" data-name="Grupo 1228337" transform="translate(0.001)">
        <path id="Trazado_1177192" data-name="Trazado 1177192" d="M40.246,159.492a.758.758,0,0,0-.759.759v6.22a3.8,3.8,0,0,1-3.793,3.793H16.09a3.8,3.8,0,0,1-3.793-3.793v-.326c.062-.027.124-.054.185-.083a.248.248,0,0,1,.155-.018l3.159.645a1.264,1.264,0,0,0,1.452-1.639l-.822-2.462a.266.266,0,0,1,.025-.212A8.8,8.8,0,0,0,12.3,150.051V134.259a.759.759,0,0,0-1.517,0v15.286a8.794,8.794,0,0,0-6.488,1,.759.759,0,1,0,.777,1.3,7.265,7.265,0,0,1,10.059,9.782,1.785,1.785,0,0,0-.14,1.433l.683,2.047-2.73-.558a1.755,1.755,0,0,0-1.1.129,7.264,7.264,0,0,1-10.317-6.268,7.219,7.219,0,0,1,1.217-4.357.759.759,0,1,0-1.26-.844,8.783,8.783,0,0,0,6.661,13.64q.315.022.63.022a8.858,8.858,0,0,0,2.012-.232,5.315,5.315,0,0,0,5.305,5.133h19.6a5.316,5.316,0,0,0,5.31-5.31v-6.22A.758.758,0,0,0,40.246,159.492Z" transform="translate(-0.001 -119.998)"/>
        <path id="Trazado_1177193" data-name="Trazado 1177193" d="M215.537,39.017a.759.759,0,1,0,0-1.517h-8.551a.759.759,0,1,0,0,1.517Z" transform="translate(-185.371 -33.707)"/>
        <path id="Trazado_1177194" data-name="Trazado 1177194" d="M165.464,153.44v5.919a5.822,5.822,0,0,0,5.815,5.815h6.683a5.822,5.822,0,0,0,5.815-5.815V153.44a5.823,5.823,0,0,0-5.057-5.764v-1.245a.759.759,0,0,0-1.517,0v1.194h-5.165v-1.194a.759.759,0,1,0-1.517,0v1.245A5.823,5.823,0,0,0,165.464,153.44Zm5.815-4.3h6.683a4.3,4.3,0,0,1,4.3,4.3v5.919a4.3,4.3,0,0,1-4.3,4.3h-6.683a4.3,4.3,0,0,1-4.3-4.3V153.44A4.3,4.3,0,0,1,171.279,149.141Z" transform="translate(-148.73 -130.939)"/>
        <path id="Trazado_1177195" data-name="Trazado 1177195" d="M234.772,234.671a.759.759,0,0,0,.759-.759v-.13a.759.759,0,1,0-1.517,0v.13A.758.758,0,0,0,234.772,234.671Z" transform="translate(-210.346 -209.457)"/>
        <path id="Trazado_1177196" data-name="Trazado 1177196" d="M263.749,234.671a.758.758,0,0,0,.759-.759v-.13a.759.759,0,1,0-1.517,0v.13A.758.758,0,0,0,263.749,234.671Z" transform="translate(-236.392 -209.457)"/>
        <path id="Trazado_1177197" data-name="Trazado 1177197" d="M118.274,370.728a.759.759,0,1,0,0-1.517h-.167a.759.759,0,0,0,0,1.517Z" transform="translate(-105.48 -331.87)"/>
        <path id="Trazado_1177198" data-name="Trazado 1177198" d="M79.434,370.728a.759.759,0,1,0,0-1.517h-.167a.759.759,0,1,0,0,1.517Z" transform="translate(-70.568 -331.87)"/>
        <path id="Trazado_1177199" data-name="Trazado 1177199" d="M40.594,370.728a.759.759,0,0,0,0-1.517h-.167a.759.759,0,0,0,0,1.517Z" transform="translate(-35.656 -331.87)"/>
        <path id="Trazado_1177200" data-name="Trazado 1177200" d="M145.007,3.344A8.813,8.813,0,0,0,138.4.787a8.706,8.706,0,0,0-3.166.752A5.279,5.279,0,0,0,131.5,0h-19.6a5.316,5.316,0,0,0-5.31,5.31v5.411a.759.759,0,0,0,1.517,0V5.31a3.8,3.8,0,0,1,3.793-3.793h19.6a3.77,3.77,0,0,1,2.339.808,8.87,8.87,0,0,0-1.205,1,8.766,8.766,0,0,0-1.5,10.515.265.265,0,0,1,.025.212l-.822,2.462a1.264,1.264,0,0,0,1.452,1.639l3.159-.645a.248.248,0,0,1,.155.019c.061.029.123.056.185.083V36.713a.759.759,0,1,0,1.517,0V18.11a8.853,8.853,0,0,0,2.008.231q.314,0,.629-.022a8.782,8.782,0,0,0,5.564-14.975Zm1.055,6.537a7.264,7.264,0,0,1-10.317,6.268,1.757,1.757,0,0,0-.743-.166,1.777,1.777,0,0,0-.356.036l-2.73.558.683-2.047a1.785,1.785,0,0,0-.14-1.433,7.265,7.265,0,1,1,13.6-3.217Z" transform="translate(-95.804)"/>
        <path id="Trazado_1177201" data-name="Trazado 1177201" d="M388.444,56.119a.758.758,0,0,0-.759.759v2.268h-2.82V56.878a.759.759,0,0,0-1.517,0v6.267a.759.759,0,0,0,1.517,0V60.662h2.82v2.483a.759.759,0,0,0,1.517,0V56.878A.758.758,0,0,0,388.444,56.119Z" transform="translate(-344.577 -50.443)"/>
        <path id="Trazado_1177202" data-name="Trazado 1177202" d="M452.749,82.089a.758.758,0,0,0-.759.759v3.641a.759.759,0,1,0,1.517,0V82.848A.759.759,0,0,0,452.749,82.089Z" transform="translate(-406.277 -73.787)"/>
        <path id="Trazado_1177203" data-name="Trazado 1177203" d="M452.749,55.96a.758.758,0,0,0-.759.759v.1a.759.759,0,1,0,1.517,0v-.1A.759.759,0,0,0,452.749,55.96Z" transform="translate(-406.277 -50.3)"/>
        <path id="Trazado_1177204" data-name="Trazado 1177204" d="M286.539,360.284a3.034,3.034,0,1,0,3.034-3.034A3.038,3.038,0,0,0,286.539,360.284Zm4.551,0a1.517,1.517,0,1,1-1.517-1.517A1.519,1.519,0,0,1,291.09,360.284Z" transform="translate(-257.559 -321.119)"/>
        <path id="Trazado_1177205" data-name="Trazado 1177205" d="M187.261,366.267h7.484a.759.759,0,1,0,0-1.517h-7.484a.759.759,0,1,0,0,1.517Z" transform="translate(-167.64 -327.86)"/>
        <path id="Trazado_1177206" data-name="Trazado 1177206" d="M187.261,396.267h7.484a.759.759,0,1,0,0-1.517h-7.484a.759.759,0,1,0,0,1.517Z" transform="translate(-167.64 -354.826)"/>
        <path id="Trazado_1177207" data-name="Trazado 1177207" d="M226.614,458.017h4.581a.759.759,0,1,0,0-1.517h-4.581a.759.759,0,0,0,0,1.517Z" transform="translate(-203.013 -410.331)"/>
        <path id="Trazado_1177208" data-name="Trazado 1177208" d="M205.485,210.5h6.127a2.278,2.278,0,0,0,2.276-2.276v-3.226a2.278,2.278,0,0,0-2.276-2.276h-6.127a2.278,2.278,0,0,0-2.276,2.276v3.226A2.278,2.278,0,0,0,205.485,210.5Zm-.759-5.5a.759.759,0,0,1,.759-.759h6.127a.759.759,0,0,1,.759.759v3.226a.759.759,0,0,1-.759.759h-6.127a.759.759,0,0,1-.759-.759Z" transform="translate(-182.657 -182.217)"/>
      </g>
    </g>
  </g>
</svg>
