<svg xmlns="http://www.w3.org/2000/svg" xmlns:xlink="http://www.w3.org/1999/xlink" width="93.934" height="93.934" viewBox="0 0 93.934 93.934">
  <defs>
    <filter id="Trazado_982547" x="0" y="0" width="93.934" height="93.934" filterUnits="userSpaceOnUse">
      <feOffset dy="3" input="SourceAlpha"/>
      <feGaussianBlur stdDeviation="3" result="blur"/>
      <feFlood flood-opacity="0.161"/>
      <feComposite operator="in" in2="blur"/>
      <feComposite in="SourceGraphic"/>
    </filter>
  </defs>
  <g id="Grupo_1228341" data-name="Grupo 1228341" transform="translate(-611.801 -1969.573)">
    <g id="Grupo_1224714" data-name="Grupo 1224714" transform="translate(620.801 1975.573)">
      <g id="Grupo_1220443" data-name="Grupo 1220443">
        <g id="Grupo_1219555" data-name="Grupo 1219555">
          <g id="Grupo_1214712" data-name="Grupo 1214712">
            <g id="Grupo_1214433" data-name="Grupo 1214433">
              <g id="Grupo_1183190" data-name="Grupo 1183190" transform="translate(0 0)">
                <g id="Grupo_1179611" data-name="Grupo 1179611">
                  <g id="Grupo_1175227" data-name="Grupo 1175227">
                    <g id="Grupo_1167337" data-name="Grupo 1167337">
                      <g id="Grupo_1166720" data-name="Grupo 1166720">
                        <g id="Grupo_1164305" data-name="Grupo 1164305">
                          <g id="Grupo_1163948" data-name="Grupo 1163948">
                            <g id="Grupo_1158168" data-name="Grupo 1158168">
                              <g id="Grupo_1152576" data-name="Grupo 1152576">
                                <g id="Grupo_1148633" data-name="Grupo 1148633">
                                  <g id="Grupo_1148525" data-name="Grupo 1148525">
                                    <g transform="matrix(1, 0, 0, 1, -9, -6)" filter="url(#Trazado_982547)">
                                      <g id="Trazado_982547-2" data-name="Trazado 982547" transform="translate(9 6)" fill="#fef4f5">
                                        <path d="M 37.966796875 74.43359375 C 33.04315185546875 74.43359375 28.26757431030273 73.46962738037109 23.77274131774902 71.56847381591797 C 19.43047523498535 69.73184967041016 15.53040790557861 67.10224914550781 12.18087482452393 63.75271987915039 C 8.831341743469238 60.4031867980957 6.201741218566895 56.50312042236328 4.365118980407715 52.16086196899414 C 2.463963508605957 47.66601943969727 1.499996900558472 42.89044189453125 1.499996900558472 37.966796875 C 1.499996900558472 33.04315185546875 2.463963508605957 28.26757431030273 4.365118980407715 23.77274131774902 C 6.201741218566895 19.43047523498535 8.831341743469238 15.53040790557861 12.18087482452393 12.18087482452393 C 15.53040790557861 8.831341743469238 19.43047523498535 6.201741218566895 23.77274131774902 4.365118980407715 C 28.26757431030273 2.463963508605957 33.04315185546875 1.499996900558472 37.966796875 1.499996900558472 C 42.89044189453125 1.499996900558472 47.66601943969727 2.463963508605957 52.16086196899414 4.365118980407715 C 56.50312042236328 6.201741218566895 60.4031867980957 8.831341743469238 63.75271987915039 12.18087482452393 C 67.10224914550781 15.53040790557861 69.73184967041016 19.43047523498535 71.56847381591797 23.77274131774902 C 73.46962738037109 28.26757431030273 74.43359375 33.04315185546875 74.43359375 37.966796875 C 74.43359375 42.89044189453125 73.46962738037109 47.66601943969727 71.56847381591797 52.16086196899414 C 69.73184967041016 56.50313186645508 67.10224914550781 60.4031867980957 63.75271987915039 63.75271987915039 C 60.4031867980957 67.10224914550781 56.50313186645508 69.73184967041016 52.16086196899414 71.56847381591797 C 47.66601943969727 73.46962738037109 42.89044189453125 74.43359375 37.966796875 74.43359375 Z" stroke="none"/>
                                        <path d="M 37.966796875 3 C 33.2449836730957 3 28.66600799560547 3.924095153808594 24.35705947875977 5.746635437011719 C 20.19359588623047 7.507637023925781 16.45379638671875 10.02928161621094 13.24153518676758 13.24153518676758 C 10.02927398681641 16.45379638671875 7.507621765136719 20.19359588623047 5.746635437011719 24.35705947875977 C 3.924095153808594 28.66600799560547 3 33.2449836730957 3 37.966796875 C 3 42.6886100769043 3.924095153808594 47.26758575439453 5.746635437011719 51.57653427124023 C 7.507621765136719 55.73999786376953 10.02927398681641 59.47979736328125 13.24153518676758 62.69205856323242 C 16.45379638671875 65.90431976318359 20.19359588623047 68.42597198486328 24.35705947875977 70.18695831298828 C 28.66600799560547 72.00949859619141 33.2449836730957 72.93359375 37.966796875 72.93359375 C 42.6886100769043 72.93359375 47.26758575439453 72.00949859619141 51.57653427124023 70.18695831298828 C 55.73999786376953 68.42597198486328 59.47979736328125 65.90431976318359 62.69205856323242 62.69205856323242 C 65.90431976318359 59.47979736328125 68.42597198486328 55.73999786376953 70.18695831298828 51.57653427124023 C 72.00949859619141 47.26758575439453 72.93359375 42.6886100769043 72.93359375 37.966796875 C 72.93359375 33.2449836730957 72.00949859619141 28.66600799560547 70.18695831298828 24.35705947875977 C 68.42597198486328 20.19359588623047 65.90431976318359 16.45379638671875 62.69205856323242 13.24153518676758 C 59.47979736328125 10.02928161621094 55.73999786376953 7.507637023925781 51.57653427124023 5.746635437011719 C 47.26758575439453 3.924095153808594 42.6886100769043 3 37.966796875 3 M 37.966796875 0 C 58.93528366088867 0 75.93359375 16.99832153320312 75.93359375 37.966796875 C 75.93359375 58.93528366088867 58.93528366088867 75.93359375 37.966796875 75.93359375 C 16.99831008911133 75.93359375 0 58.93528366088867 0 37.966796875 C 0 16.99832153320312 16.99831008911133 0 37.966796875 0 Z" stroke="none" fill="#ff7f8f"/>
                                      </g>
                                    </g>
                                  </g>
                                </g>
                              </g>
                            </g>
                          </g>
                        </g>
                      </g>
                    </g>
                  </g>
                </g>
              </g>
            </g>
          </g>
        </g>
      </g>
    </g>
    <g id="pagina-de-destino" transform="translate(633.922 1989.057)">
      <g id="Lineal_Color" transform="translate(3.308 2.308)">
        <path id="Trazado_1177209" data-name="Trazado 1177209" d="M3,6H41.776V38.313H3Z" transform="translate(-3 0.463)" fill="#65cef6"/>
        <path id="Trazado_1177210" data-name="Trazado 1177210" d="M3,2H41.776V8.463H3Z" transform="translate(-3 -2)" fill="#f15f60"/>
        <g id="Grupo_1228339" data-name="Grupo 1228339" transform="translate(20.6 22.233)">
          <path id="Trazado_1177211" data-name="Trazado 1177211" d="M36.863,15.921a16.129,16.129,0,0,0-13.7,4.572L18.59,25.066l9.145,9.145,4.572-4.572a16.162,16.162,0,0,0,4.572-13.7Z" transform="translate(-14.002 -15.761)" fill="#f2f3f3" fill-rule="evenodd"/>
          <path id="Trazado_1177212" data-name="Trazado 1177212" d="M30.013,20.46a3.233,3.233,0,1,1-4.572,0A3.237,3.237,0,0,1,30.013,20.46ZM25.44,29.6l-4.572-4.572L18.59,27.311l4.572,4.572Z" transform="translate(-14.002 -13.45)" fill="#fbc928" fill-rule="evenodd"/>
          <path id="Trazado_1177213" data-name="Trazado 1177213" d="M26.042,18.34a3.237,3.237,0,0,0-4.572,0L16.9,22.912l2.278,2.278,6.85-6.85Zm9.145,9.145a3.237,3.237,0,0,1,0,4.572l-4.572,4.572-2.278-2.278,6.85-6.85ZM21.469,29.763H16.9l-1.147,8,8-1.147V32.041Z" transform="translate(-15.75 -14.755)" fill="#f15f60" fill-rule="evenodd"/>
        </g>
        <path id="Trazado_1177214" data-name="Trazado 1177214" d="M6,9H35.082v9.694H6Z" transform="translate(-1.153 2.31)" fill="#f2f3f3"/>
        <path id="Trazado_1177215" data-name="Trazado 1177215" d="M6,18h8.078v8.078H6Z" transform="translate(-1.153 7.851)" fill="#f2f3f3"/>
        <path id="Trazado_1177216" data-name="Trazado 1177216" d="M6,17.463l8.078-4.847,4.928,2.957L27,11l8.078,4.621v1.842Z" transform="translate(-1.153 3.541)" fill="#fbc928" fill-rule="evenodd"/>
        <path id="Trazado_1177217" data-name="Trazado 1177217" d="M11.74,13.327A4.036,4.036,0,0,1,15.391,11a4.13,4.13,0,0,1,3.732,2.488l-3.651,2.084Z" transform="translate(2.381 3.541)" fill="#f15f60" fill-rule="evenodd"/>
      </g>
      <g id="Outline" transform="translate(2.5 1.5)">
        <g id="Grupo_1228340" data-name="Grupo 1228340">
          <path id="Trazado_1177218" data-name="Trazado 1177218" d="M19.49,25.368,25.1,19.762a2.45,2.45,0,0,0-2.763.469l-4.007,4.007,1.147,1.147Zm10.276-2.423a2.423,2.423,0,1,0,1.713.711A2.421,2.421,0,0,0,29.765,22.945Zm0,6.463a4.023,4.023,0,0,1-2.86-1.179,4.044,4.044,0,1,1,5.719,0A4.023,4.023,0,0,1,29.765,29.407Zm-6.85-.614L21.768,29.94l3.425,3.425,1.147-1.147Zm-1.147-3.425,8,8,4.007-4.007A15.411,15.411,0,0,0,38.183,16.95a15.411,15.411,0,0,0-12.408,4.411Zm8,10.276,1.147,1.147,4.007-4.007a2.421,2.421,0,0,0,.711-1.713,2.332,2.332,0,0,0-.242-1.05Zm-8.337-3.764,1.81,1.81v3.538L17,38.116l.889-6.236Zm-1.535-1.616a.868.868,0,0,1-.081-.339.758.758,0,0,1,.242-.565l1.713-1.713L20.62,26.5l-.565.565a.823.823,0,0,1-.565.242.758.758,0,0,1-.565-.242L16.63,24.786a.83.83,0,0,1,0-1.147L21.2,19.067a4.053,4.053,0,0,1,5.219-.42,17.006,17.006,0,0,1,12.6-3.231.823.823,0,0,1,.695.679A17.053,17.053,0,0,1,36.47,28.7a3.98,3.98,0,0,1,.776,2.375,4.048,4.048,0,0,1-1.179,2.86L31.494,38.5a.812.812,0,0,1-.565.242.784.784,0,0,1-.565-.242l-2.294-2.278a.823.823,0,0,1-.242-.565.758.758,0,0,1,.242-.565l.565-.565-1.147-1.147-1.713,1.713a.823.823,0,0,1-.565.242,1.258,1.258,0,0,1-.339-.065v2.7a.816.816,0,0,1-.695.808l-8,1.147h-.113a.758.758,0,0,1-.565-.242A.817.817,0,0,1,15.273,39l1.147-8a.816.816,0,0,1,.808-.695h2.7Z" transform="translate(5.359 6.961)" fill-rule="evenodd"/>
          <path id="Trazado_1177219" data-name="Trazado 1177219" d="M9.77,6.347H6.539a.808.808,0,0,1,0-1.616H9.77a.808.808,0,0,1,0,1.616ZM35.621,4.731a.808.808,0,1,1-.808.808A.8.8,0,0,1,35.621,4.731Zm3.231,0a.808.808,0,1,1-.808.808A.8.8,0,0,1,38.852,4.731ZM4.116,7.963h37.16V3.116H4.116Zm-.808,6.463a.808.808,0,1,1-.808.808A.8.8,0,0,1,3.308,14.425Zm17.869,6.059L18.543,18.9A3.263,3.263,0,0,1,21.1,17.657,3.2,3.2,0,0,1,23.73,19.03Zm21.714-.4a.808.808,0,1,1-1.616,0V9.578H4.116V12A.808.808,0,1,1,2.5,12V2.308A.8.8,0,0,1,3.308,1.5H42.084a.8.8,0,0,1,.808.808Zm-6.463,0V14.425H8.963V21.89l6.85-4.12a.833.833,0,0,1,.824,0l.485.291a4.9,4.9,0,0,1,3.942-2.02,4.837,4.837,0,0,1,4.055,2.181l3.635-2.068a.8.8,0,0,1,.808,0Zm0,1.858V22.5H24.538L22.76,21.437l6.4-3.651Zm-25.35.565H21.4l-5.154-3.1L11.1,22.5Zm26.965-8.886v9.694a.8.8,0,0,1-.808.808H8.155a.8.8,0,0,1-.808-.808V13.617a.8.8,0,0,1,.808-.808H37.237A.8.8,0,0,1,38.044,13.617ZM21.08,28.966H19.464a.808.808,0,0,1,0-1.616H21.08a.808.808,0,0,1,0,1.616Zm0,4.039H19.464a.808.808,0,1,1,0-1.616H21.08a.808.808,0,1,1,0,1.616ZM8.963,35.429h6.463V28.966H8.963Zm7.27,1.616H8.155a.8.8,0,0,1-.808-.808V28.158a.8.8,0,0,1,.808-.808h8.078a.8.8,0,0,1,.808.808v8.078A.8.8,0,0,1,16.233,37.044Zm4.847,0H19.464a.808.808,0,1,1,0-1.616H21.08a.808.808,0,1,1,0,1.616Zm0,4.847H3.308a.8.8,0,0,1-.808-.808V18.464a.808.808,0,1,1,1.616,0V40.276H21.08a.808.808,0,0,1,0,1.616Z" transform="translate(-2.5 -1.5)" fill-rule="evenodd"/>
        </g>
      </g>
    </g>
  </g>
</svg>
