<svg xmlns="http://www.w3.org/2000/svg" xmlns:xlink="http://www.w3.org/1999/xlink" width="93.934" height="93.934" viewBox="0 0 93.934 93.934">
  <defs>
    <filter id="Trazado_982547" x="0" y="0" width="93.934" height="93.934" filterUnits="userSpaceOnUse">
      <feOffset dy="3" input="SourceAlpha"/>
      <feGaussianBlur stdDeviation="3" result="blur"/>
      <feFlood flood-opacity="0.161"/>
      <feComposite operator="in" in2="blur"/>
      <feComposite in="SourceGraphic"/>
    </filter>
  </defs>
  <g id="Grupo_1228420" data-name="Grupo 1228420" transform="translate(-1031.801 -1969.87)">
    <g id="Grupo_1224716" data-name="Grupo 1224716" transform="translate(1040.801 1975.87)">
      <g id="Grupo_1220445" data-name="Grupo 1220445">
        <g id="Grupo_1219556" data-name="Grupo 1219556">
          <g id="Grupo_1214713" data-name="Grupo 1214713">
            <g id="Grupo_1214434" data-name="Grupo 1214434">
              <g id="Grupo_1183184" data-name="Grupo 1183184" transform="translate(0 0)">
                <g id="Grupo_1179612" data-name="Grupo 1179612">
                  <g id="Grupo_1175227" data-name="Grupo 1175227">
                    <g id="Grupo_1167337" data-name="Grupo 1167337">
                      <g id="Grupo_1166720" data-name="Grupo 1166720">
                        <g id="Grupo_1164305" data-name="Grupo 1164305">
                          <g id="Grupo_1163948" data-name="Grupo 1163948">
                            <g id="Grupo_1158168" data-name="Grupo 1158168">
                              <g id="Grupo_1152576" data-name="Grupo 1152576">
                                <g id="Grupo_1148633" data-name="Grupo 1148633">
                                  <g id="Grupo_1148525" data-name="Grupo 1148525">
                                    <g transform="matrix(1, 0, 0, 1, -9, -6)" filter="url(#Trazado_982547)">
                                      <g id="Trazado_982547-2" data-name="Trazado 982547" transform="translate(9 6)" fill="#fef4f5">
                                        <path d="M 37.966796875 74.43359375 C 33.04315185546875 74.43359375 28.26757431030273 73.46962738037109 23.77274131774902 71.56847381591797 C 19.43047523498535 69.73184967041016 15.53040790557861 67.10224914550781 12.18087482452393 63.75271987915039 C 8.831341743469238 60.4031867980957 6.201741218566895 56.50312042236328 4.365118980407715 52.16086196899414 C 2.463963508605957 47.66601943969727 1.499996900558472 42.89044189453125 1.499996900558472 37.966796875 C 1.499996900558472 33.04315185546875 2.463963508605957 28.26757431030273 4.365118980407715 23.77274131774902 C 6.201741218566895 19.43047523498535 8.831341743469238 15.53040790557861 12.18087482452393 12.18087482452393 C 15.53040790557861 8.831341743469238 19.43047523498535 6.201741218566895 23.77274131774902 4.365118980407715 C 28.26757431030273 2.463963508605957 33.04315185546875 1.499996900558472 37.966796875 1.499996900558472 C 42.89044189453125 1.499996900558472 47.66601943969727 2.463963508605957 52.16086196899414 4.365118980407715 C 56.50312042236328 6.201741218566895 60.4031867980957 8.831341743469238 63.75271987915039 12.18087482452393 C 67.10224914550781 15.53040790557861 69.73184967041016 19.43047523498535 71.56847381591797 23.77274131774902 C 73.46962738037109 28.26757431030273 74.43359375 33.04315185546875 74.43359375 37.966796875 C 74.43359375 42.89044189453125 73.46962738037109 47.66601943969727 71.56847381591797 52.16086196899414 C 69.73184967041016 56.50313186645508 67.10224914550781 60.4031867980957 63.75271987915039 63.75271987915039 C 60.4031867980957 67.10224914550781 56.50313186645508 69.73184967041016 52.16086196899414 71.56847381591797 C 47.66601943969727 73.46962738037109 42.89044189453125 74.43359375 37.966796875 74.43359375 Z" stroke="none"/>
                                        <path d="M 37.966796875 3 C 33.2449836730957 3 28.66600799560547 3.924095153808594 24.35705947875977 5.746635437011719 C 20.19359588623047 7.507637023925781 16.45379638671875 10.02928161621094 13.24153518676758 13.24153518676758 C 10.02927398681641 16.45379638671875 7.507621765136719 20.19359588623047 5.746635437011719 24.35705947875977 C 3.924095153808594 28.66600799560547 3 33.2449836730957 3 37.966796875 C 3 42.6886100769043 3.924095153808594 47.26758575439453 5.746635437011719 51.57653427124023 C 7.507621765136719 55.73999786376953 10.02927398681641 59.47979736328125 13.24153518676758 62.69205856323242 C 16.45379638671875 65.90431976318359 20.19359588623047 68.42597198486328 24.35705947875977 70.18695831298828 C 28.66600799560547 72.00949859619141 33.2449836730957 72.93359375 37.966796875 72.93359375 C 42.6886100769043 72.93359375 47.26758575439453 72.00949859619141 51.57653427124023 70.18695831298828 C 55.73999786376953 68.42597198486328 59.47979736328125 65.90431976318359 62.69205856323242 62.69205856323242 C 65.90431976318359 59.47979736328125 68.42597198486328 55.73999786376953 70.18695831298828 51.57653427124023 C 72.00949859619141 47.26758575439453 72.93359375 42.6886100769043 72.93359375 37.966796875 C 72.93359375 33.2449836730957 72.00949859619141 28.66600799560547 70.18695831298828 24.35705947875977 C 68.42597198486328 20.19359588623047 65.90431976318359 16.45379638671875 62.69205856323242 13.24153518676758 C 59.47979736328125 10.02928161621094 55.73999786376953 7.507637023925781 51.57653427124023 5.746635437011719 C 47.26758575439453 3.924095153808594 42.6886100769043 3 37.966796875 3 M 37.966796875 0 C 58.93528366088867 0 75.93359375 16.99832153320312 75.93359375 37.966796875 C 75.93359375 58.93528366088867 58.93528366088867 75.93359375 37.966796875 75.93359375 C 16.99831008911133 75.93359375 0 58.93528366088867 0 37.966796875 C 0 16.99832153320312 16.99831008911133 0 37.966796875 0 Z" stroke="none" fill="#ff7f8f"/>
                                      </g>
                                    </g>
                                  </g>
                                </g>
                              </g>
                            </g>
                          </g>
                        </g>
                      </g>
                    </g>
                  </g>
                </g>
              </g>
            </g>
          </g>
        </g>
      </g>
    </g>
    <g id="traduccion-en-linea" transform="translate(1053.953 1943.724)">
      <g id="Grupo_1228418" data-name="Grupo 1228418" transform="translate(0.727 51.068)">
        <path id="Trazado_1177321" data-name="Trazado 1177321" d="M110.521,57.841H77.247l-.894.267-.986,1.082-.354.872v28.5l.9.872L77.631,90.5H109.65l.871-.465a2.73,2.73,0,0,0,2.73-2.73V60.571A2.73,2.73,0,0,0,110.521,57.841Z" transform="translate(-68.47 -57.841)" fill="#6b7ed9"/>
        <path id="Trazado_1177322" data-name="Trazado 1177322" d="M45.955,87.3V60.57a2.73,2.73,0,0,1,2.73-2.73H45.244a2.73,2.73,0,0,0-2.73,2.73V87.3a2.73,2.73,0,0,0,2.73,2.73l.42.465h3.441l-.42-.465A2.73,2.73,0,0,1,45.955,87.3Z" transform="translate(-39.12 -57.84)" fill="#4d66d2"/>
        <path id="Trazado_1177323" data-name="Trazado 1177323" d="M150.362,120.093H120V142.84l.218.262h30.125a.383.383,0,0,0,.383-.383V120.512Z" transform="translate(-109.093 -114.059)" fill="#dbedff"/>
        <path id="Trazado_1177324" data-name="Trazado 1177324" d="M79.461,142.718V120.512l.709-.42H75.723l-.709.42v22.206a.383.383,0,0,0,.383.383h4.447A.383.383,0,0,1,79.461,142.718Z" transform="translate(-68.47 -114.058)" fill="#b5dcff"/>
        <path id="Trazado_1177325" data-name="Trazado 1177325" d="M109.627,389.964H93.651l-.392.465H80.076l-.683-.465H68.954l-.445.222-.178.468v3.312l.969,1.373,1.487.846h36.375a3.448,3.448,0,0,0,3.448-3.448v-1.791A.983.983,0,0,0,109.627,389.964Z" transform="translate(-62.434 -357.77)" fill="#dbedff"/>
        <g id="Grupo_1228417" data-name="Grupo 1228417" transform="translate(0 32.194)">
          <path id="Trazado_1177326" data-name="Trazado 1177326" d="M13.575,392.739v-1.791a.983.983,0,0,1,.983-.983H8.483a.983.983,0,0,0-.983.983v1.791a3.448,3.448,0,0,0,3.448,3.448h6.075a3.448,3.448,0,0,1-3.448-3.448Z" transform="translate(-7.5 -389.965)" fill="#b5dcff"/>
        </g>
        <path id="Trazado_1177327" data-name="Trazado 1177327" d="M244.107,389.964l-.109.19V392.7l.623.376h6.729a.94.94,0,0,0,.94-.94v-2.171h-8.183Z" transform="translate(-221.073 -357.77)" fill="#b5dcff"/>
        <path id="Trazado_1177328" data-name="Trazado 1177328" d="M188.529,392.135v-2.171h-6.075v2.171a.94.94,0,0,0,.94.94h6.075A.94.94,0,0,1,188.529,392.135Z" transform="translate(-165.495 -357.77)" fill="#8bcaff"/>
        <path id="Trazado_1177329" data-name="Trazado 1177329" d="M149.325,90.341H119.068l-.2.287v2.75l.2.266h30.64v-2.92a.383.383,0,0,0-.383-.383Z" transform="translate(-108.077 -87.191)" fill="#60b9fe"/>
        <path id="Trazado_1177330" data-name="Trazado 1177330" d="M79.461,90.341H75.4a.383.383,0,0,0-.383.383v2.92h4.447Z" transform="translate(-68.47 -87.191)" fill="#ff72c7"/>
        <path id="Trazado_1177331" data-name="Trazado 1177331" d="M270.011,217.528l-2.063-1.411-.283.192v3.554l.283.218,2.063-1.411A.692.692,0,0,0,270.011,217.528Z" transform="translate(-242.446 -200.775)" fill="#60b9fe"/>
        <path id="Trazado_1177332" data-name="Trazado 1177332" d="M248.555,206.81l-1.282-.877a.692.692,0,0,0-1.082.571v4.577a.692.692,0,0,0,1.082.571l1.282-.877Z" transform="translate(-223.054 -191.468)" fill="#1ca8ff"/>
      </g>
      <g id="Grupo_1228419" data-name="Grupo 1228419" transform="translate(0 50.341)">
        <path id="Trazado_1177333" data-name="Trazado 1177333" d="M47.919,82.535H45.593a3.437,3.437,0,0,0,.642-2V69.439a.727.727,0,0,0-1.454,0V80.532a2.005,2.005,0,0,1-2,2H6.851a2.005,2.005,0,0,1-2-2V53.8a2.005,2.005,0,0,1,2-2H42.779a2.005,2.005,0,0,1,2,2V66.047a.727.727,0,0,0,1.454,0V53.8a3.461,3.461,0,0,0-3.457-3.457H6.851A3.461,3.461,0,0,0,3.394,53.8V80.532a3.437,3.437,0,0,0,.642,2H1.71A1.712,1.712,0,0,0,0,84.245v1.791a4.179,4.179,0,0,0,4.175,4.175h41.28a4.18,4.18,0,0,0,4.175-4.175V84.245A1.712,1.712,0,0,0,47.919,82.535Zm.256,3.5a2.724,2.724,0,0,1-2.721,2.721H4.175a2.724,2.724,0,0,1-2.721-2.721V84.245a.257.257,0,0,1,.256-.256H16.959v1.444A1.669,1.669,0,0,0,18.626,87.1h4.492a.727.727,0,0,0,0-1.454H18.626a.214.214,0,0,1-.213-.213V83.989h12.8v1.444a.214.214,0,0,1-.213.213H26.511a.727.727,0,1,0,0,1.454H31a1.669,1.669,0,0,0,1.667-1.667V83.989H47.919a.257.257,0,0,1,.256.256v1.791Z" transform="translate(0 -50.341)"/>
        <path id="Trazado_1177334" data-name="Trazado 1177334" d="M112.278,189.375a.727.727,0,0,0,.727.727h1.434a7.756,7.756,0,0,0,1.721,3.248,8.183,8.183,0,0,1-3.191,1.326.727.727,0,1,0,.288,1.425,9.456,9.456,0,0,0,3.981-1.746,9.457,9.457,0,0,0,3.981,1.746.727.727,0,0,0,.288-1.425,8.183,8.183,0,0,1-3.191-1.326,7.758,7.758,0,0,0,1.721-3.248h1.434a.727.727,0,1,0,0-1.454h-3.5v-1.373a.727.727,0,0,0-1.454,0v1.373h-3.505a.727.727,0,0,0-.727.727Zm6.252.727a6.274,6.274,0,0,1-1.293,2.281,6.276,6.276,0,0,1-1.293-2.281Z" transform="translate(-101.395 -173.345)"/>
        <path id="Trazado_1177335" data-name="Trazado 1177335" d="M321.735,196.07a.727.727,0,0,0,.938-.422l.583-1.538h3.625l.583,1.538a.727.727,0,0,0,1.36-.515l-3.075-8.114a.727.727,0,0,0-1.36,0l-3.075,8.114A.727.727,0,0,0,321.735,196.07Zm3.333-6.743,1.262,3.329h-2.523Z" transform="translate(-290.124 -173.346)"/>
        <path id="Trazado_1177336" data-name="Trazado 1177336" d="M239.448,205.568a1.415,1.415,0,0,0,1.463-.084l3.345-2.288a1.419,1.419,0,0,0,0-2.342l-3.345-2.288a1.419,1.419,0,0,0-2.22,1.171v4.576a1.415,1.415,0,0,0,.757,1.255Zm.7-5.764,3.247,2.221-3.247,2.221Z" transform="translate(-215.554 -183.973)"/>
        <path id="Trazado_1177337" data-name="Trazado 1177337" d="M102.944,82.841H68.623a1.112,1.112,0,0,0-1.11,1.11v25.127a1.112,1.112,0,0,0,1.11,1.11h34.32a1.112,1.112,0,0,0,1.11-1.11V83.951A1.112,1.112,0,0,0,102.944,82.841ZM68.967,84.3H71.96v1.849H68.967ZM102.6,108.734H68.967V87.6H102.6v21.136Zm0-22.59H73.414V84.295H102.6v1.849Z" transform="translate(-60.969 -79.691)"/>
      </g>
    </g>
  </g>
</svg>
