<svg xmlns="http://www.w3.org/2000/svg" xmlns:xlink="http://www.w3.org/1999/xlink" width="93.489" height="93.489" viewBox="0 0 93.489 93.489">
  <defs>
    <filter id="Trazado_982547" x="0" y="0" width="93.489" height="93.489" filterUnits="userSpaceOnUse">
      <feOffset dy="3" input="SourceAlpha"/>
      <feGaussianBlur stdDeviation="3" result="blur"/>
      <feFlood flood-opacity="0.161"/>
      <feComposite operator="in" in2="blur"/>
      <feComposite in="SourceGraphic"/>
    </filter>
  </defs>
  <g id="Grupo_1228409" data-name="Grupo 1228409" transform="translate(-612.301 -2110.468)">
    <g id="Grupo_1224719" data-name="Grupo 1224719" transform="translate(621.301 2116.467)">
      <g id="Grupo_1220444" data-name="Grupo 1220444" transform="translate(0 0)">
        <g id="Grupo_1219554" data-name="Grupo 1219554" transform="translate(0 0)">
          <g id="Grupo_1214715" data-name="Grupo 1214715">
            <g id="Grupo_1214433" data-name="Grupo 1214433" transform="translate(0 0)">
              <g id="Grupo_1183190" data-name="Grupo 1183190" transform="translate(0 0)">
                <g id="Grupo_1179611" data-name="Grupo 1179611">
                  <g id="Grupo_1175227" data-name="Grupo 1175227" transform="translate(0 0)">
                    <g id="Grupo_1167337" data-name="Grupo 1167337" transform="translate(0 0)">
                      <g id="Grupo_1166720" data-name="Grupo 1166720">
                        <g id="Grupo_1164305" data-name="Grupo 1164305">
                          <g id="Grupo_1163948" data-name="Grupo 1163948">
                            <g id="Grupo_1158168" data-name="Grupo 1158168">
                              <g id="Grupo_1152576" data-name="Grupo 1152576">
                                <g id="Grupo_1148633" data-name="Grupo 1148633">
                                  <g id="Grupo_1148525" data-name="Grupo 1148525">
                                    <g transform="matrix(1, 0, 0, 1, -9, -6)" filter="url(#Trazado_982547)">
                                      <g id="Trazado_982547-2" data-name="Trazado 982547" transform="translate(9 6)" fill="#fef4f5">
                                        <path d="M 37.74438095092773 73.98876190185547 C 32.85075759887695 73.98876190185547 28.10431480407715 73.03067016601562 23.63689231872559 71.14111328125 C 19.32111358642578 69.31568908691406 15.44483661651611 66.70213317871094 12.11573696136475 63.37302398681641 C 8.786625862121582 60.04392623901367 6.173069953918457 56.16764831542969 4.347647666931152 51.85187149047852 C 2.458091974258423 47.38444900512695 1.500003218650818 42.63800430297852 1.500003218650818 37.74438095092773 C 1.500003218650818 32.85075759887695 2.458091974258423 28.10431480407715 4.347647666931152 23.63689231872559 C 6.173069953918457 19.32111358642578 8.786625862121582 15.44483661651611 12.11573696136475 12.11573696136475 C 15.44483661651611 8.786625862121582 19.32111358642578 6.173069953918457 23.63689231872559 4.347647666931152 C 28.10431480407715 2.458091974258423 32.85075759887695 1.500003218650818 37.74438095092773 1.500003218650818 C 42.63800430297852 1.500003218650818 47.38444900512695 2.458091974258423 51.85187149047852 4.347647666931152 C 56.16764831542969 6.173069953918457 60.04392623901367 8.786625862121582 63.37302398681641 12.11573696136475 C 66.70213317871094 15.44483661651611 69.31568908691406 19.32111358642578 71.14111328125 23.63689231872559 C 73.03067016601562 28.10431480407715 73.98876190185547 32.85075759887695 73.98876190185547 37.74438095092773 C 73.98876190185547 42.63800430297852 73.03067016601562 47.38444900512695 71.14111328125 51.85187149047852 C 69.31568908691406 56.16764831542969 66.70213317871094 60.04392623901367 63.37302398681641 63.37302398681641 C 60.04392623901367 66.70213317871094 56.16764831542969 69.31568908691406 51.85187149047852 71.14111328125 C 47.38444900512695 73.03067016601562 42.63800430297852 73.98876190185547 37.74438095092773 73.98876190185547 Z" stroke="none"/>
                                        <path d="M 37.74438095092773 2.999992370605469 C 33.05259323120117 2.999992370605469 28.50274276733398 3.918220520019531 24.22121810913086 5.729141235351562 C 20.08424377441406 7.47894287109375 16.36821746826172 9.98455810546875 13.1763916015625 13.1763916015625 C 9.98455810546875 16.36823272705078 7.47894287109375 20.08424377441406 5.729141235351562 24.22121810913086 C 3.918220520019531 28.50275421142578 2.999992370605469 33.05259323120117 2.999992370605469 37.74438095092773 C 2.999992370605469 42.4361686706543 3.918220520019531 46.98601913452148 5.729141235351562 51.26754379272461 C 7.47894287109375 55.40453338623047 9.98455810546875 59.12054443359375 13.1763916015625 62.31237030029297 C 16.36821746826172 65.50420379638672 20.08423233032227 68.00980377197266 24.22121810913086 69.75960540771484 C 28.50274276733398 71.57053375244141 33.05259323120117 72.48875427246094 37.74438095092773 72.48875427246094 C 42.4361686706543 72.48875427246094 46.98601913452148 71.57053375244141 51.26754379272461 69.75960540771484 C 55.40453338623047 68.00981903076172 59.12054443359375 65.50420379638672 62.31237030029297 62.31237030029297 C 65.50420379638672 59.12054443359375 68.00981903076172 55.40453338623047 69.75960540771484 51.26754379272461 C 71.57053375244141 46.98601913452148 72.48875427246094 42.4361686706543 72.48875427246094 37.74438095092773 C 72.48875427246094 33.05259323120117 71.57053375244141 28.50275421142578 69.75960540771484 24.22121810913086 C 68.00980377197266 20.08424377441406 65.50420379638672 16.36823272705078 62.31237030029297 13.1763916015625 C 59.12054443359375 9.98455810546875 55.40451812744141 7.47894287109375 51.26754379272461 5.729141235351562 C 46.98601913452148 3.918220520019531 42.4361686706543 2.999992370605469 37.74438095092773 2.999992370605469 M 37.74438095092773 -7.62939453125e-06 C 58.59004211425781 -7.62939453125e-06 75.48875427246094 16.89874267578125 75.48875427246094 37.74438095092773 C 75.48875427246094 58.59004211425781 58.59004211425781 75.48875427246094 37.74438095092773 75.48875427246094 C 16.89873123168945 75.48875427246094 -7.62939453125e-06 58.59004211425781 -7.62939453125e-06 37.74438095092773 C -7.62939453125e-06 16.89874267578125 16.89873123168945 -7.62939453125e-06 37.74438095092773 -7.62939453125e-06 Z" stroke="none" fill="#ff7f8f"/>
                                      </g>
                                    </g>
                                  </g>
                                </g>
                              </g>
                            </g>
                          </g>
                        </g>
                      </g>
                    </g>
                  </g>
                </g>
              </g>
            </g>
          </g>
        </g>
      </g>
    </g>
    <g id="transmision-de-juegos" transform="translate(633.27 2129.802)">
      <g id="Flat" transform="translate(5.769 5.769)">
        <path id="Trazado_1177220" data-name="Trazado 1177220" d="M42.935,6H9.078A3.077,3.077,0,0,0,6,9.078v27.7a3.077,3.077,0,0,0,3.078,3.078H42.935a3.077,3.077,0,0,0,3.078-3.078V9.078A3.077,3.077,0,0,0,42.935,6Z" transform="translate(-6 -6)" fill="#e8edf2"/>
        <path id="Trazado_1177221" data-name="Trazado 1177221" d="M46.013,9.078v3.078H6V9.078A3.077,3.077,0,0,1,9.078,6H42.935A3.077,3.077,0,0,1,46.013,9.078Z" transform="translate(-6 -6)" fill="#696e72"/>
        <path id="Trazado_1177222" data-name="Trazado 1177222" d="M48.928,6H32V39.857H48.928a3.077,3.077,0,0,0,3.078-3.078V9.078A3.077,3.077,0,0,0,48.928,6Z" transform="translate(-11.994 -6)" opacity="0.1"/>
        <path id="Trazado_1177223" data-name="Trazado 1177223" d="M42.779,19.539V32.62a1.543,1.543,0,0,1-1.539,1.539h-27.7A1.543,1.543,0,0,1,12,32.62V19.539A1.543,1.543,0,0,1,13.539,18h27.7A1.543,1.543,0,0,1,42.779,19.539Z" transform="translate(-7.383 -8.766)" fill="#ffd064"/>
        <path id="Trazado_1177224" data-name="Trazado 1177224" d="M24.447,43.607a.62.62,0,0,1,0,1.063l-1.724.992a.616.616,0,0,1-.923-.53V43.138a.621.621,0,0,1,.923-.53Z" transform="translate(-9.642 -14.421)" fill="#dd636e"/>
        <path id="Trazado_1177225" data-name="Trazado 1177225" d="M34.732,22H22.651a5,5,0,0,0-4.994,4.686,5,5,0,0,0,9.711,1.985h2.647A5,5,0,1,0,34.732,22Z" transform="translate(-8.685 -9.688)" fill="#696e72"/>
        <path id="Trazado_1177226" data-name="Trazado 1177226" d="M37.69,28.018a1.666,1.666,0,0,1,3.331,0A1.666,1.666,0,0,1,37.69,28.018Z" transform="translate(-13.305 -10.704)" fill="#e8edf2"/>
        <path id="Trazado_1177227" data-name="Trazado 1177227" d="M38.04,22H32v6.671h1.323A5,5,0,1,0,38.04,22Z" transform="translate(-11.994 -9.688)" opacity="0.2"/>
        <path id="Trazado_1177228" data-name="Trazado 1177228" d="M47.355,44.65l.677,3.917a2.87,2.87,0,0,1-4.332,0l.685-3.917A1.907,1.907,0,0,0,47.355,44.65Z" transform="translate(-14.691 -14.91)" fill="#ffb8a9"/>
        <path id="Trazado_1177229" data-name="Trazado 1177229" d="M47.355,44.65l.677,3.917a2.87,2.87,0,0,1-4.332,0l.685-3.917A1.907,1.907,0,0,0,47.355,44.65Z" transform="translate(-14.691 -14.91)" opacity="0.2"/>
        <path id="Trazado_1177230" data-name="Trazado 1177230" d="M52.7,52.322v3.423H35.03V52.322A2.968,2.968,0,0,1,37.092,49.5L41.9,48.221a2.1,2.1,0,0,0,3.932,0L50.643,49.5A2.958,2.958,0,0,1,52.7,52.322Z" transform="translate(-12.692 -15.733)" fill="#dd636e"/>
        <path id="Trazado_1177231" data-name="Trazado 1177231" d="M49.661,39.809A2.656,2.656,0,0,1,48.5,42.341l-1.854,1.246a2.679,2.679,0,0,1-2.956,0l-1.854-1.246a2.64,2.64,0,0,1-1.162-2.532L41.2,35.5h7.933Z" transform="translate(-13.989 -12.801)" fill="#ffb8a9"/>
        <path id="Trazado_1177232" data-name="Trazado 1177232" d="M55.353,52.322A2.958,2.958,0,0,0,53.291,49.5l-4.809-1.277a2.03,2.03,0,0,1-1.963,1.37v6.154h8.834Z" transform="translate(-15.341 -15.733)" opacity="0.2"/>
        <path id="Trazado_1177233" data-name="Trazado 1177233" d="M48,43.587l1.854-1.246a2.656,2.656,0,0,0,1.163-2.532L50.483,35.5H46.52v8.532A2.672,2.672,0,0,0,48,43.587Z" transform="translate(-15.341 -12.801)" opacity="0.2"/>
        <path id="Trazado_1177234" data-name="Trazado 1177234" d="M48.484,32.29H47.33A1.331,1.331,0,0,0,46,30.96H38.25v1.608A2.65,2.65,0,0,0,40.9,35.223H47.33v.885h1.539a.767.767,0,0,0,.769-.769V33.445a1.153,1.153,0,0,0-1.154-1.154Z" transform="translate(-13.435 -11.754)" fill="#696e72"/>
        <path id="Trazado_1177235" data-name="Trazado 1177235" d="M52.358,33.843v1.894a.767.767,0,0,1-.769.769H50.05V32.689H51.2a1.153,1.153,0,0,1,1.154,1.154Z" transform="translate(-16.155 -12.153)" opacity="0.2"/>
      </g>
      <g id="Layer_2" transform="translate(5 5)">
        <g id="Grupo_1228342" data-name="Grupo 1228342" transform="translate(0 6.156)">
          <path id="Trazado_1177236" data-name="Trazado 1177236" d="M7.308,14.539H5.769a.769.769,0,0,1,0-1.539H7.308a.769.769,0,1,1,0,1.539Z" transform="translate(-5 -13)" fill="#252d30"/>
        </g>
        <g id="Grupo_1228343" data-name="Grupo 1228343" transform="translate(4.617 6.156)">
          <path id="Trazado_1177237" data-name="Trazado 1177237" d="M12.539,14.539h-.769a.769.769,0,0,1,0-1.539h.769a.769.769,0,0,1,0,1.539Z" transform="translate(-11 -13)" fill="#252d30"/>
        </g>
        <g id="Grupo_1228344" data-name="Grupo 1228344" transform="translate(8.464 6.156)">
          <path id="Trazado_1177238" data-name="Trazado 1177238" d="M48.318,14.539H16.769a.769.769,0,0,1,0-1.539H48.318a.769.769,0,1,1,0,1.539Z" transform="translate(-16 -13)" fill="#252d30"/>
        </g>
        <g id="Grupo_1228345" data-name="Grupo 1228345" transform="translate(34.626 40.013)">
          <path id="Trazado_1177239" data-name="Trazado 1177239" d="M51.539,58.539h-.769a.769.769,0,0,1,0-1.539h.769a.769.769,0,0,1,0,1.539Z" transform="translate(-50 -57)" fill="#252d30"/>
        </g>
        <g id="Grupo_1228346" data-name="Grupo 1228346" transform="translate(22.34 40.013)">
          <path id="Trazado_1177240" data-name="Trazado 1177240" d="M44.011,58.539H34.8A.769.769,0,1,1,34.8,57h9.208a.769.769,0,0,1,0,1.539Z" transform="translate(-34.033 -57)" fill="#252d30"/>
        </g>
        <g id="Grupo_1228347" data-name="Grupo 1228347" transform="translate(38.474 40.013)">
          <path id="Trazado_1177241" data-name="Trazado 1177241" d="M57.308,58.539H55.769a.769.769,0,0,1,0-1.539h1.539a.769.769,0,0,1,0,1.539Z" transform="translate(-55 -57)" fill="#252d30"/>
        </g>
        <g id="Grupo_1228348" data-name="Grupo 1228348" transform="translate(21.333 18.98)">
          <path id="Trazado_1177242" data-name="Trazado 1177242" d="M37.394,34.473a.7.7,0,0,1-.126-.011,5.77,5.77,0,0,1-4.5-3.77.769.769,0,0,1,1.45-.512,4.234,4.234,0,0,0,3.3,2.765.769.769,0,0,1-.125,1.528Z" transform="translate(-32.725 -29.667)" fill="#252d30"/>
        </g>
        <g id="Grupo_1228349" data-name="Grupo 1228349" transform="translate(26.049 12.312)">
          <path id="Trazado_1177243" data-name="Trazado 1177243" d="M44.252,29.433a.759.759,0,0,1-.291-.057.769.769,0,0,1-.422-1,4.277,4.277,0,0,0-3.917-5.834.769.769,0,1,1,0-1.539,5.816,5.816,0,0,1,5.342,7.955.771.771,0,0,1-.713.479Z" transform="translate(-38.853 -21)" fill="#252d30"/>
        </g>
        <g id="Grupo_1228350" data-name="Grupo 1228350" transform="translate(24.382 15.737)">
          <path id="Trazado_1177244" data-name="Trazado 1177244" d="M39.124,30.179A2.335,2.335,0,0,1,36.687,27.8c0-3.127,4.873-3.129,4.873,0A2.335,2.335,0,0,1,39.124,30.179Zm0-3.226a.845.845,0,1,0,.9.843A.828.828,0,0,0,39.124,26.954Z" transform="translate(-36.687 -25.451)" fill="#252d30"/>
        </g>
        <g id="Grupo_1228351" data-name="Grupo 1228351" transform="translate(12.296 17.313)">
          <path id="Trazado_1177245" data-name="Trazado 1177245" d="M25.084,29.039H21.749a.769.769,0,1,1,0-1.539h3.334a.769.769,0,0,1,0,1.539Z" transform="translate(-20.98 -27.5)" fill="#252d30"/>
        </g>
        <g id="Grupo_1228352" data-name="Grupo 1228352" transform="translate(13.964 15.646)">
          <path id="Trazado_1177246" data-name="Trazado 1177246" d="M23.916,30.207a.769.769,0,0,1-.769-.769V26.1a.769.769,0,1,1,1.539,0v3.335A.769.769,0,0,1,23.916,30.207Z" transform="translate(-23.147 -25.333)" fill="#252d30"/>
        </g>
        <g id="Grupo_1228353" data-name="Grupo 1228353" transform="translate(8.962 17.002)">
          <path id="Trazado_1177247" data-name="Trazado 1177247" d="M22.4,33.946a5.7,5.7,0,0,1-1.526-.208,5.8,5.8,0,0,1-4.219-5.923.77.77,0,1,1,1.537.1,4.232,4.232,0,0,0,8.214,1.675.769.769,0,0,1,1.45.512A5.8,5.8,0,0,1,22.4,33.946Z" transform="translate(-16.647 -27.095)" fill="#252d30"/>
        </g>
        <g id="Grupo_1228354" data-name="Grupo 1228354" transform="translate(18.68 18.981)">
          <path id="Trazado_1177248" data-name="Trazado 1177248" d="M32.7,31.206H30.045a.769.769,0,1,1,0-1.539H32.7a.769.769,0,0,1,0,1.539Z" transform="translate(-29.276 -29.667)" fill="#252d30"/>
        </g>
        <g id="Grupo_1228355" data-name="Grupo 1228355" transform="translate(13.964 12.312)">
          <path id="Trazado_1177249" data-name="Trazado 1177249" d="M36,22.539H23.916a.769.769,0,1,1,0-1.539H36a.769.769,0,0,1,0,1.539Z" transform="translate(-23.147 -21)" fill="#252d30"/>
        </g>
        <g id="Grupo_1228356" data-name="Grupo 1228356" transform="translate(8.972 12.312)">
          <path id="Trazado_1177250" data-name="Trazado 1177250" d="M17.43,27.229l-.048,0a.77.77,0,0,1-.72-.816A5.781,5.781,0,0,1,22.421,21a.769.769,0,0,1,0,1.539A4.24,4.24,0,0,0,18.2,26.507a.769.769,0,0,1-.767.722Z" transform="translate(-16.66 -21)" fill="#252d30"/>
        </g>
        <g id="Grupo_1228357" data-name="Grupo 1228357">
          <path id="Trazado_1177251" data-name="Trazado 1177251" d="M5.769,9.617A.769.769,0,0,1,5,8.847,3.852,3.852,0,0,1,8.847,5a.769.769,0,0,1,0,1.539A2.311,2.311,0,0,0,6.539,8.847.769.769,0,0,1,5.769,9.617Z" transform="translate(-5 -5)" fill="#252d30"/>
        </g>
        <g id="Grupo_1228358" data-name="Grupo 1228358" transform="translate(3.078)">
          <path id="Trazado_1177252" data-name="Trazado 1177252" d="M43.626,6.539H9.769A.769.769,0,1,1,9.769,5H43.626a.769.769,0,1,1,0,1.539Z" transform="translate(-9 -5)" fill="#252d30"/>
        </g>
        <g id="Grupo_1228359" data-name="Grupo 1228359" transform="translate(36.935)">
          <path id="Trazado_1177253" data-name="Trazado 1177253" d="M56.847,9.617a.769.769,0,0,1-.769-.769,2.311,2.311,0,0,0-2.308-2.308.769.769,0,0,1,0-1.539,3.852,3.852,0,0,1,3.847,3.847A.769.769,0,0,1,56.847,9.617Z" transform="translate(-53 -5)" fill="#252d30"/>
        </g>
        <g id="Grupo_1228360" data-name="Grupo 1228360" transform="translate(0 3.078)">
          <path id="Trazado_1177254" data-name="Trazado 1177254" d="M5.769,38.24A.769.769,0,0,1,5,37.47V9.769a.769.769,0,1,1,1.539,0v27.7A.769.769,0,0,1,5.769,38.24Z" transform="translate(-5 -9)" fill="#252d30"/>
        </g>
        <g id="Grupo_1228361" data-name="Grupo 1228361" transform="translate(0 30.779)">
          <path id="Trazado_1177255" data-name="Trazado 1177255" d="M8.847,49.617A3.852,3.852,0,0,1,5,45.769a.769.769,0,0,1,1.539,0,2.311,2.311,0,0,0,2.308,2.308.769.769,0,1,1,0,1.539Z" transform="translate(-5 -45)" fill="#252d30"/>
        </g>
        <g id="Grupo_1228362" data-name="Grupo 1228362" transform="translate(40.013 3.078)">
          <path id="Trazado_1177256" data-name="Trazado 1177256" d="M57.769,38.24A.769.769,0,0,1,57,37.47V9.769a.769.769,0,1,1,1.539,0v27.7A.769.769,0,0,1,57.769,38.24Z" transform="translate(-57 -9)" fill="#252d30"/>
        </g>
        <g id="Grupo_1228363" data-name="Grupo 1228363" transform="translate(3.078 3.078)">
          <path id="Trazado_1177257" data-name="Trazado 1177257" d="M19,10.539H9.769A.769.769,0,1,1,9.769,9H19a.769.769,0,0,1,0,1.539Z" transform="translate(-9 -9)" fill="#252d30"/>
        </g>
        <g id="Grupo_1228364" data-name="Grupo 1228364" transform="translate(15.389 3.078)">
          <path id="Trazado_1177258" data-name="Trazado 1177258" d="M28.847,10.539H25.769a.769.769,0,0,1,0-1.539h3.078a.769.769,0,0,1,0,1.539Z" transform="translate(-25 -9)" fill="#252d30"/>
        </g>
        <g id="Grupo_1228365" data-name="Grupo 1228365" transform="translate(29.212 30.689)">
          <path id="Trazado_1177259" data-name="Trazado 1177259" d="M43.734,48.218a.785.785,0,0,1-.133-.012.77.77,0,0,1-.626-.89l.314-1.8a.769.769,0,0,1,1.516.265l-.314,1.8A.77.77,0,0,1,43.734,48.218Z" transform="translate(-42.964 -44.884)" fill="#252d30"/>
        </g>
        <g id="Grupo_1228366" data-name="Grupo 1228366" transform="translate(32.826 30.689)">
          <path id="Trazado_1177260" data-name="Trazado 1177260" d="M48.744,48.218a.77.77,0,0,1-.757-.637l-.314-1.8a.769.769,0,0,1,1.516-.265l.314,1.8a.77.77,0,0,1-.626.89A.778.778,0,0,1,48.744,48.218Z" transform="translate(-47.661 -44.884)" fill="#252d30"/>
        </g>
        <g id="Grupo_1228367" data-name="Grupo 1228367" transform="translate(24.812 19.206)">
          <path id="Trazado_1177261" data-name="Trazado 1177261" d="M38.014,33.1a.769.769,0,0,1-.769-.769V30.729a.769.769,0,1,1,1.539,0v1.605A.769.769,0,0,1,38.014,33.1Z" transform="translate(-37.245 -29.96)" fill="#252d30"/>
        </g>
        <g id="Grupo_1228368" data-name="Grupo 1228368" transform="translate(27.471 23.47)">
          <path id="Trazado_1177262" data-name="Trazado 1177262" d="M47.893,37.041H41.47a.769.769,0,1,1,0-1.539h6.423a.769.769,0,1,1,0,1.539Z" transform="translate(-40.701 -35.502)" fill="#252d30"/>
        </g>
        <g id="Grupo_1228369" data-name="Grupo 1228369" transform="translate(24.812 20.811)">
          <path id="Trazado_1177263" data-name="Trazado 1177263" d="M40.674,36.244a3.433,3.433,0,0,1-3.429-3.429.769.769,0,1,1,1.539,0,1.892,1.892,0,0,0,1.89,1.89.769.769,0,1,1,0,1.539Z" transform="translate(-37.245 -32.046)" fill="#252d30"/>
        </g>
        <g id="Grupo_1228370" data-name="Grupo 1228370" transform="translate(24.812 19.206)">
          <path id="Trazado_1177264" data-name="Trazado 1177264" d="M45.767,31.5H38.014a.769.769,0,1,1,0-1.539h7.752a.769.769,0,1,1,0,1.539Z" transform="translate(-37.245 -29.96)" fill="#252d30"/>
        </g>
        <g id="Grupo_1228371" data-name="Grupo 1228371" transform="translate(32.564 19.205)">
          <path id="Trazado_1177265" data-name="Trazado 1177265" d="M49.419,32.828a.769.769,0,0,1-.769-.769.561.561,0,0,0-.56-.561.769.769,0,0,1,0-1.539,2.1,2.1,0,0,1,2.1,2.1A.769.769,0,0,1,49.419,32.828Z" transform="translate(-47.32 -29.959)" fill="#252d30"/>
        </g>
        <g id="Grupo_1228372" data-name="Grupo 1228372" transform="translate(29.698 30.783)">
          <path id="Trazado_1177266" data-name="Trazado 1177266" d="M45.844,47a3.425,3.425,0,0,1-1.906-.581.769.769,0,0,1,.856-1.279,1.882,1.882,0,0,0,2.1,0,.769.769,0,0,1,.856,1.279A3.427,3.427,0,0,1,45.844,47Z" transform="translate(-43.596 -45.006)" fill="#252d30"/>
        </g>
        <g id="Grupo_1228373" data-name="Grupo 1228373" transform="translate(32.654 29.544)">
          <path id="Trazado_1177267" data-name="Trazado 1177267" d="M48.207,46.174a.769.769,0,0,1-.429-1.409l1.854-1.24a.769.769,0,1,1,.856,1.279l-1.854,1.24A.766.766,0,0,1,48.207,46.174Z" transform="translate(-47.437 -43.395)" fill="#252d30"/>
        </g>
        <g id="Grupo_1228374" data-name="Grupo 1228374" transform="translate(34.509 27.006)">
          <path id="Trazado_1177268" data-name="Trazado 1177268" d="M50.618,44.174a.77.77,0,0,1-.429-1.409,1.882,1.882,0,0,0,.826-1.8.769.769,0,0,1,.669-.857.759.759,0,0,1,.857.669,3.412,3.412,0,0,1-1.5,3.269A.768.768,0,0,1,50.618,44.174Z" transform="translate(-49.847 -40.097)" fill="#252d30"/>
        </g>
        <g id="Grupo_1228375" data-name="Grupo 1228375" transform="translate(27.844 29.544)">
          <path id="Trazado_1177269" data-name="Trazado 1177269" d="M43.809,46.173a.768.768,0,0,1-.427-.13L41.528,44.8a.769.769,0,0,1,.856-1.279l1.854,1.24a.769.769,0,0,1-.429,1.409Z" transform="translate(-41.186 -43.395)" fill="#252d30"/>
        </g>
        <g id="Grupo_1228376" data-name="Grupo 1228376" transform="translate(26.683 23.445)">
          <path id="Trazado_1177270" data-name="Trazado 1177270" d="M40.447,40.571a.666.666,0,0,1-.095-.006.768.768,0,0,1-.669-.857l.436-3.561a.753.753,0,0,1,.857-.669.768.768,0,0,1,.669.857L41.21,39.9A.769.769,0,0,1,40.447,40.571Z" transform="translate(-39.677 -35.469)" fill="#252d30"/>
        </g>
        <g id="Grupo_1228377" data-name="Grupo 1228377" transform="translate(26.663 27.006)">
          <path id="Trazado_1177271" data-name="Trazado 1177271" d="M41.6,44.174a.77.77,0,0,1-.428-.13,3.412,3.412,0,0,1-1.5-3.269.751.751,0,0,1,.857-.669.768.768,0,0,1,.669.857,1.883,1.883,0,0,0,.826,1.8.77.77,0,0,1-.429,1.409Z" transform="translate(-39.651 -40.097)" fill="#252d30"/>
        </g>
        <g id="Grupo_1228378" data-name="Grupo 1228378" transform="translate(29.212 32.485)">
          <path id="Trazado_1177272" data-name="Trazado 1177272" d="M45.7,50.128h0a2.8,2.8,0,0,1-2.693-1.892.77.77,0,1,1,1.457-.5,1.264,1.264,0,0,0,1.236.853h0a1.265,1.265,0,0,0,1.235-.852.77.77,0,0,1,1.457.5A2.8,2.8,0,0,1,45.7,50.128Z" transform="translate(-42.964 -47.217)" fill="#252d30"/>
        </g>
        <g id="Grupo_1228379" data-name="Grupo 1228379" transform="translate(37.95 33.765)">
          <path id="Trazado_1177273" data-name="Trazado 1177273" d="M57.151,53.241a.769.769,0,0,1-.769-.769,2.183,2.183,0,0,0-1.527-2.087.769.769,0,1,1,.466-1.467,3.714,3.714,0,0,1,2.6,3.553.769.769,0,0,1-.769.769Z" transform="translate(-54.319 -48.881)" fill="#252d30"/>
        </g>
        <g id="Grupo_1228380" data-name="Grupo 1228380" transform="translate(33.14 32.484)">
          <path id="Trazado_1177274" data-name="Trazado 1177274" d="M53.648,50.037a.775.775,0,0,1-.2-.026L48.64,48.73a.769.769,0,1,1,.4-1.487l4.808,1.281a.769.769,0,0,1-.2,1.513Z" transform="translate(-48.069 -47.216)" fill="#252d30"/>
        </g>
        <g id="Grupo_1228381" data-name="Grupo 1228381" transform="translate(22.34 33.765)">
          <path id="Trazado_1177275" data-name="Trazado 1177275" d="M34.8,53.241a.769.769,0,0,1-.769-.769,3.714,3.714,0,0,1,2.6-3.553.769.769,0,1,1,.466,1.467,2.182,2.182,0,0,0-1.527,2.087.77.77,0,0,1-.77.769Z" transform="translate(-34.033 -48.881)" fill="#252d30"/>
        </g>
        <g id="Grupo_1228382" data-name="Grupo 1228382" transform="translate(24.404 32.484)">
          <path id="Trazado_1177276" data-name="Trazado 1177276" d="M37.484,50.037a.769.769,0,0,1-.2-1.513l4.808-1.281a.769.769,0,1,1,.4,1.487l-4.808,1.281A.775.775,0,0,1,37.484,50.037Z" transform="translate(-36.715 -47.216)" fill="#252d30"/>
        </g>
        <g id="Grupo_1228383" data-name="Grupo 1228383" transform="translate(33.894 20.536)">
          <path id="Trazado_1177277" data-name="Trazado 1177277" d="M49.817,37.048a.769.769,0,0,1-.769-.769V32.457a.769.769,0,0,1,1.539,0v3.821A.769.769,0,0,1,49.817,37.048Z" transform="translate(-49.048 -31.688)" fill="#252d30"/>
        </g>
        <g id="Grupo_1228384" data-name="Grupo 1228384" transform="translate(33.894 24.357)">
          <path id="Trazado_1177278" data-name="Trazado 1177278" d="M51.356,38.193H49.817a.769.769,0,1,1,0-1.539h1.539a.769.769,0,1,1,0,1.539Z" transform="translate(-49.048 -36.654)" fill="#252d30"/>
        </g>
        <g id="Grupo_1228385" data-name="Grupo 1228385" transform="translate(35.433 23.587)">
          <path id="Trazado_1177279" data-name="Trazado 1177279" d="M51.817,37.962a.769.769,0,0,1,0-1.539h0a.769.769,0,1,1,1.537,0A1.541,1.541,0,0,1,51.817,37.962Z" transform="translate(-51.048 -35.654)" fill="#252d30"/>
        </g>
        <g id="Grupo_1228386" data-name="Grupo 1228386" transform="translate(35.345 24.355)">
          <path id="Trazado_1177280" data-name="Trazado 1177280" d="M52.027,40.844a.768.768,0,0,1-.763-.676l-.325-2.651a.769.769,0,0,1,.669-.857.754.754,0,0,1,.857.669l.325,2.651a.769.769,0,0,1-.669.857.652.652,0,0,1-.095.006Z" transform="translate(-50.933 -36.652)" fill="#252d30"/>
        </g>
        <g id="Grupo_1228387" data-name="Grupo 1228387" transform="translate(33.894 20.536)">
          <path id="Trazado_1177281" data-name="Trazado 1177281" d="M50.972,33.227H49.817a.769.769,0,1,1,0-1.539h1.154a.769.769,0,0,1,0,1.539Z" transform="translate(-49.048 -31.688)" fill="#252d30"/>
        </g>
        <g id="Grupo_1228388" data-name="Grupo 1228388" transform="translate(36.202 21.69)">
          <path id="Trazado_1177282" data-name="Trazado 1177282" d="M52.817,36.624a.769.769,0,0,1-.769-.769v-1.9a.769.769,0,1,1,1.539,0v1.9A.769.769,0,0,1,52.817,36.624Z" transform="translate(-52.048 -33.188)" fill="#252d30"/>
        </g>
        <g id="Grupo_1228389" data-name="Grupo 1228389" transform="translate(35.048 20.536)">
          <path id="Trazado_1177283" data-name="Trazado 1177283" d="M52.472,34.381a.769.769,0,0,1-.769-.769.386.386,0,0,0-.385-.385.769.769,0,1,1,0-1.539,1.925,1.925,0,0,1,1.924,1.924A.769.769,0,0,1,52.472,34.381Z" transform="translate(-50.548 -31.688)" fill="#252d30"/>
        </g>
        <g id="Grupo_1228390" data-name="Grupo 1228390" transform="translate(40.013 36.586)">
          <path id="Trazado_1177284" data-name="Trazado 1177284" d="M57.769,57.512A.769.769,0,0,1,57,56.743V53.316a.769.769,0,0,1,1.539,0v3.426A.769.769,0,0,1,57.769,57.512Z" transform="translate(-57 -52.547)" fill="#252d30"/>
        </g>
        <g id="Grupo_1228391" data-name="Grupo 1228391" transform="translate(22.34 36.586)">
          <path id="Trazado_1177285" data-name="Trazado 1177285" d="M34.8,57.512a.769.769,0,0,1-.769-.769V53.316a.769.769,0,0,1,1.539,0v3.426A.769.769,0,0,1,34.8,57.512Z" transform="translate(-34.033 -52.547)" fill="#252d30"/>
        </g>
        <g id="Grupo_1228392" data-name="Grupo 1228392" transform="translate(37.811 30.779)">
          <path id="Trazado_1177286" data-name="Trazado 1177286" d="M54.909,49.489a.77.77,0,0,1-.219-1.507,2.322,2.322,0,0,0,1.651-2.212.769.769,0,0,1,1.539,0,3.872,3.872,0,0,1-2.751,3.688A.783.783,0,0,1,54.909,49.489Z" transform="translate(-54.139 -45)" fill="#252d30"/>
        </g>
        <g id="Grupo_1228393" data-name="Grupo 1228393" transform="translate(3.078 33.857)">
          <path id="Trazado_1177287" data-name="Trazado 1177287" d="M30.848,50.539H9.769a.769.769,0,1,1,0-1.539H30.848a.769.769,0,1,1,0,1.539Z" transform="translate(-9 -49)" fill="#252d30"/>
        </g>
        <g id="Grupo_1228394" data-name="Grupo 1228394" transform="translate(4.617 9.234)">
          <path id="Trazado_1177288" data-name="Trazado 1177288" d="M11.769,20.078A.769.769,0,0,1,11,19.308,2.311,2.311,0,0,1,13.308,17a.769.769,0,1,1,0,1.539.77.77,0,0,0-.769.769A.769.769,0,0,1,11.769,20.078Z" transform="translate(-11 -17)" fill="#252d30"/>
        </g>
        <g id="Grupo_1228395" data-name="Grupo 1228395" transform="translate(6.156 9.234)">
          <path id="Trazado_1177289" data-name="Trazado 1177289" d="M41.47,18.539h-27.7a.769.769,0,0,1,0-1.539h27.7a.769.769,0,0,1,0,1.539Z" transform="translate(-13 -17)" fill="#252d30"/>
        </g>
        <g id="Grupo_1228396" data-name="Grupo 1228396" transform="translate(33.857 9.234)">
          <path id="Trazado_1177290" data-name="Trazado 1177290" d="M51.308,20.078a.769.769,0,0,1-.769-.769.77.77,0,0,0-.769-.769.769.769,0,1,1,0-1.539,2.311,2.311,0,0,1,2.308,2.308A.769.769,0,0,1,51.308,20.078Z" transform="translate(-49 -17)" fill="#252d30"/>
        </g>
        <g id="Grupo_1228397" data-name="Grupo 1228397" transform="translate(35.396 10.773)">
          <path id="Trazado_1177291" data-name="Trazado 1177291" d="M51.769,30.356A.769.769,0,0,1,51,29.586V19.769a.769.769,0,1,1,1.539,0v9.817A.769.769,0,0,1,51.769,30.356Z" transform="translate(-51 -19)" fill="#252d30"/>
        </g>
        <g id="Grupo_1228398" data-name="Grupo 1228398" transform="translate(4.617 23.854)">
          <path id="Trazado_1177292" data-name="Trazado 1177292" d="M13.308,39.078A2.311,2.311,0,0,1,11,36.769a.769.769,0,1,1,1.539,0,.77.77,0,0,0,.769.769.769.769,0,0,1,0,1.539Z" transform="translate(-11 -36)" fill="#252d30"/>
        </g>
        <g id="Grupo_1228399" data-name="Grupo 1228399" transform="translate(6.156 25.393)">
          <path id="Trazado_1177293" data-name="Trazado 1177293" d="M34.4,39.539H13.769a.769.769,0,0,1,0-1.539H34.4a.769.769,0,0,1,0,1.539Z" transform="translate(-13 -38)" fill="#252d30"/>
        </g>
        <g id="Grupo_1228400" data-name="Grupo 1228400" transform="translate(4.617 10.773)">
          <path id="Trazado_1177294" data-name="Trazado 1177294" d="M11.769,33.62A.769.769,0,0,1,11,32.851V19.769a.769.769,0,1,1,1.539,0V32.851A.769.769,0,0,1,11.769,33.62Z" transform="translate(-11 -19)" fill="#252d30"/>
        </g>
        <g id="Grupo_1228401" data-name="Grupo 1228401" transform="translate(12.156 30.711)">
          <path id="Trazado_1177295" data-name="Trazado 1177295" d="M22.192,47.063a1.4,1.4,0,0,1-.7-.189,1.368,1.368,0,0,1-.69-1.192.77.77,0,0,1,1.509-.214.77.77,0,0,1,.565,1.417A1.384,1.384,0,0,1,22.192,47.063Z" transform="translate(-20.798 -44.912)" fill="#252d30"/>
        </g>
        <g id="Grupo_1228402" data-name="Grupo 1228402" transform="translate(13.079 30.248)">
          <path id="Trazado_1177296" data-name="Trazado 1177296" d="M22.767,46.845a.769.769,0,0,1-.386-1.436l1.725-1a.769.769,0,1,1,.769,1.333l-1.725,1a.758.758,0,0,1-.384.1Z" transform="translate(-21.997 -44.31)" fill="#252d30"/>
        </g>
        <g id="Grupo_1228403" data-name="Grupo 1228403" transform="translate(14.804 29.183)">
          <path id="Trazado_1177297" data-name="Trazado 1177297" d="M25.009,45.531a.769.769,0,0,1-.556-1.3.769.769,0,0,1,.938-1.2,1.391,1.391,0,0,1,0,2.4.777.777,0,0,1-.383.1Z" transform="translate(-24.239 -42.926)" fill="#252d30"/>
        </g>
        <g id="Grupo_1228404" data-name="Grupo 1228404" transform="translate(13.079 28.186)">
          <path id="Trazado_1177298" data-name="Trazado 1177298" d="M24.491,44.166a.767.767,0,0,1-.384-.1l-1.725-1a.769.769,0,0,1,.769-1.333l1.725,1a.769.769,0,0,1-.386,1.436Z" transform="translate(-21.997 -41.631)" fill="#252d30"/>
        </g>
        <g id="Grupo_1228405" data-name="Grupo 1228405" transform="translate(12.155 28.719)">
          <path id="Trazado_1177299" data-name="Trazado 1177299" d="M21.566,45.854a.769.769,0,0,1-.769-.769V43.092a.769.769,0,0,1,1.539,0v1.992A.769.769,0,0,1,21.566,45.854Z" transform="translate(-20.797 -42.323)" fill="#252d30"/>
        </g>
        <g id="Grupo_1228406" data-name="Grupo 1228406" transform="translate(12.155 28.104)">
          <path id="Trazado_1177300" data-name="Trazado 1177300" d="M21.566,43.678a.769.769,0,0,1-.769-.769,1.385,1.385,0,0,1,.7-1.194,1.368,1.368,0,0,1,1.382-.005.77.77,0,0,1-.569,1.414.77.77,0,0,1-.739.555Z" transform="translate(-20.797 -41.524)" fill="#252d30"/>
        </g>
        <g id="Grupo_1228407" data-name="Grupo 1228407" transform="translate(18.19 29.715)">
          <path id="Trazado_1177301" data-name="Trazado 1177301" d="M39.32,45.157H29.409a.769.769,0,1,1,0-1.539H39.32a.769.769,0,0,1,0,1.539Z" transform="translate(-28.64 -43.618)" fill="#252d30"/>
        </g>
        <g id="Grupo_1228408" data-name="Grupo 1228408" transform="translate(6.156 29.715)">
          <path id="Trazado_1177302" data-name="Trazado 1177302" d="M16.691,45.157H13.769a.769.769,0,1,1,0-1.539h2.922a.769.769,0,1,1,0,1.539Z" transform="translate(-13 -43.618)" fill="#252d30"/>
        </g>
      </g>
    </g>
  </g>
</svg>
