<svg xmlns="http://www.w3.org/2000/svg" xmlns:xlink="http://www.w3.org/1999/xlink" width="113" height="113" viewBox="0 0 113 113">
  <defs>
    <filter id="Trazado_982547" x="0" y="0" width="113" height="113" filterUnits="userSpaceOnUse">
      <feOffset dy="3" input="SourceAlpha"/>
      <feGaussianBlur stdDeviation="3" result="blur"/>
      <feFlood flood-opacity="0.161"/>
      <feComposite operator="in" in2="blur"/>
      <feComposite in="SourceGraphic"/>
    </filter>
  </defs>
  <g id="Grupo_1228310" data-name="Grupo 1228310" transform="translate(-1216 -877.491)">
    <g id="Grupo_1228083" data-name="Grupo 1228083" transform="translate(0 -4755.689)">
      <g id="Grupo_1227505" data-name="Grupo 1227505" transform="translate(0.575 2048.198)">
        <g id="Grupo_1225353" data-name="Grupo 1225353" transform="translate(-0.575 -393.641)">
          <g id="Grupo_1208124" data-name="Grupo 1208124" transform="translate(0 -1922.377)">
            <g id="Grupo_1202435" data-name="Grupo 1202435" transform="translate(-0.56 1255.486)">
              <g id="Grupo_1202052" data-name="Grupo 1202052" transform="translate(1225.561 4651.514)">
                <g id="Grupo_1172010" data-name="Grupo 1172010" transform="translate(0)">
                  <g id="Grupo_1171046" data-name="Grupo 1171046">
                    <g id="Grupo_1148525" data-name="Grupo 1148525">
                      <g transform="matrix(1, 0, 0, 1, -9, -6)" filter="url(#Trazado_982547)">
                        <g id="Trazado_982547-2" data-name="Trazado 982547" transform="translate(9 6)" fill="#d9faea">
                          <path d="M 47.5 93.5 C 41.28937149047852 93.5 35.26533508300781 92.28397369384766 29.59518623352051 89.88570404052734 C 24.11771965026855 87.56893157958984 19.19813346862793 84.25196075439453 14.97309303283691 80.02691650390625 C 10.74804019927979 75.80186462402344 7.431066513061523 70.88229370117188 5.114293098449707 65.40481567382812 C 2.716026782989502 59.73468017578125 1.5 53.71062850952148 1.5 47.5 C 1.5 41.28937149047852 2.716026782989502 35.26533508300781 5.114293098449707 29.59518623352051 C 7.431066513061523 24.11771965026855 10.74804019927979 19.19813346862793 14.97309303283691 14.97309303283691 C 19.19813346862793 10.74804019927979 24.11771965026855 7.431066513061523 29.59518623352051 5.114293098449707 C 35.26533508300781 2.716026782989502 41.28937149047852 1.5 47.5 1.5 C 53.71062850952148 1.5 59.73468017578125 2.716026782989502 65.40481567382812 5.114293098449707 C 70.88229370117188 7.431066513061523 75.80186462402344 10.74804019927979 80.02691650390625 14.97309303283691 C 84.25196075439453 19.19813346862793 87.56893157958984 24.11771965026855 89.88570404052734 29.59518623352051 C 92.28397369384766 35.26533508300781 93.5 41.28937149047852 93.5 47.5 C 93.5 53.71062850952148 92.28397369384766 59.73468017578125 89.88570404052734 65.40481567382812 C 87.56893157958984 70.88229370117188 84.25196075439453 75.80186462402344 80.02691650390625 80.02691650390625 C 75.80186462402344 84.25196075439453 70.88229370117188 87.56893157958984 65.40481567382812 89.88570404052734 C 59.73468017578125 92.28397369384766 53.71062850952148 93.5 47.5 93.5 Z" stroke="none"/>
                          <path d="M 47.5 3 C 41.49121475219727 3 35.66376876831055 4.176155090332031 30.17950439453125 6.495796203613281 C 24.88084411621094 8.736953735351562 20.12152099609375 11.94598388671875 16.03375244140625 16.03375244140625 C 11.94598388671875 20.12152099609375 8.736953735351562 24.88084411621094 6.495796203613281 30.17950439453125 C 4.176155090332031 35.66376876831055 3 41.49121475219727 3 47.5 C 3 53.50878524780273 4.176155090332031 59.33623123168945 6.495796203613281 64.82049560546875 C 8.736953735351562 70.11915588378906 11.94598388671875 74.87847900390625 16.03375244140625 78.96624755859375 C 20.12152099609375 83.05401611328125 24.88084411621094 86.26304626464844 30.17950439453125 88.50419616699219 C 35.66376876831055 90.82384490966797 41.49121475219727 92 47.5 92 C 53.50878524780273 92 59.33623123168945 90.82384490966797 64.82049560546875 88.50419616699219 C 70.11915588378906 86.26304626464844 74.87847900390625 83.05401611328125 78.96624755859375 78.96624755859375 C 83.05401611328125 74.87847900390625 86.26304626464844 70.11915588378906 88.50419616699219 64.82049560546875 C 90.82384490966797 59.33623123168945 92 53.50878524780273 92 47.5 C 92 41.49121475219727 90.82384490966797 35.66376876831055 88.50419616699219 30.17950439453125 C 86.26304626464844 24.88084411621094 83.05401611328125 20.12152099609375 78.96624755859375 16.03375244140625 C 74.87847900390625 11.94598388671875 70.11915588378906 8.736953735351562 64.82049560546875 6.495796203613281 C 59.33623123168945 4.176155090332031 53.50878524780273 3 47.5 3 M 47.5 0 C 73.7335205078125 0 95 21.2664794921875 95 47.5 C 95 73.7335205078125 73.7335205078125 95 47.5 95 C 21.2664794921875 95 0 73.7335205078125 0 47.5 C 0 21.2664794921875 21.2664794921875 0 47.5 0 Z" stroke="none" fill="#277e53"/>
                        </g>
                      </g>
                    </g>
                  </g>
                </g>
              </g>
            </g>
          </g>
        </g>
      </g>
    </g>
    <g id="interaccion" transform="translate(1201.229 899.936)">
      <path id="Trazado_1177112" data-name="Trazado 1177112" d="M62.09,98.487a9.7,9.7,0,0,0-2,19.2l4.051-.013A9.7,9.7,0,0,0,62.09,98.487Z" transform="translate(-6.908 -85.77)" fill="#60b8fe"/>
      <path id="Trazado_1177113" data-name="Trazado 1177113" d="M56.624,108.19a9.7,9.7,0,0,1,7.585-9.468,9.7,9.7,0,1,0-4.115,18.964l4.051-.013.063-.015a9.7,9.7,0,0,1-7.584-9.468Z" transform="translate(-6.909 -85.771)" fill="#23a8fe"/>
      <path id="Trazado_1177114" data-name="Trazado 1177114" d="M88.894,129.264a5.729,5.729,0,0,0-2,11.1l4.051-.022a5.729,5.729,0,0,0-2.054-11.076Z" transform="translate(-33.711 -112.573)" fill="#23a8fe"/>
      <path id="Trazado_1177115" data-name="Trazado 1177115" d="M87.4,134.993a5.729,5.729,0,0,1,3.611-5.323A5.729,5.729,0,1,0,86.9,140.363l4.051-.022.063-.025A5.729,5.729,0,0,1,87.4,134.993Z" transform="translate(-33.711 -112.573)" fill="#0193fa"/>
      <path id="Trazado_1177116" data-name="Trazado 1177116" d="M74.135,182.774A2.025,2.025,0,0,0,72.11,184.8v-.41a2.025,2.025,0,1,0-4.051,0v-.546a2.025,2.025,0,0,0-2.025-2.025,2.051,2.051,0,0,0-2.055,2.025V174a2.025,2.025,0,1,0-4.05,0v16.37a.346.346,0,0,1-.621.21l-3.231-4.241a2.064,2.064,0,0,0-3.683,1.851l4,9.144a8.441,8.441,0,0,0,1.469,2.108h0l1.29,1.277c.675.668.8,1.8.809,3.151h0c0,.215-.008.766-.011,1H73.257c0-.681,0-2.031,0-2.033,0-2.937,2.907-2.669,2.9-6.322l-.006-8.556h.006v-.691h0V184.8A2.026,2.026,0,0,0,74.135,182.774Z" transform="translate(-6.742 -149.764)" fill="#fed2a4"/>
      <g id="Grupo_1228309" data-name="Grupo 1228309" transform="translate(45.455 22.205)">
        <path id="Trazado_1177117" data-name="Trazado 1177117" d="M111.859,191.268c.667.54,1.5.1,1.5-.23V174a2.024,2.024,0,0,1,.96-1.726A2.02,2.02,0,0,0,111.235,174v16.37a.336.336,0,0,1-.124.265Z" transform="translate(-103.504 -171.97)" fill="#ffbd86"/>
        <path id="Trazado_1177118" data-name="Trazado 1177118" d="M62.082,295.306c-.012-1.354-.134-2.483-.809-3.151l-1.29-1.277h0a8.442,8.442,0,0,1-1.469-2.108l-5.184-11.806a2.011,2.011,0,0,0-.937,2.663l4,9.144a8.442,8.442,0,0,0,1.469,2.108h0l1.29,1.277c.675.668.8,1.8.809,3.151h0c0,.215-.008.766-.011,1h2.125c0-.237.011-.788.011-1h0Z" transform="translate(-52.198 -263.406)" fill="#ffbd86"/>
        <path id="Trazado_1177119" data-name="Trazado 1177119" d="M144.5,256.27a1.063,1.063,0,0,0,1.063-1.063v-6.957c-.024,0-.047,0-.07,0a2.051,2.051,0,0,0-2.055,2.025v4.935A1.063,1.063,0,0,0,144.5,256.27Z" transform="translate(-131.658 -238.398)" fill="#ffbd86"/>
        <path id="Trazado_1177120" data-name="Trazado 1177120" d="M208.536,261.656v-6c-.033,0-.066-.005-.1-.005a2.025,2.025,0,0,0-2.025,2.025v3.98a1.063,1.063,0,0,0,2.125,0Z" transform="translate(-186.499 -244.847)" fill="#ffbd86"/>
      </g>
      <path id="Trazado_1177121" data-name="Trazado 1177121" d="M114.777,425.439v8.144a1.113,1.113,0,0,1-1.113,1.113H98.954a1.113,1.113,0,0,1-1.112-1.113v-8.144a1.112,1.112,0,0,1,1.112-1.112h14.711A1.113,1.113,0,0,1,114.777,425.439Z" transform="translate(-46.492 -369.538)" fill="#23a8fe"/>
      <path id="Trazado_1177122" data-name="Trazado 1177122" d="M101.831,433.583v-8.144a1.113,1.113,0,0,1,1.113-1.112H98.952a1.113,1.113,0,0,0-1.113,1.112v8.144a1.113,1.113,0,0,0,1.113,1.113h3.991A1.112,1.112,0,0,1,101.831,433.583Z" transform="translate(-46.491 -369.537)" fill="#0193fa"/>
      <path id="Trazado_1177123" data-name="Trazado 1177123" d="M176.1,259.956a1.063,1.063,0,0,0,1.063-1.063v-6.409c-.033,0-.066-.005-.1-.005a2.026,2.026,0,0,0-2.025,2.025v4.389A1.063,1.063,0,0,0,176.1,259.956Z" transform="translate(-113.722 -219.879)" fill="#ffbd86"/>
      <path id="Trazado_1177124" data-name="Trazado 1177124" d="M330.551,7.634H314.8a1.62,1.62,0,0,0-1.616,1.616v4.443a1.62,1.62,0,0,0,1.616,1.616h15.752a1.62,1.62,0,0,0,1.616-1.616V9.25A1.62,1.62,0,0,0,330.551,7.634Z" transform="translate(-234.029 -6.648)" fill="#fee55a"/>
      <path id="Trazado_1177125" data-name="Trazado 1177125" d="M330.551,98.487H314.8a1.62,1.62,0,0,0-1.616,1.616v4.443a1.62,1.62,0,0,0,1.616,1.616h15.752a1.62,1.62,0,0,0,1.616-1.616V100.1A1.62,1.62,0,0,0,330.551,98.487Z" transform="translate(-234.029 -85.77)" fill="#ffa85d"/>
      <path id="Trazado_1177126" data-name="Trazado 1177126" d="M330.551,189.34H314.8a1.62,1.62,0,0,0-1.616,1.616V195.4a1.62,1.62,0,0,0,1.616,1.616h15.752a1.62,1.62,0,0,0,1.616-1.616v-4.443A1.62,1.62,0,0,0,330.551,189.34Z" transform="translate(-234.029 -164.892)" fill="#ff656f"/>
      <path id="Trazado_1177127" data-name="Trazado 1177127" d="M330.551,280.194H314.8a1.62,1.62,0,0,0-1.616,1.616v4.443a1.62,1.62,0,0,0,1.616,1.616h15.752a1.62,1.62,0,0,0,1.616-1.616V281.81A1.62,1.62,0,0,0,330.551,280.194Z" transform="translate(-234.029 -244.015)" fill="#43cb8e"/>
      <path id="Trazado_1177128" data-name="Trazado 1177128" d="M320.069,13.692V9.25a1.62,1.62,0,0,1,1.616-1.616H314.8a1.62,1.62,0,0,0-1.616,1.616v4.443a1.62,1.62,0,0,0,1.616,1.616h6.886A1.62,1.62,0,0,1,320.069,13.692Z" transform="translate(-234.029 -6.648)" fill="#ffd301"/>
      <path id="Trazado_1177129" data-name="Trazado 1177129" d="M320.069,104.545V100.1a1.62,1.62,0,0,1,1.616-1.616H314.8a1.62,1.62,0,0,0-1.616,1.616v4.443a1.62,1.62,0,0,0,1.616,1.616h6.886A1.62,1.62,0,0,1,320.069,104.545Z" transform="translate(-234.029 -85.77)" fill="#ff9839"/>
      <path id="Trazado_1177130" data-name="Trazado 1177130" d="M320.069,195.4v-4.443a1.62,1.62,0,0,1,1.616-1.616H314.8a1.62,1.62,0,0,0-1.616,1.616V195.4a1.62,1.62,0,0,0,1.616,1.616h6.886A1.62,1.62,0,0,1,320.069,195.4Z" transform="translate(-234.029 -164.893)" fill="#ff4756"/>
      <path id="Trazado_1177131" data-name="Trazado 1177131" d="M320.069,286.252V281.81a1.62,1.62,0,0,1,1.616-1.616H314.8a1.62,1.62,0,0,0-1.616,1.616v4.443a1.62,1.62,0,0,0,1.616,1.616h6.886A1.62,1.62,0,0,1,320.069,286.252Z" transform="translate(-234.029 -244.015)" fill="#00ba66"/>
      <path id="Trazado_1177132" data-name="Trazado 1177132" d="M120.993,448.721v2.348a.968.968,0,0,0,1.937,0v-2.348a.968.968,0,1,0-1.937,0Z" transform="translate(-66.655 -389.939)"/>
      <path id="Trazado_1177133" data-name="Trazado 1177133" d="M50.092,35.978A3.031,3.031,0,0,0,44.746,38.8l3.992,9.136.01.023A12.065,12.065,0,0,0,51.7,51.623a3.457,3.457,0,0,1,.518,2.192,2.084,2.084,0,0,0-1.861,2.069v8.145a2.083,2.083,0,0,0,2.081,2.081h5.1a.968.968,0,1,0,0-1.937h-5.1a.144.144,0,0,1-.144-.144V55.884a.144.144,0,0,1,.144-.144H67.153a.144.144,0,0,1,.144.144v8.145a.144.144,0,0,1-.144.144h-5.1a.968.968,0,1,0,0,1.937h5.1a2.083,2.083,0,0,0,2.081-2.081V55.884a2.083,2.083,0,0,0-1.771-2.055v-.772c0-2.295,2.908-2.318,2.9-6.323V44.9a.968.968,0,0,0-.968-.968h0a.968.968,0,0,0-.968.969v1.83a3.53,3.53,0,0,1-1.3,2.879,4.558,4.558,0,0,0-1.606,3.443V53.8H54.158a4.975,4.975,0,0,0-1.092-3.556,10.569,10.569,0,0,1-2.56-3.1l-3.989-9.129L46.509,38c-.5-1.094,1.023-2.272,2.016-.883l.018.024,3.231,4.241a1.316,1.316,0,0,0,2.36-.8V24.213a1.057,1.057,0,1,1,2.113,0c0,13.839,0,10.949,0,14.784a.968.968,0,1,0,1.937,0c0-4.076.03-1.51.03-4.935a1.057,1.057,0,0,1,2.114,0v4.935a.968.968,0,1,0,1.937,0V34.606a1.057,1.057,0,1,1,2.114,0v4.389a.968.968,0,0,0,1.937,0V35.016a1.057,1.057,0,1,1,2.114,0c0,2.5-.007,2.87,0,5.37a.968.968,0,0,0,.968.968h0a.968.968,0,0,0,.968-.969c0-.557,0-2,0-5.369a2.992,2.992,0,0,0-4.8-2.387,2.989,2.989,0,0,0-3.98-.462,3.015,3.015,0,0,0-.813-.693,10.649,10.649,0,0,0,5.012-8.1h6.059V38.523a2.446,2.446,0,0,0,2.444,2.444h3.875v1.253A2.587,2.587,0,0,0,80.749,44.8H96.5a2.587,2.587,0,0,0,2.584-2.584V37.777A2.587,2.587,0,0,0,96.5,35.193H80.749a2.587,2.587,0,0,0-2.584,2.584V39.03H74.29a.507.507,0,0,1-.507-.507V29.236h4.382v1.253a2.587,2.587,0,0,0,2.584,2.584H96.5a2.587,2.587,0,0,0,2.584-2.584V26.046A2.587,2.587,0,0,0,96.5,23.462H80.749a2.587,2.587,0,0,0-2.584,2.584V27.3H73.783V17.5h4.382v1.253a2.587,2.587,0,0,0,2.584,2.584H96.5a2.587,2.587,0,0,0,2.584-2.584V14.315A2.587,2.587,0,0,0,96.5,11.731H80.749a2.587,2.587,0,0,0-2.584,2.584v1.253H73.783V6.281a.507.507,0,0,1,.507-.507h3.875V7.027a2.587,2.587,0,0,0,2.584,2.584H96.5a2.587,2.587,0,0,0,2.584-2.584V2.584A2.587,2.587,0,0,0,96.5,0H80.749a2.587,2.587,0,0,0-2.584,2.584V3.837H74.29a2.446,2.446,0,0,0-2.444,2.444V21.433H65.787A10.67,10.67,0,1,0,52.2,32.652v6.089Zm30.01,1.8a.656.656,0,0,1,.647-.647H96.5a.656.656,0,0,1,.647.647V42.22a.656.656,0,0,1-.647.647H80.749a.656.656,0,0,1-.647-.647V37.777Zm0-11.731a.656.656,0,0,1,.647-.647H96.5a.656.656,0,0,1,.647.647v4.443a.656.656,0,0,1-.647.647H80.749a.656.656,0,0,1-.647-.647V26.046Zm0-11.731a.656.656,0,0,1,.647-.647H96.5a.656.656,0,0,1,.647.647v4.443a.656.656,0,0,1-.647.647H80.749a.656.656,0,0,1-.647-.647V14.315Zm0-11.731a.656.656,0,0,1,.647-.647H96.5a.656.656,0,0,1,.647.647V7.027a.656.656,0,0,1-.647.647H80.749a.656.656,0,0,1-.647-.647V2.584ZM55.187,21.216h0a2.994,2.994,0,0,0-2.988,3v1.909a4.762,4.762,0,1,1,5.988-.049V24.21A3,3,0,0,0,55.187,21.216ZM46.428,22.4A8.734,8.734,0,1,1,58.185,30.6v-2.22a6.7,6.7,0,1,0-5.987.03v2.213A8.777,8.777,0,0,1,46.428,22.4Z"/>
    </g>
  </g>
</svg>
