<svg xmlns="http://www.w3.org/2000/svg" xmlns:xlink="http://www.w3.org/1999/xlink" width="103" height="103" viewBox="0 0 103 103">
  <defs>
    <filter id="Trazado_978624" x="0" y="0" width="103" height="103" filterUnits="userSpaceOnUse">
      <feOffset dy="3" input="SourceAlpha"/>
      <feGaussianBlur stdDeviation="3" result="blur"/>
      <feFlood flood-opacity="0.161"/>
      <feComposite operator="in" in2="blur"/>
      <feComposite in="SourceGraphic"/>
    </filter>
  </defs>
  <g id="Grupo_1228456" data-name="Grupo 1228456" transform="translate(9 6)">
    <g id="Grupo_1228166" data-name="Grupo 1228166">
      <g id="Grupo_1222635" data-name="Grupo 1222635">
        <g id="Grupo_1203109" data-name="Grupo 1203109">
          <g id="Grupo_1176881" data-name="Grupo 1176881">
            <g id="Grupo_1175148" data-name="Grupo 1175148">
              <g id="Grupo_1173798" data-name="Grupo 1173798">
                <g id="Grupo_1171925" data-name="Grupo 1171925">
                  <g id="Grupo_1164524" data-name="Grupo 1164524">
                    <g id="Grupo_1144123" data-name="Grupo 1144123">
                      <g transform="matrix(1, 0, 0, 1, -9, -6)" filter="url(#Trazado_978624)">
                        <g id="Trazado_978624-2" data-name="Trazado 978624" transform="translate(9 6)" fill="#f3f8fc">
                          <path d="M 42.5 83.5 C 36.96437835693359 83.5 31.59512901306152 82.41617584228516 26.54141235351562 80.27863311767578 C 21.65934181213379 78.21369171142578 17.27447128295898 75.25723266601562 13.50862312316895 71.49137878417969 C 9.742764472961426 67.72553253173828 6.786305904388428 63.34066009521484 4.721364498138428 58.45858764648438 C 2.583823442459106 53.40486907958984 1.5 48.03562164306641 1.5 42.5 C 1.5 36.96437835693359 2.583823442459106 31.59512901306152 4.721364498138428 26.54141235351562 C 6.786305904388428 21.65934181213379 9.742764472961426 17.27447128295898 13.50862312316895 13.50862312316895 C 17.27447128295898 9.742764472961426 21.65934181213379 6.786305904388428 26.54141235351562 4.721364498138428 C 31.59512901306152 2.583823442459106 36.96437835693359 1.5 42.5 1.5 C 48.03562164306641 1.5 53.40486907958984 2.583823442459106 58.45858764648438 4.721364498138428 C 63.34066009521484 6.786305904388428 67.72553253173828 9.742764472961426 71.49137878417969 13.50862312316895 C 75.25723266601562 17.27447128295898 78.21369171142578 21.65934181213379 80.27863311767578 26.54141235351562 C 82.41617584228516 31.59512901306152 83.5 36.96437835693359 83.5 42.5 C 83.5 48.03562164306641 82.41617584228516 53.40486907958984 80.27863311767578 58.45858764648438 C 78.21369171142578 63.34066009521484 75.25723266601562 67.72553253173828 71.49137878417969 71.49137878417969 C 67.72553253173828 75.25723266601562 63.34066009521484 78.21369171142578 58.45858764648438 80.27863311767578 C 53.40486907958984 82.41617584228516 48.03562164306641 83.5 42.5 83.5 Z" stroke="none"/>
                          <path d="M 42.5 3 C 37.16621398925781 3 31.99356079101562 4.043960571289062 27.125732421875 6.102882385253906 C 22.42246627807617 8.092185974121094 18.19785308837891 10.94070434570312 14.56928253173828 14.56928253173828 C 10.94070434570312 18.19785308837891 8.092185974121094 22.42246627807617 6.102882385253906 27.125732421875 C 4.043960571289062 31.99356079101562 3 37.16621398925781 3 42.5 C 3 47.83378601074219 4.043960571289062 53.00643920898438 6.102882385253906 57.87425231933594 C 8.092185974121094 62.57753372192383 10.94070434570312 66.80213165283203 14.56928253173828 70.43071746826172 C 18.19786834716797 74.05929565429688 22.42246627807617 76.90781402587891 27.125732421875 78.89711761474609 C 31.99356079101562 80.95603942871094 37.16621398925781 82 42.5 82 C 47.83378601074219 82 53.00642395019531 80.95603942871094 57.87425231933594 78.89711761474609 C 62.57753372192383 76.90781402587891 66.80213165283203 74.05929565429688 70.43071746826172 70.43071746826172 C 74.05929565429688 66.80213165283203 76.90781402587891 62.57753372192383 78.89711761474609 57.87425231933594 C 80.95603942871094 53.00642395019531 82 47.83378601074219 82 42.5 C 82 37.16621398925781 80.95603942871094 31.99356079101562 78.89711761474609 27.125732421875 C 76.90781402587891 22.42246627807617 74.05929565429688 18.19786834716797 70.43071746826172 14.56928253173828 C 66.80213165283203 10.94070434570312 62.57753372192383 8.092185974121094 57.87425231933594 6.102882385253906 C 53.00643920898438 4.043960571289062 47.83378601074219 3 42.5 3 M 42.5 0 C 65.97209167480469 0 85 19.02789306640625 85 42.5 C 85 65.97209167480469 65.97209167480469 85 42.5 85 C 19.02789306640625 85 0 65.97209167480469 0 42.5 C 0 19.02789306640625 19.02789306640625 0 42.5 0 Z" stroke="none" fill="#8ebee7"/>
                        </g>
                      </g>
                    </g>
                  </g>
                </g>
              </g>
            </g>
          </g>
        </g>
      </g>
    </g>
    <g id="ia-global" transform="translate(15.967 16.054)">
      <g id="Grupo_1228435" data-name="Grupo 1228435" transform="translate(0)">
        <g id="Grupo_1228423" data-name="Grupo 1228423" transform="translate(0 0)">
          <g id="Grupo_1228422" data-name="Grupo 1228422">
            <path id="Trazado_1177359" data-name="Trazado 1177359" d="M26.749,51.267A24.429,24.429,0,0,1,9.956,9.116,24.424,24.424,0,1,1,26.749,51.267Zm0-47.2A22.781,22.781,0,0,0,11.091,43.377,22.776,22.776,0,1,0,26.749,4.068Z" transform="translate(-2.341 -2.421)"/>
          </g>
        </g>
        <g id="Grupo_1228428" data-name="Grupo 1228428" transform="translate(7.359 0)">
          <g id="Grupo_1228425" data-name="Grupo 1228425">
            <g id="Grupo_1228424" data-name="Grupo 1228424">
              <path id="Trazado_1177360" data-name="Trazado 1177360" d="M26.091,17.006A24.273,24.273,0,0,1,9.3,10.311a.824.824,0,0,1,0-1.194,24.426,24.426,0,0,1,33.6,0,.824.824,0,0,1,0,1.2,24.351,24.351,0,0,1-16.807,6.695Zm-15-7.293a22.629,22.629,0,0,0,15,5.645A22.7,22.7,0,0,0,41.108,9.714a22.781,22.781,0,0,0-30.023,0Z" transform="translate(-9.042 -2.421)"/>
            </g>
          </g>
          <g id="Grupo_1228427" data-name="Grupo 1228427" transform="translate(0 34.26)">
            <g id="Grupo_1228426" data-name="Grupo 1228426">
              <path id="Trazado_1177361" data-name="Trazado 1177361" d="M26.091,48.2A24.273,24.273,0,0,1,9.3,41.5a.824.824,0,0,1,0-1.194,24.426,24.426,0,0,1,33.6,0,.824.824,0,0,1,0,1.2A24.351,24.351,0,0,1,26.091,48.2Zm-15-7.293a22.781,22.781,0,0,0,30.023,0,22.781,22.781,0,0,0-30.023,0Z" transform="translate(-9.042 -33.615)"/>
            </g>
          </g>
        </g>
        <g id="Grupo_1228430" data-name="Grupo 1228430" transform="translate(10.152)">
          <g id="Grupo_1228429" data-name="Grupo 1228429">
            <path id="Trazado_1177362" data-name="Trazado 1177362" d="M25.839,51.267c-7.86,0-14.254-10.956-14.254-24.423S17.979,2.421,25.839,2.421,40.1,13.377,40.1,26.844,33.7,51.267,25.839,51.267Zm0-47.2c-6.951,0-12.607,10.217-12.607,22.776s5.656,22.776,12.607,22.776S38.454,39.4,38.454,26.844,32.8,4.068,25.839,4.068Z" transform="translate(-11.584 -2.421)"/>
          </g>
        </g>
        <g id="Grupo_1228432" data-name="Grupo 1228432" transform="translate(23.586 0.042)">
          <g id="Grupo_1228431" data-name="Grupo 1228431">
            <path id="Trazado_1177363" data-name="Trazado 1177363" d="M24.641,51.133a.824.824,0,0,1-.824-.824V3.283a.824.824,0,0,1,1.647,0V50.31A.824.824,0,0,1,24.641,51.133Z" transform="translate(-23.817 -2.459)"/>
          </g>
        </g>
        <g id="Grupo_1228434" data-name="Grupo 1228434" transform="translate(0.073 23.555)">
          <g id="Grupo_1228433" data-name="Grupo 1228433">
            <path id="Trazado_1177364" data-name="Trazado 1177364" d="M50.258,25.516H3.231a.824.824,0,0,1,0-1.647H50.258a.824.824,0,1,1,0,1.647Z" transform="translate(-2.408 -23.868)"/>
          </g>
        </g>
      </g>
      <g id="Grupo_1228438" data-name="Grupo 1228438" transform="translate(27.982 31.101)">
        <g id="Grupo_1228436" data-name="Grupo 1228436" transform="translate(0.823 0.824)">
          <path id="Trazado_1177365" data-name="Trazado 1177365" d="M35.017,31.981,28.99,38.41a1.557,1.557,0,0,0-.421,1.065v10.6a1.557,1.557,0,0,0,1.557,1.558H50.448a1.557,1.557,0,0,0,1.557-1.558V33.046a1.557,1.557,0,0,0-1.557-1.557H36.154A1.557,1.557,0,0,0,35.017,31.981Z" transform="translate(-28.568 -31.489)" fill="#ffd364"/>
        </g>
        <g id="Grupo_1228437" data-name="Grupo 1228437">
          <path id="Trazado_1177366" data-name="Trazado 1177366" d="M50.522,52.529H30.2a2.384,2.384,0,0,1-2.381-2.382v-10.6a2.372,2.372,0,0,1,.644-1.629l6.028-6.429a2.39,2.39,0,0,1,1.738-.752H50.522A2.384,2.384,0,0,1,52.9,33.12V50.148a2.384,2.384,0,0,1-2.381,2.382ZM35.691,32.618l-6.028,6.429a.734.734,0,0,0-.2.5v10.6a.735.735,0,0,0,.734.734H50.523a.735.735,0,0,0,.734-.734V33.12a.735.735,0,0,0-.734-.734H36.228a.739.739,0,0,0-.536.232Z" transform="translate(-27.819 -30.739)"/>
        </g>
      </g>
      <g id="Grupo_1228449" data-name="Grupo 1228449" transform="translate(34.231 37.141)">
        <g id="Grupo_1228440" data-name="Grupo 1228440">
          <g id="Grupo_1228439" data-name="Grupo 1228439">
            <path id="Trazado_1177367" data-name="Trazado 1177367" d="M39.356,45.949a.824.824,0,0,1-.824-.824V39.564a1.634,1.634,0,0,0-.489-1.179,1.687,1.687,0,0,0-2.886,1.179v5.562a.824.824,0,0,1-1.647,0V39.564A3.335,3.335,0,0,1,39.2,37.215a3.26,3.26,0,0,1,.977,2.349v5.562a.824.824,0,0,1-.824.824Z" transform="translate(-33.509 -36.238)"/>
          </g>
        </g>
        <g id="Grupo_1228442" data-name="Grupo 1228442" transform="translate(10.845 0.523)">
          <g id="Grupo_1228441" data-name="Grupo 1228441">
            <path id="Trazado_1177368" data-name="Trazado 1177368" d="M44.207,45.618a.824.824,0,0,1-.824-.824V37.538a.824.824,0,1,1,1.647,0v7.256A.824.824,0,0,1,44.207,45.618Z" transform="translate(-43.383 -36.714)"/>
          </g>
        </g>
        <g id="Grupo_1228444" data-name="Grupo 1228444" transform="translate(9.341 0.523)">
          <g id="Grupo_1228443" data-name="Grupo 1228443">
            <path id="Trazado_1177369" data-name="Trazado 1177369" d="M45.845,38.362H42.838a.824.824,0,1,1,0-1.647h3.007a.824.824,0,1,1,0,1.647Z" transform="translate(-42.014 -36.714)"/>
          </g>
        </g>
        <g id="Grupo_1228446" data-name="Grupo 1228446" transform="translate(9.341 7.779)">
          <g id="Grupo_1228445" data-name="Grupo 1228445">
            <path id="Trazado_1177370" data-name="Trazado 1177370" d="M45.845,44.968H42.838a.824.824,0,1,1,0-1.647h3.007a.824.824,0,0,1,0,1.647Z" transform="translate(-42.014 -43.321)"/>
          </g>
        </g>
        <g id="Grupo_1228448" data-name="Grupo 1228448" transform="translate(0 4.495)">
          <g id="Grupo_1228447" data-name="Grupo 1228447">
            <path id="Trazado_1177371" data-name="Trazado 1177371" d="M39.356,41.978H34.333a.824.824,0,0,1,0-1.647h5.023a.824.824,0,0,1,0,1.647Z" transform="translate(-33.509 -40.331)"/>
          </g>
        </g>
      </g>
      <g id="Grupo_1228452" data-name="Grupo 1228452" transform="translate(33.791 13.968)">
        <g id="Grupo_1228450" data-name="Grupo 1228450" transform="translate(0.824 0.824)">
          <path id="Trazado_1177372" data-name="Trazado 1177372" d="M39.767,18.854a2.954,2.954,0,1,1-2.955-2.965A2.955,2.955,0,0,1,39.767,18.854Z" transform="translate(-33.858 -15.889)" fill="#ff6f5c"/>
        </g>
        <g id="Grupo_1228451" data-name="Grupo 1228451">
          <path id="Trazado_1177373" data-name="Trazado 1177373" d="M36.885,22.706a3.784,3.784,0,1,1,3.779-3.778A3.782,3.782,0,0,1,36.885,22.706Zm0-5.92a2.136,2.136,0,1,0,2.131,2.142A2.139,2.139,0,0,0,36.885,16.786Z" transform="translate(-33.108 -15.139)"/>
        </g>
      </g>
      <g id="Grupo_1228455" data-name="Grupo 1228455" transform="translate(7.732 26.59)">
        <g id="Grupo_1228453" data-name="Grupo 1228453" transform="translate(0.824 0.824)">
          <path id="Trazado_1177374" data-name="Trazado 1177374" d="M16.04,30.347a2.954,2.954,0,1,1-2.955-2.965A2.955,2.955,0,0,1,16.04,30.347Z" transform="translate(-10.132 -27.381)" fill="#9fd25a"/>
        </g>
        <g id="Grupo_1228454" data-name="Grupo 1228454">
          <path id="Trazado_1177375" data-name="Trazado 1177375" d="M13.16,34.2a3.784,3.784,0,1,1,3.778-3.778A3.782,3.782,0,0,1,13.16,34.2Zm0-5.92a2.136,2.136,0,1,0,2.13,2.142,2.139,2.139,0,0,0-2.13-2.142Z" transform="translate(-9.381 -26.631)"/>
        </g>
      </g>
    </g>
  </g>
</svg>
